G75*
%MOIN*%
%OFA0B0*%
%FSLAX25Y25*%
%IPPOS*%
%LPD*%
%AMOC8*
5,1,8,0,0,1.08239X$1,22.5*
%
%ADD10C,0.00000*%
%ADD11C,0.00600*%
%ADD12C,0.00800*%
%ADD13C,0.01600*%
%ADD14C,0.04000*%
%ADD15C,0.02000*%
%ADD16C,0.01000*%
%ADD17C,0.00400*%
%ADD18C,0.00500*%
%ADD19C,0.00700*%
D10*
X0001500Y0001500D02*
X0001500Y0361500D01*
X0536500Y0361500D01*
X0536500Y0001500D01*
X0001500Y0001500D01*
X0015250Y0021500D02*
X0015252Y0021658D01*
X0015258Y0021815D01*
X0015268Y0021973D01*
X0015282Y0022130D01*
X0015300Y0022286D01*
X0015321Y0022443D01*
X0015347Y0022598D01*
X0015377Y0022753D01*
X0015410Y0022907D01*
X0015448Y0023060D01*
X0015489Y0023213D01*
X0015534Y0023364D01*
X0015583Y0023514D01*
X0015636Y0023662D01*
X0015692Y0023810D01*
X0015753Y0023955D01*
X0015816Y0024100D01*
X0015884Y0024242D01*
X0015955Y0024383D01*
X0016029Y0024522D01*
X0016107Y0024659D01*
X0016189Y0024794D01*
X0016273Y0024927D01*
X0016362Y0025058D01*
X0016453Y0025186D01*
X0016548Y0025313D01*
X0016645Y0025436D01*
X0016746Y0025558D01*
X0016850Y0025676D01*
X0016957Y0025792D01*
X0017067Y0025905D01*
X0017179Y0026016D01*
X0017295Y0026123D01*
X0017413Y0026228D01*
X0017533Y0026330D01*
X0017656Y0026428D01*
X0017782Y0026524D01*
X0017910Y0026616D01*
X0018040Y0026705D01*
X0018172Y0026791D01*
X0018307Y0026873D01*
X0018444Y0026952D01*
X0018582Y0027027D01*
X0018722Y0027099D01*
X0018865Y0027167D01*
X0019008Y0027232D01*
X0019154Y0027293D01*
X0019301Y0027350D01*
X0019449Y0027404D01*
X0019599Y0027454D01*
X0019749Y0027500D01*
X0019901Y0027542D01*
X0020054Y0027581D01*
X0020208Y0027615D01*
X0020363Y0027646D01*
X0020518Y0027672D01*
X0020674Y0027695D01*
X0020831Y0027714D01*
X0020988Y0027729D01*
X0021145Y0027740D01*
X0021303Y0027747D01*
X0021461Y0027750D01*
X0021618Y0027749D01*
X0021776Y0027744D01*
X0021933Y0027735D01*
X0022091Y0027722D01*
X0022247Y0027705D01*
X0022404Y0027684D01*
X0022559Y0027660D01*
X0022714Y0027631D01*
X0022869Y0027598D01*
X0023022Y0027562D01*
X0023175Y0027521D01*
X0023326Y0027477D01*
X0023476Y0027429D01*
X0023625Y0027378D01*
X0023773Y0027322D01*
X0023919Y0027263D01*
X0024064Y0027200D01*
X0024207Y0027133D01*
X0024348Y0027063D01*
X0024487Y0026990D01*
X0024625Y0026913D01*
X0024761Y0026832D01*
X0024894Y0026748D01*
X0025025Y0026661D01*
X0025154Y0026570D01*
X0025281Y0026476D01*
X0025406Y0026379D01*
X0025527Y0026279D01*
X0025647Y0026176D01*
X0025763Y0026070D01*
X0025877Y0025961D01*
X0025989Y0025849D01*
X0026097Y0025735D01*
X0026202Y0025617D01*
X0026305Y0025497D01*
X0026404Y0025375D01*
X0026500Y0025250D01*
X0026593Y0025122D01*
X0026683Y0024993D01*
X0026769Y0024861D01*
X0026853Y0024727D01*
X0026932Y0024591D01*
X0027009Y0024453D01*
X0027081Y0024313D01*
X0027150Y0024171D01*
X0027216Y0024028D01*
X0027278Y0023883D01*
X0027336Y0023736D01*
X0027391Y0023588D01*
X0027442Y0023439D01*
X0027489Y0023288D01*
X0027532Y0023137D01*
X0027571Y0022984D01*
X0027607Y0022830D01*
X0027638Y0022676D01*
X0027666Y0022521D01*
X0027690Y0022365D01*
X0027710Y0022208D01*
X0027726Y0022051D01*
X0027738Y0021894D01*
X0027746Y0021737D01*
X0027750Y0021579D01*
X0027750Y0021421D01*
X0027746Y0021263D01*
X0027738Y0021106D01*
X0027726Y0020949D01*
X0027710Y0020792D01*
X0027690Y0020635D01*
X0027666Y0020479D01*
X0027638Y0020324D01*
X0027607Y0020170D01*
X0027571Y0020016D01*
X0027532Y0019863D01*
X0027489Y0019712D01*
X0027442Y0019561D01*
X0027391Y0019412D01*
X0027336Y0019264D01*
X0027278Y0019117D01*
X0027216Y0018972D01*
X0027150Y0018829D01*
X0027081Y0018687D01*
X0027009Y0018547D01*
X0026932Y0018409D01*
X0026853Y0018273D01*
X0026769Y0018139D01*
X0026683Y0018007D01*
X0026593Y0017878D01*
X0026500Y0017750D01*
X0026404Y0017625D01*
X0026305Y0017503D01*
X0026202Y0017383D01*
X0026097Y0017265D01*
X0025989Y0017151D01*
X0025877Y0017039D01*
X0025763Y0016930D01*
X0025647Y0016824D01*
X0025527Y0016721D01*
X0025406Y0016621D01*
X0025281Y0016524D01*
X0025154Y0016430D01*
X0025025Y0016339D01*
X0024894Y0016252D01*
X0024761Y0016168D01*
X0024625Y0016087D01*
X0024487Y0016010D01*
X0024348Y0015937D01*
X0024207Y0015867D01*
X0024064Y0015800D01*
X0023919Y0015737D01*
X0023773Y0015678D01*
X0023625Y0015622D01*
X0023476Y0015571D01*
X0023326Y0015523D01*
X0023175Y0015479D01*
X0023022Y0015438D01*
X0022869Y0015402D01*
X0022714Y0015369D01*
X0022559Y0015340D01*
X0022404Y0015316D01*
X0022247Y0015295D01*
X0022091Y0015278D01*
X0021933Y0015265D01*
X0021776Y0015256D01*
X0021618Y0015251D01*
X0021461Y0015250D01*
X0021303Y0015253D01*
X0021145Y0015260D01*
X0020988Y0015271D01*
X0020831Y0015286D01*
X0020674Y0015305D01*
X0020518Y0015328D01*
X0020363Y0015354D01*
X0020208Y0015385D01*
X0020054Y0015419D01*
X0019901Y0015458D01*
X0019749Y0015500D01*
X0019599Y0015546D01*
X0019449Y0015596D01*
X0019301Y0015650D01*
X0019154Y0015707D01*
X0019008Y0015768D01*
X0018865Y0015833D01*
X0018722Y0015901D01*
X0018582Y0015973D01*
X0018444Y0016048D01*
X0018307Y0016127D01*
X0018172Y0016209D01*
X0018040Y0016295D01*
X0017910Y0016384D01*
X0017782Y0016476D01*
X0017656Y0016572D01*
X0017533Y0016670D01*
X0017413Y0016772D01*
X0017295Y0016877D01*
X0017179Y0016984D01*
X0017067Y0017095D01*
X0016957Y0017208D01*
X0016850Y0017324D01*
X0016746Y0017442D01*
X0016645Y0017564D01*
X0016548Y0017687D01*
X0016453Y0017814D01*
X0016362Y0017942D01*
X0016273Y0018073D01*
X0016189Y0018206D01*
X0016107Y0018341D01*
X0016029Y0018478D01*
X0015955Y0018617D01*
X0015884Y0018758D01*
X0015816Y0018900D01*
X0015753Y0019045D01*
X0015692Y0019190D01*
X0015636Y0019338D01*
X0015583Y0019486D01*
X0015534Y0019636D01*
X0015489Y0019787D01*
X0015448Y0019940D01*
X0015410Y0020093D01*
X0015377Y0020247D01*
X0015347Y0020402D01*
X0015321Y0020557D01*
X0015300Y0020714D01*
X0015282Y0020870D01*
X0015268Y0021027D01*
X0015258Y0021185D01*
X0015252Y0021342D01*
X0015250Y0021500D01*
X0255250Y0186500D02*
X0255252Y0186658D01*
X0255258Y0186815D01*
X0255268Y0186973D01*
X0255282Y0187130D01*
X0255300Y0187286D01*
X0255321Y0187443D01*
X0255347Y0187598D01*
X0255377Y0187753D01*
X0255410Y0187907D01*
X0255448Y0188060D01*
X0255489Y0188213D01*
X0255534Y0188364D01*
X0255583Y0188514D01*
X0255636Y0188662D01*
X0255692Y0188810D01*
X0255753Y0188955D01*
X0255816Y0189100D01*
X0255884Y0189242D01*
X0255955Y0189383D01*
X0256029Y0189522D01*
X0256107Y0189659D01*
X0256189Y0189794D01*
X0256273Y0189927D01*
X0256362Y0190058D01*
X0256453Y0190186D01*
X0256548Y0190313D01*
X0256645Y0190436D01*
X0256746Y0190558D01*
X0256850Y0190676D01*
X0256957Y0190792D01*
X0257067Y0190905D01*
X0257179Y0191016D01*
X0257295Y0191123D01*
X0257413Y0191228D01*
X0257533Y0191330D01*
X0257656Y0191428D01*
X0257782Y0191524D01*
X0257910Y0191616D01*
X0258040Y0191705D01*
X0258172Y0191791D01*
X0258307Y0191873D01*
X0258444Y0191952D01*
X0258582Y0192027D01*
X0258722Y0192099D01*
X0258865Y0192167D01*
X0259008Y0192232D01*
X0259154Y0192293D01*
X0259301Y0192350D01*
X0259449Y0192404D01*
X0259599Y0192454D01*
X0259749Y0192500D01*
X0259901Y0192542D01*
X0260054Y0192581D01*
X0260208Y0192615D01*
X0260363Y0192646D01*
X0260518Y0192672D01*
X0260674Y0192695D01*
X0260831Y0192714D01*
X0260988Y0192729D01*
X0261145Y0192740D01*
X0261303Y0192747D01*
X0261461Y0192750D01*
X0261618Y0192749D01*
X0261776Y0192744D01*
X0261933Y0192735D01*
X0262091Y0192722D01*
X0262247Y0192705D01*
X0262404Y0192684D01*
X0262559Y0192660D01*
X0262714Y0192631D01*
X0262869Y0192598D01*
X0263022Y0192562D01*
X0263175Y0192521D01*
X0263326Y0192477D01*
X0263476Y0192429D01*
X0263625Y0192378D01*
X0263773Y0192322D01*
X0263919Y0192263D01*
X0264064Y0192200D01*
X0264207Y0192133D01*
X0264348Y0192063D01*
X0264487Y0191990D01*
X0264625Y0191913D01*
X0264761Y0191832D01*
X0264894Y0191748D01*
X0265025Y0191661D01*
X0265154Y0191570D01*
X0265281Y0191476D01*
X0265406Y0191379D01*
X0265527Y0191279D01*
X0265647Y0191176D01*
X0265763Y0191070D01*
X0265877Y0190961D01*
X0265989Y0190849D01*
X0266097Y0190735D01*
X0266202Y0190617D01*
X0266305Y0190497D01*
X0266404Y0190375D01*
X0266500Y0190250D01*
X0266593Y0190122D01*
X0266683Y0189993D01*
X0266769Y0189861D01*
X0266853Y0189727D01*
X0266932Y0189591D01*
X0267009Y0189453D01*
X0267081Y0189313D01*
X0267150Y0189171D01*
X0267216Y0189028D01*
X0267278Y0188883D01*
X0267336Y0188736D01*
X0267391Y0188588D01*
X0267442Y0188439D01*
X0267489Y0188288D01*
X0267532Y0188137D01*
X0267571Y0187984D01*
X0267607Y0187830D01*
X0267638Y0187676D01*
X0267666Y0187521D01*
X0267690Y0187365D01*
X0267710Y0187208D01*
X0267726Y0187051D01*
X0267738Y0186894D01*
X0267746Y0186737D01*
X0267750Y0186579D01*
X0267750Y0186421D01*
X0267746Y0186263D01*
X0267738Y0186106D01*
X0267726Y0185949D01*
X0267710Y0185792D01*
X0267690Y0185635D01*
X0267666Y0185479D01*
X0267638Y0185324D01*
X0267607Y0185170D01*
X0267571Y0185016D01*
X0267532Y0184863D01*
X0267489Y0184712D01*
X0267442Y0184561D01*
X0267391Y0184412D01*
X0267336Y0184264D01*
X0267278Y0184117D01*
X0267216Y0183972D01*
X0267150Y0183829D01*
X0267081Y0183687D01*
X0267009Y0183547D01*
X0266932Y0183409D01*
X0266853Y0183273D01*
X0266769Y0183139D01*
X0266683Y0183007D01*
X0266593Y0182878D01*
X0266500Y0182750D01*
X0266404Y0182625D01*
X0266305Y0182503D01*
X0266202Y0182383D01*
X0266097Y0182265D01*
X0265989Y0182151D01*
X0265877Y0182039D01*
X0265763Y0181930D01*
X0265647Y0181824D01*
X0265527Y0181721D01*
X0265406Y0181621D01*
X0265281Y0181524D01*
X0265154Y0181430D01*
X0265025Y0181339D01*
X0264894Y0181252D01*
X0264761Y0181168D01*
X0264625Y0181087D01*
X0264487Y0181010D01*
X0264348Y0180937D01*
X0264207Y0180867D01*
X0264064Y0180800D01*
X0263919Y0180737D01*
X0263773Y0180678D01*
X0263625Y0180622D01*
X0263476Y0180571D01*
X0263326Y0180523D01*
X0263175Y0180479D01*
X0263022Y0180438D01*
X0262869Y0180402D01*
X0262714Y0180369D01*
X0262559Y0180340D01*
X0262404Y0180316D01*
X0262247Y0180295D01*
X0262091Y0180278D01*
X0261933Y0180265D01*
X0261776Y0180256D01*
X0261618Y0180251D01*
X0261461Y0180250D01*
X0261303Y0180253D01*
X0261145Y0180260D01*
X0260988Y0180271D01*
X0260831Y0180286D01*
X0260674Y0180305D01*
X0260518Y0180328D01*
X0260363Y0180354D01*
X0260208Y0180385D01*
X0260054Y0180419D01*
X0259901Y0180458D01*
X0259749Y0180500D01*
X0259599Y0180546D01*
X0259449Y0180596D01*
X0259301Y0180650D01*
X0259154Y0180707D01*
X0259008Y0180768D01*
X0258865Y0180833D01*
X0258722Y0180901D01*
X0258582Y0180973D01*
X0258444Y0181048D01*
X0258307Y0181127D01*
X0258172Y0181209D01*
X0258040Y0181295D01*
X0257910Y0181384D01*
X0257782Y0181476D01*
X0257656Y0181572D01*
X0257533Y0181670D01*
X0257413Y0181772D01*
X0257295Y0181877D01*
X0257179Y0181984D01*
X0257067Y0182095D01*
X0256957Y0182208D01*
X0256850Y0182324D01*
X0256746Y0182442D01*
X0256645Y0182564D01*
X0256548Y0182687D01*
X0256453Y0182814D01*
X0256362Y0182942D01*
X0256273Y0183073D01*
X0256189Y0183206D01*
X0256107Y0183341D01*
X0256029Y0183478D01*
X0255955Y0183617D01*
X0255884Y0183758D01*
X0255816Y0183900D01*
X0255753Y0184045D01*
X0255692Y0184190D01*
X0255636Y0184338D01*
X0255583Y0184486D01*
X0255534Y0184636D01*
X0255489Y0184787D01*
X0255448Y0184940D01*
X0255410Y0185093D01*
X0255377Y0185247D01*
X0255347Y0185402D01*
X0255321Y0185557D01*
X0255300Y0185714D01*
X0255282Y0185870D01*
X0255268Y0186027D01*
X0255258Y0186185D01*
X0255252Y0186342D01*
X0255250Y0186500D01*
X0255250Y0271500D02*
X0255252Y0271658D01*
X0255258Y0271815D01*
X0255268Y0271973D01*
X0255282Y0272130D01*
X0255300Y0272286D01*
X0255321Y0272443D01*
X0255347Y0272598D01*
X0255377Y0272753D01*
X0255410Y0272907D01*
X0255448Y0273060D01*
X0255489Y0273213D01*
X0255534Y0273364D01*
X0255583Y0273514D01*
X0255636Y0273662D01*
X0255692Y0273810D01*
X0255753Y0273955D01*
X0255816Y0274100D01*
X0255884Y0274242D01*
X0255955Y0274383D01*
X0256029Y0274522D01*
X0256107Y0274659D01*
X0256189Y0274794D01*
X0256273Y0274927D01*
X0256362Y0275058D01*
X0256453Y0275186D01*
X0256548Y0275313D01*
X0256645Y0275436D01*
X0256746Y0275558D01*
X0256850Y0275676D01*
X0256957Y0275792D01*
X0257067Y0275905D01*
X0257179Y0276016D01*
X0257295Y0276123D01*
X0257413Y0276228D01*
X0257533Y0276330D01*
X0257656Y0276428D01*
X0257782Y0276524D01*
X0257910Y0276616D01*
X0258040Y0276705D01*
X0258172Y0276791D01*
X0258307Y0276873D01*
X0258444Y0276952D01*
X0258582Y0277027D01*
X0258722Y0277099D01*
X0258865Y0277167D01*
X0259008Y0277232D01*
X0259154Y0277293D01*
X0259301Y0277350D01*
X0259449Y0277404D01*
X0259599Y0277454D01*
X0259749Y0277500D01*
X0259901Y0277542D01*
X0260054Y0277581D01*
X0260208Y0277615D01*
X0260363Y0277646D01*
X0260518Y0277672D01*
X0260674Y0277695D01*
X0260831Y0277714D01*
X0260988Y0277729D01*
X0261145Y0277740D01*
X0261303Y0277747D01*
X0261461Y0277750D01*
X0261618Y0277749D01*
X0261776Y0277744D01*
X0261933Y0277735D01*
X0262091Y0277722D01*
X0262247Y0277705D01*
X0262404Y0277684D01*
X0262559Y0277660D01*
X0262714Y0277631D01*
X0262869Y0277598D01*
X0263022Y0277562D01*
X0263175Y0277521D01*
X0263326Y0277477D01*
X0263476Y0277429D01*
X0263625Y0277378D01*
X0263773Y0277322D01*
X0263919Y0277263D01*
X0264064Y0277200D01*
X0264207Y0277133D01*
X0264348Y0277063D01*
X0264487Y0276990D01*
X0264625Y0276913D01*
X0264761Y0276832D01*
X0264894Y0276748D01*
X0265025Y0276661D01*
X0265154Y0276570D01*
X0265281Y0276476D01*
X0265406Y0276379D01*
X0265527Y0276279D01*
X0265647Y0276176D01*
X0265763Y0276070D01*
X0265877Y0275961D01*
X0265989Y0275849D01*
X0266097Y0275735D01*
X0266202Y0275617D01*
X0266305Y0275497D01*
X0266404Y0275375D01*
X0266500Y0275250D01*
X0266593Y0275122D01*
X0266683Y0274993D01*
X0266769Y0274861D01*
X0266853Y0274727D01*
X0266932Y0274591D01*
X0267009Y0274453D01*
X0267081Y0274313D01*
X0267150Y0274171D01*
X0267216Y0274028D01*
X0267278Y0273883D01*
X0267336Y0273736D01*
X0267391Y0273588D01*
X0267442Y0273439D01*
X0267489Y0273288D01*
X0267532Y0273137D01*
X0267571Y0272984D01*
X0267607Y0272830D01*
X0267638Y0272676D01*
X0267666Y0272521D01*
X0267690Y0272365D01*
X0267710Y0272208D01*
X0267726Y0272051D01*
X0267738Y0271894D01*
X0267746Y0271737D01*
X0267750Y0271579D01*
X0267750Y0271421D01*
X0267746Y0271263D01*
X0267738Y0271106D01*
X0267726Y0270949D01*
X0267710Y0270792D01*
X0267690Y0270635D01*
X0267666Y0270479D01*
X0267638Y0270324D01*
X0267607Y0270170D01*
X0267571Y0270016D01*
X0267532Y0269863D01*
X0267489Y0269712D01*
X0267442Y0269561D01*
X0267391Y0269412D01*
X0267336Y0269264D01*
X0267278Y0269117D01*
X0267216Y0268972D01*
X0267150Y0268829D01*
X0267081Y0268687D01*
X0267009Y0268547D01*
X0266932Y0268409D01*
X0266853Y0268273D01*
X0266769Y0268139D01*
X0266683Y0268007D01*
X0266593Y0267878D01*
X0266500Y0267750D01*
X0266404Y0267625D01*
X0266305Y0267503D01*
X0266202Y0267383D01*
X0266097Y0267265D01*
X0265989Y0267151D01*
X0265877Y0267039D01*
X0265763Y0266930D01*
X0265647Y0266824D01*
X0265527Y0266721D01*
X0265406Y0266621D01*
X0265281Y0266524D01*
X0265154Y0266430D01*
X0265025Y0266339D01*
X0264894Y0266252D01*
X0264761Y0266168D01*
X0264625Y0266087D01*
X0264487Y0266010D01*
X0264348Y0265937D01*
X0264207Y0265867D01*
X0264064Y0265800D01*
X0263919Y0265737D01*
X0263773Y0265678D01*
X0263625Y0265622D01*
X0263476Y0265571D01*
X0263326Y0265523D01*
X0263175Y0265479D01*
X0263022Y0265438D01*
X0262869Y0265402D01*
X0262714Y0265369D01*
X0262559Y0265340D01*
X0262404Y0265316D01*
X0262247Y0265295D01*
X0262091Y0265278D01*
X0261933Y0265265D01*
X0261776Y0265256D01*
X0261618Y0265251D01*
X0261461Y0265250D01*
X0261303Y0265253D01*
X0261145Y0265260D01*
X0260988Y0265271D01*
X0260831Y0265286D01*
X0260674Y0265305D01*
X0260518Y0265328D01*
X0260363Y0265354D01*
X0260208Y0265385D01*
X0260054Y0265419D01*
X0259901Y0265458D01*
X0259749Y0265500D01*
X0259599Y0265546D01*
X0259449Y0265596D01*
X0259301Y0265650D01*
X0259154Y0265707D01*
X0259008Y0265768D01*
X0258865Y0265833D01*
X0258722Y0265901D01*
X0258582Y0265973D01*
X0258444Y0266048D01*
X0258307Y0266127D01*
X0258172Y0266209D01*
X0258040Y0266295D01*
X0257910Y0266384D01*
X0257782Y0266476D01*
X0257656Y0266572D01*
X0257533Y0266670D01*
X0257413Y0266772D01*
X0257295Y0266877D01*
X0257179Y0266984D01*
X0257067Y0267095D01*
X0256957Y0267208D01*
X0256850Y0267324D01*
X0256746Y0267442D01*
X0256645Y0267564D01*
X0256548Y0267687D01*
X0256453Y0267814D01*
X0256362Y0267942D01*
X0256273Y0268073D01*
X0256189Y0268206D01*
X0256107Y0268341D01*
X0256029Y0268478D01*
X0255955Y0268617D01*
X0255884Y0268758D01*
X0255816Y0268900D01*
X0255753Y0269045D01*
X0255692Y0269190D01*
X0255636Y0269338D01*
X0255583Y0269486D01*
X0255534Y0269636D01*
X0255489Y0269787D01*
X0255448Y0269940D01*
X0255410Y0270093D01*
X0255377Y0270247D01*
X0255347Y0270402D01*
X0255321Y0270557D01*
X0255300Y0270714D01*
X0255282Y0270870D01*
X0255268Y0271027D01*
X0255258Y0271185D01*
X0255252Y0271342D01*
X0255250Y0271500D01*
X0227250Y0331200D02*
X0227252Y0331337D01*
X0227258Y0331473D01*
X0227268Y0331610D01*
X0227282Y0331746D01*
X0227300Y0331881D01*
X0227321Y0332016D01*
X0227347Y0332150D01*
X0227377Y0332284D01*
X0227410Y0332416D01*
X0227447Y0332548D01*
X0227489Y0332678D01*
X0227533Y0332807D01*
X0227582Y0332935D01*
X0227634Y0333062D01*
X0227690Y0333186D01*
X0227750Y0333309D01*
X0227813Y0333431D01*
X0227880Y0333550D01*
X0227950Y0333667D01*
X0228023Y0333783D01*
X0228100Y0333896D01*
X0228180Y0334007D01*
X0228263Y0334115D01*
X0228350Y0334221D01*
X0228439Y0334325D01*
X0228531Y0334425D01*
X0228627Y0334523D01*
X0228725Y0334619D01*
X0228825Y0334711D01*
X0228929Y0334800D01*
X0229035Y0334887D01*
X0229143Y0334970D01*
X0229254Y0335050D01*
X0229367Y0335127D01*
X0229483Y0335200D01*
X0229600Y0335270D01*
X0229719Y0335337D01*
X0229841Y0335400D01*
X0229964Y0335460D01*
X0230088Y0335516D01*
X0230215Y0335568D01*
X0230343Y0335617D01*
X0230472Y0335661D01*
X0230602Y0335703D01*
X0230734Y0335740D01*
X0230866Y0335773D01*
X0231000Y0335803D01*
X0231134Y0335829D01*
X0231269Y0335850D01*
X0231404Y0335868D01*
X0231540Y0335882D01*
X0231677Y0335892D01*
X0231813Y0335898D01*
X0231950Y0335900D01*
X0232087Y0335898D01*
X0232223Y0335892D01*
X0232360Y0335882D01*
X0232496Y0335868D01*
X0232631Y0335850D01*
X0232766Y0335829D01*
X0232900Y0335803D01*
X0233034Y0335773D01*
X0233166Y0335740D01*
X0233298Y0335703D01*
X0233428Y0335661D01*
X0233557Y0335617D01*
X0233685Y0335568D01*
X0233812Y0335516D01*
X0233936Y0335460D01*
X0234059Y0335400D01*
X0234181Y0335337D01*
X0234300Y0335270D01*
X0234417Y0335200D01*
X0234533Y0335127D01*
X0234646Y0335050D01*
X0234757Y0334970D01*
X0234865Y0334887D01*
X0234971Y0334800D01*
X0235075Y0334711D01*
X0235175Y0334619D01*
X0235273Y0334523D01*
X0235369Y0334425D01*
X0235461Y0334325D01*
X0235550Y0334221D01*
X0235637Y0334115D01*
X0235720Y0334007D01*
X0235800Y0333896D01*
X0235877Y0333783D01*
X0235950Y0333667D01*
X0236020Y0333550D01*
X0236087Y0333431D01*
X0236150Y0333309D01*
X0236210Y0333186D01*
X0236266Y0333062D01*
X0236318Y0332935D01*
X0236367Y0332807D01*
X0236411Y0332678D01*
X0236453Y0332548D01*
X0236490Y0332416D01*
X0236523Y0332284D01*
X0236553Y0332150D01*
X0236579Y0332016D01*
X0236600Y0331881D01*
X0236618Y0331746D01*
X0236632Y0331610D01*
X0236642Y0331473D01*
X0236648Y0331337D01*
X0236650Y0331200D01*
X0236648Y0331063D01*
X0236642Y0330927D01*
X0236632Y0330790D01*
X0236618Y0330654D01*
X0236600Y0330519D01*
X0236579Y0330384D01*
X0236553Y0330250D01*
X0236523Y0330116D01*
X0236490Y0329984D01*
X0236453Y0329852D01*
X0236411Y0329722D01*
X0236367Y0329593D01*
X0236318Y0329465D01*
X0236266Y0329338D01*
X0236210Y0329214D01*
X0236150Y0329091D01*
X0236087Y0328969D01*
X0236020Y0328850D01*
X0235950Y0328733D01*
X0235877Y0328617D01*
X0235800Y0328504D01*
X0235720Y0328393D01*
X0235637Y0328285D01*
X0235550Y0328179D01*
X0235461Y0328075D01*
X0235369Y0327975D01*
X0235273Y0327877D01*
X0235175Y0327781D01*
X0235075Y0327689D01*
X0234971Y0327600D01*
X0234865Y0327513D01*
X0234757Y0327430D01*
X0234646Y0327350D01*
X0234533Y0327273D01*
X0234417Y0327200D01*
X0234300Y0327130D01*
X0234181Y0327063D01*
X0234059Y0327000D01*
X0233936Y0326940D01*
X0233812Y0326884D01*
X0233685Y0326832D01*
X0233557Y0326783D01*
X0233428Y0326739D01*
X0233298Y0326697D01*
X0233166Y0326660D01*
X0233034Y0326627D01*
X0232900Y0326597D01*
X0232766Y0326571D01*
X0232631Y0326550D01*
X0232496Y0326532D01*
X0232360Y0326518D01*
X0232223Y0326508D01*
X0232087Y0326502D01*
X0231950Y0326500D01*
X0231813Y0326502D01*
X0231677Y0326508D01*
X0231540Y0326518D01*
X0231404Y0326532D01*
X0231269Y0326550D01*
X0231134Y0326571D01*
X0231000Y0326597D01*
X0230866Y0326627D01*
X0230734Y0326660D01*
X0230602Y0326697D01*
X0230472Y0326739D01*
X0230343Y0326783D01*
X0230215Y0326832D01*
X0230088Y0326884D01*
X0229964Y0326940D01*
X0229841Y0327000D01*
X0229719Y0327063D01*
X0229600Y0327130D01*
X0229483Y0327200D01*
X0229367Y0327273D01*
X0229254Y0327350D01*
X0229143Y0327430D01*
X0229035Y0327513D01*
X0228929Y0327600D01*
X0228825Y0327689D01*
X0228725Y0327781D01*
X0228627Y0327877D01*
X0228531Y0327975D01*
X0228439Y0328075D01*
X0228350Y0328179D01*
X0228263Y0328285D01*
X0228180Y0328393D01*
X0228100Y0328504D01*
X0228023Y0328617D01*
X0227950Y0328733D01*
X0227880Y0328850D01*
X0227813Y0328969D01*
X0227750Y0329091D01*
X0227690Y0329214D01*
X0227634Y0329338D01*
X0227582Y0329465D01*
X0227533Y0329593D01*
X0227489Y0329722D01*
X0227447Y0329852D01*
X0227410Y0329984D01*
X0227377Y0330116D01*
X0227347Y0330250D01*
X0227321Y0330384D01*
X0227300Y0330519D01*
X0227282Y0330654D01*
X0227268Y0330790D01*
X0227258Y0330927D01*
X0227252Y0331063D01*
X0227250Y0331200D01*
X0196350Y0331200D02*
X0196352Y0331337D01*
X0196358Y0331473D01*
X0196368Y0331610D01*
X0196382Y0331746D01*
X0196400Y0331881D01*
X0196421Y0332016D01*
X0196447Y0332150D01*
X0196477Y0332284D01*
X0196510Y0332416D01*
X0196547Y0332548D01*
X0196589Y0332678D01*
X0196633Y0332807D01*
X0196682Y0332935D01*
X0196734Y0333062D01*
X0196790Y0333186D01*
X0196850Y0333309D01*
X0196913Y0333431D01*
X0196980Y0333550D01*
X0197050Y0333667D01*
X0197123Y0333783D01*
X0197200Y0333896D01*
X0197280Y0334007D01*
X0197363Y0334115D01*
X0197450Y0334221D01*
X0197539Y0334325D01*
X0197631Y0334425D01*
X0197727Y0334523D01*
X0197825Y0334619D01*
X0197925Y0334711D01*
X0198029Y0334800D01*
X0198135Y0334887D01*
X0198243Y0334970D01*
X0198354Y0335050D01*
X0198467Y0335127D01*
X0198583Y0335200D01*
X0198700Y0335270D01*
X0198819Y0335337D01*
X0198941Y0335400D01*
X0199064Y0335460D01*
X0199188Y0335516D01*
X0199315Y0335568D01*
X0199443Y0335617D01*
X0199572Y0335661D01*
X0199702Y0335703D01*
X0199834Y0335740D01*
X0199966Y0335773D01*
X0200100Y0335803D01*
X0200234Y0335829D01*
X0200369Y0335850D01*
X0200504Y0335868D01*
X0200640Y0335882D01*
X0200777Y0335892D01*
X0200913Y0335898D01*
X0201050Y0335900D01*
X0201187Y0335898D01*
X0201323Y0335892D01*
X0201460Y0335882D01*
X0201596Y0335868D01*
X0201731Y0335850D01*
X0201866Y0335829D01*
X0202000Y0335803D01*
X0202134Y0335773D01*
X0202266Y0335740D01*
X0202398Y0335703D01*
X0202528Y0335661D01*
X0202657Y0335617D01*
X0202785Y0335568D01*
X0202912Y0335516D01*
X0203036Y0335460D01*
X0203159Y0335400D01*
X0203281Y0335337D01*
X0203400Y0335270D01*
X0203517Y0335200D01*
X0203633Y0335127D01*
X0203746Y0335050D01*
X0203857Y0334970D01*
X0203965Y0334887D01*
X0204071Y0334800D01*
X0204175Y0334711D01*
X0204275Y0334619D01*
X0204373Y0334523D01*
X0204469Y0334425D01*
X0204561Y0334325D01*
X0204650Y0334221D01*
X0204737Y0334115D01*
X0204820Y0334007D01*
X0204900Y0333896D01*
X0204977Y0333783D01*
X0205050Y0333667D01*
X0205120Y0333550D01*
X0205187Y0333431D01*
X0205250Y0333309D01*
X0205310Y0333186D01*
X0205366Y0333062D01*
X0205418Y0332935D01*
X0205467Y0332807D01*
X0205511Y0332678D01*
X0205553Y0332548D01*
X0205590Y0332416D01*
X0205623Y0332284D01*
X0205653Y0332150D01*
X0205679Y0332016D01*
X0205700Y0331881D01*
X0205718Y0331746D01*
X0205732Y0331610D01*
X0205742Y0331473D01*
X0205748Y0331337D01*
X0205750Y0331200D01*
X0205748Y0331063D01*
X0205742Y0330927D01*
X0205732Y0330790D01*
X0205718Y0330654D01*
X0205700Y0330519D01*
X0205679Y0330384D01*
X0205653Y0330250D01*
X0205623Y0330116D01*
X0205590Y0329984D01*
X0205553Y0329852D01*
X0205511Y0329722D01*
X0205467Y0329593D01*
X0205418Y0329465D01*
X0205366Y0329338D01*
X0205310Y0329214D01*
X0205250Y0329091D01*
X0205187Y0328969D01*
X0205120Y0328850D01*
X0205050Y0328733D01*
X0204977Y0328617D01*
X0204900Y0328504D01*
X0204820Y0328393D01*
X0204737Y0328285D01*
X0204650Y0328179D01*
X0204561Y0328075D01*
X0204469Y0327975D01*
X0204373Y0327877D01*
X0204275Y0327781D01*
X0204175Y0327689D01*
X0204071Y0327600D01*
X0203965Y0327513D01*
X0203857Y0327430D01*
X0203746Y0327350D01*
X0203633Y0327273D01*
X0203517Y0327200D01*
X0203400Y0327130D01*
X0203281Y0327063D01*
X0203159Y0327000D01*
X0203036Y0326940D01*
X0202912Y0326884D01*
X0202785Y0326832D01*
X0202657Y0326783D01*
X0202528Y0326739D01*
X0202398Y0326697D01*
X0202266Y0326660D01*
X0202134Y0326627D01*
X0202000Y0326597D01*
X0201866Y0326571D01*
X0201731Y0326550D01*
X0201596Y0326532D01*
X0201460Y0326518D01*
X0201323Y0326508D01*
X0201187Y0326502D01*
X0201050Y0326500D01*
X0200913Y0326502D01*
X0200777Y0326508D01*
X0200640Y0326518D01*
X0200504Y0326532D01*
X0200369Y0326550D01*
X0200234Y0326571D01*
X0200100Y0326597D01*
X0199966Y0326627D01*
X0199834Y0326660D01*
X0199702Y0326697D01*
X0199572Y0326739D01*
X0199443Y0326783D01*
X0199315Y0326832D01*
X0199188Y0326884D01*
X0199064Y0326940D01*
X0198941Y0327000D01*
X0198819Y0327063D01*
X0198700Y0327130D01*
X0198583Y0327200D01*
X0198467Y0327273D01*
X0198354Y0327350D01*
X0198243Y0327430D01*
X0198135Y0327513D01*
X0198029Y0327600D01*
X0197925Y0327689D01*
X0197825Y0327781D01*
X0197727Y0327877D01*
X0197631Y0327975D01*
X0197539Y0328075D01*
X0197450Y0328179D01*
X0197363Y0328285D01*
X0197280Y0328393D01*
X0197200Y0328504D01*
X0197123Y0328617D01*
X0197050Y0328733D01*
X0196980Y0328850D01*
X0196913Y0328969D01*
X0196850Y0329091D01*
X0196790Y0329214D01*
X0196734Y0329338D01*
X0196682Y0329465D01*
X0196633Y0329593D01*
X0196589Y0329722D01*
X0196547Y0329852D01*
X0196510Y0329984D01*
X0196477Y0330116D01*
X0196447Y0330250D01*
X0196421Y0330384D01*
X0196400Y0330519D01*
X0196382Y0330654D01*
X0196368Y0330790D01*
X0196358Y0330927D01*
X0196352Y0331063D01*
X0196350Y0331200D01*
X0137250Y0331200D02*
X0137252Y0331337D01*
X0137258Y0331473D01*
X0137268Y0331610D01*
X0137282Y0331746D01*
X0137300Y0331881D01*
X0137321Y0332016D01*
X0137347Y0332150D01*
X0137377Y0332284D01*
X0137410Y0332416D01*
X0137447Y0332548D01*
X0137489Y0332678D01*
X0137533Y0332807D01*
X0137582Y0332935D01*
X0137634Y0333062D01*
X0137690Y0333186D01*
X0137750Y0333309D01*
X0137813Y0333431D01*
X0137880Y0333550D01*
X0137950Y0333667D01*
X0138023Y0333783D01*
X0138100Y0333896D01*
X0138180Y0334007D01*
X0138263Y0334115D01*
X0138350Y0334221D01*
X0138439Y0334325D01*
X0138531Y0334425D01*
X0138627Y0334523D01*
X0138725Y0334619D01*
X0138825Y0334711D01*
X0138929Y0334800D01*
X0139035Y0334887D01*
X0139143Y0334970D01*
X0139254Y0335050D01*
X0139367Y0335127D01*
X0139483Y0335200D01*
X0139600Y0335270D01*
X0139719Y0335337D01*
X0139841Y0335400D01*
X0139964Y0335460D01*
X0140088Y0335516D01*
X0140215Y0335568D01*
X0140343Y0335617D01*
X0140472Y0335661D01*
X0140602Y0335703D01*
X0140734Y0335740D01*
X0140866Y0335773D01*
X0141000Y0335803D01*
X0141134Y0335829D01*
X0141269Y0335850D01*
X0141404Y0335868D01*
X0141540Y0335882D01*
X0141677Y0335892D01*
X0141813Y0335898D01*
X0141950Y0335900D01*
X0142087Y0335898D01*
X0142223Y0335892D01*
X0142360Y0335882D01*
X0142496Y0335868D01*
X0142631Y0335850D01*
X0142766Y0335829D01*
X0142900Y0335803D01*
X0143034Y0335773D01*
X0143166Y0335740D01*
X0143298Y0335703D01*
X0143428Y0335661D01*
X0143557Y0335617D01*
X0143685Y0335568D01*
X0143812Y0335516D01*
X0143936Y0335460D01*
X0144059Y0335400D01*
X0144181Y0335337D01*
X0144300Y0335270D01*
X0144417Y0335200D01*
X0144533Y0335127D01*
X0144646Y0335050D01*
X0144757Y0334970D01*
X0144865Y0334887D01*
X0144971Y0334800D01*
X0145075Y0334711D01*
X0145175Y0334619D01*
X0145273Y0334523D01*
X0145369Y0334425D01*
X0145461Y0334325D01*
X0145550Y0334221D01*
X0145637Y0334115D01*
X0145720Y0334007D01*
X0145800Y0333896D01*
X0145877Y0333783D01*
X0145950Y0333667D01*
X0146020Y0333550D01*
X0146087Y0333431D01*
X0146150Y0333309D01*
X0146210Y0333186D01*
X0146266Y0333062D01*
X0146318Y0332935D01*
X0146367Y0332807D01*
X0146411Y0332678D01*
X0146453Y0332548D01*
X0146490Y0332416D01*
X0146523Y0332284D01*
X0146553Y0332150D01*
X0146579Y0332016D01*
X0146600Y0331881D01*
X0146618Y0331746D01*
X0146632Y0331610D01*
X0146642Y0331473D01*
X0146648Y0331337D01*
X0146650Y0331200D01*
X0146648Y0331063D01*
X0146642Y0330927D01*
X0146632Y0330790D01*
X0146618Y0330654D01*
X0146600Y0330519D01*
X0146579Y0330384D01*
X0146553Y0330250D01*
X0146523Y0330116D01*
X0146490Y0329984D01*
X0146453Y0329852D01*
X0146411Y0329722D01*
X0146367Y0329593D01*
X0146318Y0329465D01*
X0146266Y0329338D01*
X0146210Y0329214D01*
X0146150Y0329091D01*
X0146087Y0328969D01*
X0146020Y0328850D01*
X0145950Y0328733D01*
X0145877Y0328617D01*
X0145800Y0328504D01*
X0145720Y0328393D01*
X0145637Y0328285D01*
X0145550Y0328179D01*
X0145461Y0328075D01*
X0145369Y0327975D01*
X0145273Y0327877D01*
X0145175Y0327781D01*
X0145075Y0327689D01*
X0144971Y0327600D01*
X0144865Y0327513D01*
X0144757Y0327430D01*
X0144646Y0327350D01*
X0144533Y0327273D01*
X0144417Y0327200D01*
X0144300Y0327130D01*
X0144181Y0327063D01*
X0144059Y0327000D01*
X0143936Y0326940D01*
X0143812Y0326884D01*
X0143685Y0326832D01*
X0143557Y0326783D01*
X0143428Y0326739D01*
X0143298Y0326697D01*
X0143166Y0326660D01*
X0143034Y0326627D01*
X0142900Y0326597D01*
X0142766Y0326571D01*
X0142631Y0326550D01*
X0142496Y0326532D01*
X0142360Y0326518D01*
X0142223Y0326508D01*
X0142087Y0326502D01*
X0141950Y0326500D01*
X0141813Y0326502D01*
X0141677Y0326508D01*
X0141540Y0326518D01*
X0141404Y0326532D01*
X0141269Y0326550D01*
X0141134Y0326571D01*
X0141000Y0326597D01*
X0140866Y0326627D01*
X0140734Y0326660D01*
X0140602Y0326697D01*
X0140472Y0326739D01*
X0140343Y0326783D01*
X0140215Y0326832D01*
X0140088Y0326884D01*
X0139964Y0326940D01*
X0139841Y0327000D01*
X0139719Y0327063D01*
X0139600Y0327130D01*
X0139483Y0327200D01*
X0139367Y0327273D01*
X0139254Y0327350D01*
X0139143Y0327430D01*
X0139035Y0327513D01*
X0138929Y0327600D01*
X0138825Y0327689D01*
X0138725Y0327781D01*
X0138627Y0327877D01*
X0138531Y0327975D01*
X0138439Y0328075D01*
X0138350Y0328179D01*
X0138263Y0328285D01*
X0138180Y0328393D01*
X0138100Y0328504D01*
X0138023Y0328617D01*
X0137950Y0328733D01*
X0137880Y0328850D01*
X0137813Y0328969D01*
X0137750Y0329091D01*
X0137690Y0329214D01*
X0137634Y0329338D01*
X0137582Y0329465D01*
X0137533Y0329593D01*
X0137489Y0329722D01*
X0137447Y0329852D01*
X0137410Y0329984D01*
X0137377Y0330116D01*
X0137347Y0330250D01*
X0137321Y0330384D01*
X0137300Y0330519D01*
X0137282Y0330654D01*
X0137268Y0330790D01*
X0137258Y0330927D01*
X0137252Y0331063D01*
X0137250Y0331200D01*
X0090000Y0340500D02*
X0090002Y0340661D01*
X0090008Y0340821D01*
X0090018Y0340982D01*
X0090032Y0341142D01*
X0090050Y0341302D01*
X0090071Y0341461D01*
X0090097Y0341620D01*
X0090127Y0341778D01*
X0090160Y0341935D01*
X0090198Y0342092D01*
X0090239Y0342247D01*
X0090284Y0342401D01*
X0090333Y0342554D01*
X0090386Y0342706D01*
X0090442Y0342857D01*
X0090503Y0343006D01*
X0090566Y0343154D01*
X0090634Y0343300D01*
X0090705Y0343444D01*
X0090779Y0343586D01*
X0090857Y0343727D01*
X0090939Y0343865D01*
X0091024Y0344002D01*
X0091112Y0344136D01*
X0091204Y0344268D01*
X0091299Y0344398D01*
X0091397Y0344526D01*
X0091498Y0344651D01*
X0091602Y0344773D01*
X0091709Y0344893D01*
X0091819Y0345010D01*
X0091932Y0345125D01*
X0092048Y0345236D01*
X0092167Y0345345D01*
X0092288Y0345450D01*
X0092412Y0345553D01*
X0092538Y0345653D01*
X0092666Y0345749D01*
X0092797Y0345842D01*
X0092931Y0345932D01*
X0093066Y0346019D01*
X0093204Y0346102D01*
X0093343Y0346182D01*
X0093485Y0346258D01*
X0093628Y0346331D01*
X0093773Y0346400D01*
X0093920Y0346466D01*
X0094068Y0346528D01*
X0094218Y0346586D01*
X0094369Y0346641D01*
X0094522Y0346692D01*
X0094676Y0346739D01*
X0094831Y0346782D01*
X0094987Y0346821D01*
X0095143Y0346857D01*
X0095301Y0346888D01*
X0095459Y0346916D01*
X0095618Y0346940D01*
X0095778Y0346960D01*
X0095938Y0346976D01*
X0096098Y0346988D01*
X0096259Y0346996D01*
X0096420Y0347000D01*
X0096580Y0347000D01*
X0096741Y0346996D01*
X0096902Y0346988D01*
X0097062Y0346976D01*
X0097222Y0346960D01*
X0097382Y0346940D01*
X0097541Y0346916D01*
X0097699Y0346888D01*
X0097857Y0346857D01*
X0098013Y0346821D01*
X0098169Y0346782D01*
X0098324Y0346739D01*
X0098478Y0346692D01*
X0098631Y0346641D01*
X0098782Y0346586D01*
X0098932Y0346528D01*
X0099080Y0346466D01*
X0099227Y0346400D01*
X0099372Y0346331D01*
X0099515Y0346258D01*
X0099657Y0346182D01*
X0099796Y0346102D01*
X0099934Y0346019D01*
X0100069Y0345932D01*
X0100203Y0345842D01*
X0100334Y0345749D01*
X0100462Y0345653D01*
X0100588Y0345553D01*
X0100712Y0345450D01*
X0100833Y0345345D01*
X0100952Y0345236D01*
X0101068Y0345125D01*
X0101181Y0345010D01*
X0101291Y0344893D01*
X0101398Y0344773D01*
X0101502Y0344651D01*
X0101603Y0344526D01*
X0101701Y0344398D01*
X0101796Y0344268D01*
X0101888Y0344136D01*
X0101976Y0344002D01*
X0102061Y0343865D01*
X0102143Y0343727D01*
X0102221Y0343586D01*
X0102295Y0343444D01*
X0102366Y0343300D01*
X0102434Y0343154D01*
X0102497Y0343006D01*
X0102558Y0342857D01*
X0102614Y0342706D01*
X0102667Y0342554D01*
X0102716Y0342401D01*
X0102761Y0342247D01*
X0102802Y0342092D01*
X0102840Y0341935D01*
X0102873Y0341778D01*
X0102903Y0341620D01*
X0102929Y0341461D01*
X0102950Y0341302D01*
X0102968Y0341142D01*
X0102982Y0340982D01*
X0102992Y0340821D01*
X0102998Y0340661D01*
X0103000Y0340500D01*
X0102998Y0340339D01*
X0102992Y0340179D01*
X0102982Y0340018D01*
X0102968Y0339858D01*
X0102950Y0339698D01*
X0102929Y0339539D01*
X0102903Y0339380D01*
X0102873Y0339222D01*
X0102840Y0339065D01*
X0102802Y0338908D01*
X0102761Y0338753D01*
X0102716Y0338599D01*
X0102667Y0338446D01*
X0102614Y0338294D01*
X0102558Y0338143D01*
X0102497Y0337994D01*
X0102434Y0337846D01*
X0102366Y0337700D01*
X0102295Y0337556D01*
X0102221Y0337414D01*
X0102143Y0337273D01*
X0102061Y0337135D01*
X0101976Y0336998D01*
X0101888Y0336864D01*
X0101796Y0336732D01*
X0101701Y0336602D01*
X0101603Y0336474D01*
X0101502Y0336349D01*
X0101398Y0336227D01*
X0101291Y0336107D01*
X0101181Y0335990D01*
X0101068Y0335875D01*
X0100952Y0335764D01*
X0100833Y0335655D01*
X0100712Y0335550D01*
X0100588Y0335447D01*
X0100462Y0335347D01*
X0100334Y0335251D01*
X0100203Y0335158D01*
X0100069Y0335068D01*
X0099934Y0334981D01*
X0099796Y0334898D01*
X0099657Y0334818D01*
X0099515Y0334742D01*
X0099372Y0334669D01*
X0099227Y0334600D01*
X0099080Y0334534D01*
X0098932Y0334472D01*
X0098782Y0334414D01*
X0098631Y0334359D01*
X0098478Y0334308D01*
X0098324Y0334261D01*
X0098169Y0334218D01*
X0098013Y0334179D01*
X0097857Y0334143D01*
X0097699Y0334112D01*
X0097541Y0334084D01*
X0097382Y0334060D01*
X0097222Y0334040D01*
X0097062Y0334024D01*
X0096902Y0334012D01*
X0096741Y0334004D01*
X0096580Y0334000D01*
X0096420Y0334000D01*
X0096259Y0334004D01*
X0096098Y0334012D01*
X0095938Y0334024D01*
X0095778Y0334040D01*
X0095618Y0334060D01*
X0095459Y0334084D01*
X0095301Y0334112D01*
X0095143Y0334143D01*
X0094987Y0334179D01*
X0094831Y0334218D01*
X0094676Y0334261D01*
X0094522Y0334308D01*
X0094369Y0334359D01*
X0094218Y0334414D01*
X0094068Y0334472D01*
X0093920Y0334534D01*
X0093773Y0334600D01*
X0093628Y0334669D01*
X0093485Y0334742D01*
X0093343Y0334818D01*
X0093204Y0334898D01*
X0093066Y0334981D01*
X0092931Y0335068D01*
X0092797Y0335158D01*
X0092666Y0335251D01*
X0092538Y0335347D01*
X0092412Y0335447D01*
X0092288Y0335550D01*
X0092167Y0335655D01*
X0092048Y0335764D01*
X0091932Y0335875D01*
X0091819Y0335990D01*
X0091709Y0336107D01*
X0091602Y0336227D01*
X0091498Y0336349D01*
X0091397Y0336474D01*
X0091299Y0336602D01*
X0091204Y0336732D01*
X0091112Y0336864D01*
X0091024Y0336998D01*
X0090939Y0337135D01*
X0090857Y0337273D01*
X0090779Y0337414D01*
X0090705Y0337556D01*
X0090634Y0337700D01*
X0090566Y0337846D01*
X0090503Y0337994D01*
X0090442Y0338143D01*
X0090386Y0338294D01*
X0090333Y0338446D01*
X0090284Y0338599D01*
X0090239Y0338753D01*
X0090198Y0338908D01*
X0090160Y0339065D01*
X0090127Y0339222D01*
X0090097Y0339380D01*
X0090071Y0339539D01*
X0090050Y0339698D01*
X0090032Y0339858D01*
X0090018Y0340018D01*
X0090008Y0340179D01*
X0090002Y0340339D01*
X0090000Y0340500D01*
X0015250Y0341500D02*
X0015252Y0341658D01*
X0015258Y0341815D01*
X0015268Y0341973D01*
X0015282Y0342130D01*
X0015300Y0342286D01*
X0015321Y0342443D01*
X0015347Y0342598D01*
X0015377Y0342753D01*
X0015410Y0342907D01*
X0015448Y0343060D01*
X0015489Y0343213D01*
X0015534Y0343364D01*
X0015583Y0343514D01*
X0015636Y0343662D01*
X0015692Y0343810D01*
X0015753Y0343955D01*
X0015816Y0344100D01*
X0015884Y0344242D01*
X0015955Y0344383D01*
X0016029Y0344522D01*
X0016107Y0344659D01*
X0016189Y0344794D01*
X0016273Y0344927D01*
X0016362Y0345058D01*
X0016453Y0345186D01*
X0016548Y0345313D01*
X0016645Y0345436D01*
X0016746Y0345558D01*
X0016850Y0345676D01*
X0016957Y0345792D01*
X0017067Y0345905D01*
X0017179Y0346016D01*
X0017295Y0346123D01*
X0017413Y0346228D01*
X0017533Y0346330D01*
X0017656Y0346428D01*
X0017782Y0346524D01*
X0017910Y0346616D01*
X0018040Y0346705D01*
X0018172Y0346791D01*
X0018307Y0346873D01*
X0018444Y0346952D01*
X0018582Y0347027D01*
X0018722Y0347099D01*
X0018865Y0347167D01*
X0019008Y0347232D01*
X0019154Y0347293D01*
X0019301Y0347350D01*
X0019449Y0347404D01*
X0019599Y0347454D01*
X0019749Y0347500D01*
X0019901Y0347542D01*
X0020054Y0347581D01*
X0020208Y0347615D01*
X0020363Y0347646D01*
X0020518Y0347672D01*
X0020674Y0347695D01*
X0020831Y0347714D01*
X0020988Y0347729D01*
X0021145Y0347740D01*
X0021303Y0347747D01*
X0021461Y0347750D01*
X0021618Y0347749D01*
X0021776Y0347744D01*
X0021933Y0347735D01*
X0022091Y0347722D01*
X0022247Y0347705D01*
X0022404Y0347684D01*
X0022559Y0347660D01*
X0022714Y0347631D01*
X0022869Y0347598D01*
X0023022Y0347562D01*
X0023175Y0347521D01*
X0023326Y0347477D01*
X0023476Y0347429D01*
X0023625Y0347378D01*
X0023773Y0347322D01*
X0023919Y0347263D01*
X0024064Y0347200D01*
X0024207Y0347133D01*
X0024348Y0347063D01*
X0024487Y0346990D01*
X0024625Y0346913D01*
X0024761Y0346832D01*
X0024894Y0346748D01*
X0025025Y0346661D01*
X0025154Y0346570D01*
X0025281Y0346476D01*
X0025406Y0346379D01*
X0025527Y0346279D01*
X0025647Y0346176D01*
X0025763Y0346070D01*
X0025877Y0345961D01*
X0025989Y0345849D01*
X0026097Y0345735D01*
X0026202Y0345617D01*
X0026305Y0345497D01*
X0026404Y0345375D01*
X0026500Y0345250D01*
X0026593Y0345122D01*
X0026683Y0344993D01*
X0026769Y0344861D01*
X0026853Y0344727D01*
X0026932Y0344591D01*
X0027009Y0344453D01*
X0027081Y0344313D01*
X0027150Y0344171D01*
X0027216Y0344028D01*
X0027278Y0343883D01*
X0027336Y0343736D01*
X0027391Y0343588D01*
X0027442Y0343439D01*
X0027489Y0343288D01*
X0027532Y0343137D01*
X0027571Y0342984D01*
X0027607Y0342830D01*
X0027638Y0342676D01*
X0027666Y0342521D01*
X0027690Y0342365D01*
X0027710Y0342208D01*
X0027726Y0342051D01*
X0027738Y0341894D01*
X0027746Y0341737D01*
X0027750Y0341579D01*
X0027750Y0341421D01*
X0027746Y0341263D01*
X0027738Y0341106D01*
X0027726Y0340949D01*
X0027710Y0340792D01*
X0027690Y0340635D01*
X0027666Y0340479D01*
X0027638Y0340324D01*
X0027607Y0340170D01*
X0027571Y0340016D01*
X0027532Y0339863D01*
X0027489Y0339712D01*
X0027442Y0339561D01*
X0027391Y0339412D01*
X0027336Y0339264D01*
X0027278Y0339117D01*
X0027216Y0338972D01*
X0027150Y0338829D01*
X0027081Y0338687D01*
X0027009Y0338547D01*
X0026932Y0338409D01*
X0026853Y0338273D01*
X0026769Y0338139D01*
X0026683Y0338007D01*
X0026593Y0337878D01*
X0026500Y0337750D01*
X0026404Y0337625D01*
X0026305Y0337503D01*
X0026202Y0337383D01*
X0026097Y0337265D01*
X0025989Y0337151D01*
X0025877Y0337039D01*
X0025763Y0336930D01*
X0025647Y0336824D01*
X0025527Y0336721D01*
X0025406Y0336621D01*
X0025281Y0336524D01*
X0025154Y0336430D01*
X0025025Y0336339D01*
X0024894Y0336252D01*
X0024761Y0336168D01*
X0024625Y0336087D01*
X0024487Y0336010D01*
X0024348Y0335937D01*
X0024207Y0335867D01*
X0024064Y0335800D01*
X0023919Y0335737D01*
X0023773Y0335678D01*
X0023625Y0335622D01*
X0023476Y0335571D01*
X0023326Y0335523D01*
X0023175Y0335479D01*
X0023022Y0335438D01*
X0022869Y0335402D01*
X0022714Y0335369D01*
X0022559Y0335340D01*
X0022404Y0335316D01*
X0022247Y0335295D01*
X0022091Y0335278D01*
X0021933Y0335265D01*
X0021776Y0335256D01*
X0021618Y0335251D01*
X0021461Y0335250D01*
X0021303Y0335253D01*
X0021145Y0335260D01*
X0020988Y0335271D01*
X0020831Y0335286D01*
X0020674Y0335305D01*
X0020518Y0335328D01*
X0020363Y0335354D01*
X0020208Y0335385D01*
X0020054Y0335419D01*
X0019901Y0335458D01*
X0019749Y0335500D01*
X0019599Y0335546D01*
X0019449Y0335596D01*
X0019301Y0335650D01*
X0019154Y0335707D01*
X0019008Y0335768D01*
X0018865Y0335833D01*
X0018722Y0335901D01*
X0018582Y0335973D01*
X0018444Y0336048D01*
X0018307Y0336127D01*
X0018172Y0336209D01*
X0018040Y0336295D01*
X0017910Y0336384D01*
X0017782Y0336476D01*
X0017656Y0336572D01*
X0017533Y0336670D01*
X0017413Y0336772D01*
X0017295Y0336877D01*
X0017179Y0336984D01*
X0017067Y0337095D01*
X0016957Y0337208D01*
X0016850Y0337324D01*
X0016746Y0337442D01*
X0016645Y0337564D01*
X0016548Y0337687D01*
X0016453Y0337814D01*
X0016362Y0337942D01*
X0016273Y0338073D01*
X0016189Y0338206D01*
X0016107Y0338341D01*
X0016029Y0338478D01*
X0015955Y0338617D01*
X0015884Y0338758D01*
X0015816Y0338900D01*
X0015753Y0339045D01*
X0015692Y0339190D01*
X0015636Y0339338D01*
X0015583Y0339486D01*
X0015534Y0339636D01*
X0015489Y0339787D01*
X0015448Y0339940D01*
X0015410Y0340093D01*
X0015377Y0340247D01*
X0015347Y0340402D01*
X0015321Y0340557D01*
X0015300Y0340714D01*
X0015282Y0340870D01*
X0015268Y0341027D01*
X0015258Y0341185D01*
X0015252Y0341342D01*
X0015250Y0341500D01*
X0286350Y0331200D02*
X0286352Y0331337D01*
X0286358Y0331473D01*
X0286368Y0331610D01*
X0286382Y0331746D01*
X0286400Y0331881D01*
X0286421Y0332016D01*
X0286447Y0332150D01*
X0286477Y0332284D01*
X0286510Y0332416D01*
X0286547Y0332548D01*
X0286589Y0332678D01*
X0286633Y0332807D01*
X0286682Y0332935D01*
X0286734Y0333062D01*
X0286790Y0333186D01*
X0286850Y0333309D01*
X0286913Y0333431D01*
X0286980Y0333550D01*
X0287050Y0333667D01*
X0287123Y0333783D01*
X0287200Y0333896D01*
X0287280Y0334007D01*
X0287363Y0334115D01*
X0287450Y0334221D01*
X0287539Y0334325D01*
X0287631Y0334425D01*
X0287727Y0334523D01*
X0287825Y0334619D01*
X0287925Y0334711D01*
X0288029Y0334800D01*
X0288135Y0334887D01*
X0288243Y0334970D01*
X0288354Y0335050D01*
X0288467Y0335127D01*
X0288583Y0335200D01*
X0288700Y0335270D01*
X0288819Y0335337D01*
X0288941Y0335400D01*
X0289064Y0335460D01*
X0289188Y0335516D01*
X0289315Y0335568D01*
X0289443Y0335617D01*
X0289572Y0335661D01*
X0289702Y0335703D01*
X0289834Y0335740D01*
X0289966Y0335773D01*
X0290100Y0335803D01*
X0290234Y0335829D01*
X0290369Y0335850D01*
X0290504Y0335868D01*
X0290640Y0335882D01*
X0290777Y0335892D01*
X0290913Y0335898D01*
X0291050Y0335900D01*
X0291187Y0335898D01*
X0291323Y0335892D01*
X0291460Y0335882D01*
X0291596Y0335868D01*
X0291731Y0335850D01*
X0291866Y0335829D01*
X0292000Y0335803D01*
X0292134Y0335773D01*
X0292266Y0335740D01*
X0292398Y0335703D01*
X0292528Y0335661D01*
X0292657Y0335617D01*
X0292785Y0335568D01*
X0292912Y0335516D01*
X0293036Y0335460D01*
X0293159Y0335400D01*
X0293281Y0335337D01*
X0293400Y0335270D01*
X0293517Y0335200D01*
X0293633Y0335127D01*
X0293746Y0335050D01*
X0293857Y0334970D01*
X0293965Y0334887D01*
X0294071Y0334800D01*
X0294175Y0334711D01*
X0294275Y0334619D01*
X0294373Y0334523D01*
X0294469Y0334425D01*
X0294561Y0334325D01*
X0294650Y0334221D01*
X0294737Y0334115D01*
X0294820Y0334007D01*
X0294900Y0333896D01*
X0294977Y0333783D01*
X0295050Y0333667D01*
X0295120Y0333550D01*
X0295187Y0333431D01*
X0295250Y0333309D01*
X0295310Y0333186D01*
X0295366Y0333062D01*
X0295418Y0332935D01*
X0295467Y0332807D01*
X0295511Y0332678D01*
X0295553Y0332548D01*
X0295590Y0332416D01*
X0295623Y0332284D01*
X0295653Y0332150D01*
X0295679Y0332016D01*
X0295700Y0331881D01*
X0295718Y0331746D01*
X0295732Y0331610D01*
X0295742Y0331473D01*
X0295748Y0331337D01*
X0295750Y0331200D01*
X0295748Y0331063D01*
X0295742Y0330927D01*
X0295732Y0330790D01*
X0295718Y0330654D01*
X0295700Y0330519D01*
X0295679Y0330384D01*
X0295653Y0330250D01*
X0295623Y0330116D01*
X0295590Y0329984D01*
X0295553Y0329852D01*
X0295511Y0329722D01*
X0295467Y0329593D01*
X0295418Y0329465D01*
X0295366Y0329338D01*
X0295310Y0329214D01*
X0295250Y0329091D01*
X0295187Y0328969D01*
X0295120Y0328850D01*
X0295050Y0328733D01*
X0294977Y0328617D01*
X0294900Y0328504D01*
X0294820Y0328393D01*
X0294737Y0328285D01*
X0294650Y0328179D01*
X0294561Y0328075D01*
X0294469Y0327975D01*
X0294373Y0327877D01*
X0294275Y0327781D01*
X0294175Y0327689D01*
X0294071Y0327600D01*
X0293965Y0327513D01*
X0293857Y0327430D01*
X0293746Y0327350D01*
X0293633Y0327273D01*
X0293517Y0327200D01*
X0293400Y0327130D01*
X0293281Y0327063D01*
X0293159Y0327000D01*
X0293036Y0326940D01*
X0292912Y0326884D01*
X0292785Y0326832D01*
X0292657Y0326783D01*
X0292528Y0326739D01*
X0292398Y0326697D01*
X0292266Y0326660D01*
X0292134Y0326627D01*
X0292000Y0326597D01*
X0291866Y0326571D01*
X0291731Y0326550D01*
X0291596Y0326532D01*
X0291460Y0326518D01*
X0291323Y0326508D01*
X0291187Y0326502D01*
X0291050Y0326500D01*
X0290913Y0326502D01*
X0290777Y0326508D01*
X0290640Y0326518D01*
X0290504Y0326532D01*
X0290369Y0326550D01*
X0290234Y0326571D01*
X0290100Y0326597D01*
X0289966Y0326627D01*
X0289834Y0326660D01*
X0289702Y0326697D01*
X0289572Y0326739D01*
X0289443Y0326783D01*
X0289315Y0326832D01*
X0289188Y0326884D01*
X0289064Y0326940D01*
X0288941Y0327000D01*
X0288819Y0327063D01*
X0288700Y0327130D01*
X0288583Y0327200D01*
X0288467Y0327273D01*
X0288354Y0327350D01*
X0288243Y0327430D01*
X0288135Y0327513D01*
X0288029Y0327600D01*
X0287925Y0327689D01*
X0287825Y0327781D01*
X0287727Y0327877D01*
X0287631Y0327975D01*
X0287539Y0328075D01*
X0287450Y0328179D01*
X0287363Y0328285D01*
X0287280Y0328393D01*
X0287200Y0328504D01*
X0287123Y0328617D01*
X0287050Y0328733D01*
X0286980Y0328850D01*
X0286913Y0328969D01*
X0286850Y0329091D01*
X0286790Y0329214D01*
X0286734Y0329338D01*
X0286682Y0329465D01*
X0286633Y0329593D01*
X0286589Y0329722D01*
X0286547Y0329852D01*
X0286510Y0329984D01*
X0286477Y0330116D01*
X0286447Y0330250D01*
X0286421Y0330384D01*
X0286400Y0330519D01*
X0286382Y0330654D01*
X0286368Y0330790D01*
X0286358Y0330927D01*
X0286352Y0331063D01*
X0286350Y0331200D01*
X0317250Y0331200D02*
X0317252Y0331337D01*
X0317258Y0331473D01*
X0317268Y0331610D01*
X0317282Y0331746D01*
X0317300Y0331881D01*
X0317321Y0332016D01*
X0317347Y0332150D01*
X0317377Y0332284D01*
X0317410Y0332416D01*
X0317447Y0332548D01*
X0317489Y0332678D01*
X0317533Y0332807D01*
X0317582Y0332935D01*
X0317634Y0333062D01*
X0317690Y0333186D01*
X0317750Y0333309D01*
X0317813Y0333431D01*
X0317880Y0333550D01*
X0317950Y0333667D01*
X0318023Y0333783D01*
X0318100Y0333896D01*
X0318180Y0334007D01*
X0318263Y0334115D01*
X0318350Y0334221D01*
X0318439Y0334325D01*
X0318531Y0334425D01*
X0318627Y0334523D01*
X0318725Y0334619D01*
X0318825Y0334711D01*
X0318929Y0334800D01*
X0319035Y0334887D01*
X0319143Y0334970D01*
X0319254Y0335050D01*
X0319367Y0335127D01*
X0319483Y0335200D01*
X0319600Y0335270D01*
X0319719Y0335337D01*
X0319841Y0335400D01*
X0319964Y0335460D01*
X0320088Y0335516D01*
X0320215Y0335568D01*
X0320343Y0335617D01*
X0320472Y0335661D01*
X0320602Y0335703D01*
X0320734Y0335740D01*
X0320866Y0335773D01*
X0321000Y0335803D01*
X0321134Y0335829D01*
X0321269Y0335850D01*
X0321404Y0335868D01*
X0321540Y0335882D01*
X0321677Y0335892D01*
X0321813Y0335898D01*
X0321950Y0335900D01*
X0322087Y0335898D01*
X0322223Y0335892D01*
X0322360Y0335882D01*
X0322496Y0335868D01*
X0322631Y0335850D01*
X0322766Y0335829D01*
X0322900Y0335803D01*
X0323034Y0335773D01*
X0323166Y0335740D01*
X0323298Y0335703D01*
X0323428Y0335661D01*
X0323557Y0335617D01*
X0323685Y0335568D01*
X0323812Y0335516D01*
X0323936Y0335460D01*
X0324059Y0335400D01*
X0324181Y0335337D01*
X0324300Y0335270D01*
X0324417Y0335200D01*
X0324533Y0335127D01*
X0324646Y0335050D01*
X0324757Y0334970D01*
X0324865Y0334887D01*
X0324971Y0334800D01*
X0325075Y0334711D01*
X0325175Y0334619D01*
X0325273Y0334523D01*
X0325369Y0334425D01*
X0325461Y0334325D01*
X0325550Y0334221D01*
X0325637Y0334115D01*
X0325720Y0334007D01*
X0325800Y0333896D01*
X0325877Y0333783D01*
X0325950Y0333667D01*
X0326020Y0333550D01*
X0326087Y0333431D01*
X0326150Y0333309D01*
X0326210Y0333186D01*
X0326266Y0333062D01*
X0326318Y0332935D01*
X0326367Y0332807D01*
X0326411Y0332678D01*
X0326453Y0332548D01*
X0326490Y0332416D01*
X0326523Y0332284D01*
X0326553Y0332150D01*
X0326579Y0332016D01*
X0326600Y0331881D01*
X0326618Y0331746D01*
X0326632Y0331610D01*
X0326642Y0331473D01*
X0326648Y0331337D01*
X0326650Y0331200D01*
X0326648Y0331063D01*
X0326642Y0330927D01*
X0326632Y0330790D01*
X0326618Y0330654D01*
X0326600Y0330519D01*
X0326579Y0330384D01*
X0326553Y0330250D01*
X0326523Y0330116D01*
X0326490Y0329984D01*
X0326453Y0329852D01*
X0326411Y0329722D01*
X0326367Y0329593D01*
X0326318Y0329465D01*
X0326266Y0329338D01*
X0326210Y0329214D01*
X0326150Y0329091D01*
X0326087Y0328969D01*
X0326020Y0328850D01*
X0325950Y0328733D01*
X0325877Y0328617D01*
X0325800Y0328504D01*
X0325720Y0328393D01*
X0325637Y0328285D01*
X0325550Y0328179D01*
X0325461Y0328075D01*
X0325369Y0327975D01*
X0325273Y0327877D01*
X0325175Y0327781D01*
X0325075Y0327689D01*
X0324971Y0327600D01*
X0324865Y0327513D01*
X0324757Y0327430D01*
X0324646Y0327350D01*
X0324533Y0327273D01*
X0324417Y0327200D01*
X0324300Y0327130D01*
X0324181Y0327063D01*
X0324059Y0327000D01*
X0323936Y0326940D01*
X0323812Y0326884D01*
X0323685Y0326832D01*
X0323557Y0326783D01*
X0323428Y0326739D01*
X0323298Y0326697D01*
X0323166Y0326660D01*
X0323034Y0326627D01*
X0322900Y0326597D01*
X0322766Y0326571D01*
X0322631Y0326550D01*
X0322496Y0326532D01*
X0322360Y0326518D01*
X0322223Y0326508D01*
X0322087Y0326502D01*
X0321950Y0326500D01*
X0321813Y0326502D01*
X0321677Y0326508D01*
X0321540Y0326518D01*
X0321404Y0326532D01*
X0321269Y0326550D01*
X0321134Y0326571D01*
X0321000Y0326597D01*
X0320866Y0326627D01*
X0320734Y0326660D01*
X0320602Y0326697D01*
X0320472Y0326739D01*
X0320343Y0326783D01*
X0320215Y0326832D01*
X0320088Y0326884D01*
X0319964Y0326940D01*
X0319841Y0327000D01*
X0319719Y0327063D01*
X0319600Y0327130D01*
X0319483Y0327200D01*
X0319367Y0327273D01*
X0319254Y0327350D01*
X0319143Y0327430D01*
X0319035Y0327513D01*
X0318929Y0327600D01*
X0318825Y0327689D01*
X0318725Y0327781D01*
X0318627Y0327877D01*
X0318531Y0327975D01*
X0318439Y0328075D01*
X0318350Y0328179D01*
X0318263Y0328285D01*
X0318180Y0328393D01*
X0318100Y0328504D01*
X0318023Y0328617D01*
X0317950Y0328733D01*
X0317880Y0328850D01*
X0317813Y0328969D01*
X0317750Y0329091D01*
X0317690Y0329214D01*
X0317634Y0329338D01*
X0317582Y0329465D01*
X0317533Y0329593D01*
X0317489Y0329722D01*
X0317447Y0329852D01*
X0317410Y0329984D01*
X0317377Y0330116D01*
X0317347Y0330250D01*
X0317321Y0330384D01*
X0317300Y0330519D01*
X0317282Y0330654D01*
X0317268Y0330790D01*
X0317258Y0330927D01*
X0317252Y0331063D01*
X0317250Y0331200D01*
X0376350Y0331200D02*
X0376352Y0331337D01*
X0376358Y0331473D01*
X0376368Y0331610D01*
X0376382Y0331746D01*
X0376400Y0331881D01*
X0376421Y0332016D01*
X0376447Y0332150D01*
X0376477Y0332284D01*
X0376510Y0332416D01*
X0376547Y0332548D01*
X0376589Y0332678D01*
X0376633Y0332807D01*
X0376682Y0332935D01*
X0376734Y0333062D01*
X0376790Y0333186D01*
X0376850Y0333309D01*
X0376913Y0333431D01*
X0376980Y0333550D01*
X0377050Y0333667D01*
X0377123Y0333783D01*
X0377200Y0333896D01*
X0377280Y0334007D01*
X0377363Y0334115D01*
X0377450Y0334221D01*
X0377539Y0334325D01*
X0377631Y0334425D01*
X0377727Y0334523D01*
X0377825Y0334619D01*
X0377925Y0334711D01*
X0378029Y0334800D01*
X0378135Y0334887D01*
X0378243Y0334970D01*
X0378354Y0335050D01*
X0378467Y0335127D01*
X0378583Y0335200D01*
X0378700Y0335270D01*
X0378819Y0335337D01*
X0378941Y0335400D01*
X0379064Y0335460D01*
X0379188Y0335516D01*
X0379315Y0335568D01*
X0379443Y0335617D01*
X0379572Y0335661D01*
X0379702Y0335703D01*
X0379834Y0335740D01*
X0379966Y0335773D01*
X0380100Y0335803D01*
X0380234Y0335829D01*
X0380369Y0335850D01*
X0380504Y0335868D01*
X0380640Y0335882D01*
X0380777Y0335892D01*
X0380913Y0335898D01*
X0381050Y0335900D01*
X0381187Y0335898D01*
X0381323Y0335892D01*
X0381460Y0335882D01*
X0381596Y0335868D01*
X0381731Y0335850D01*
X0381866Y0335829D01*
X0382000Y0335803D01*
X0382134Y0335773D01*
X0382266Y0335740D01*
X0382398Y0335703D01*
X0382528Y0335661D01*
X0382657Y0335617D01*
X0382785Y0335568D01*
X0382912Y0335516D01*
X0383036Y0335460D01*
X0383159Y0335400D01*
X0383281Y0335337D01*
X0383400Y0335270D01*
X0383517Y0335200D01*
X0383633Y0335127D01*
X0383746Y0335050D01*
X0383857Y0334970D01*
X0383965Y0334887D01*
X0384071Y0334800D01*
X0384175Y0334711D01*
X0384275Y0334619D01*
X0384373Y0334523D01*
X0384469Y0334425D01*
X0384561Y0334325D01*
X0384650Y0334221D01*
X0384737Y0334115D01*
X0384820Y0334007D01*
X0384900Y0333896D01*
X0384977Y0333783D01*
X0385050Y0333667D01*
X0385120Y0333550D01*
X0385187Y0333431D01*
X0385250Y0333309D01*
X0385310Y0333186D01*
X0385366Y0333062D01*
X0385418Y0332935D01*
X0385467Y0332807D01*
X0385511Y0332678D01*
X0385553Y0332548D01*
X0385590Y0332416D01*
X0385623Y0332284D01*
X0385653Y0332150D01*
X0385679Y0332016D01*
X0385700Y0331881D01*
X0385718Y0331746D01*
X0385732Y0331610D01*
X0385742Y0331473D01*
X0385748Y0331337D01*
X0385750Y0331200D01*
X0385748Y0331063D01*
X0385742Y0330927D01*
X0385732Y0330790D01*
X0385718Y0330654D01*
X0385700Y0330519D01*
X0385679Y0330384D01*
X0385653Y0330250D01*
X0385623Y0330116D01*
X0385590Y0329984D01*
X0385553Y0329852D01*
X0385511Y0329722D01*
X0385467Y0329593D01*
X0385418Y0329465D01*
X0385366Y0329338D01*
X0385310Y0329214D01*
X0385250Y0329091D01*
X0385187Y0328969D01*
X0385120Y0328850D01*
X0385050Y0328733D01*
X0384977Y0328617D01*
X0384900Y0328504D01*
X0384820Y0328393D01*
X0384737Y0328285D01*
X0384650Y0328179D01*
X0384561Y0328075D01*
X0384469Y0327975D01*
X0384373Y0327877D01*
X0384275Y0327781D01*
X0384175Y0327689D01*
X0384071Y0327600D01*
X0383965Y0327513D01*
X0383857Y0327430D01*
X0383746Y0327350D01*
X0383633Y0327273D01*
X0383517Y0327200D01*
X0383400Y0327130D01*
X0383281Y0327063D01*
X0383159Y0327000D01*
X0383036Y0326940D01*
X0382912Y0326884D01*
X0382785Y0326832D01*
X0382657Y0326783D01*
X0382528Y0326739D01*
X0382398Y0326697D01*
X0382266Y0326660D01*
X0382134Y0326627D01*
X0382000Y0326597D01*
X0381866Y0326571D01*
X0381731Y0326550D01*
X0381596Y0326532D01*
X0381460Y0326518D01*
X0381323Y0326508D01*
X0381187Y0326502D01*
X0381050Y0326500D01*
X0380913Y0326502D01*
X0380777Y0326508D01*
X0380640Y0326518D01*
X0380504Y0326532D01*
X0380369Y0326550D01*
X0380234Y0326571D01*
X0380100Y0326597D01*
X0379966Y0326627D01*
X0379834Y0326660D01*
X0379702Y0326697D01*
X0379572Y0326739D01*
X0379443Y0326783D01*
X0379315Y0326832D01*
X0379188Y0326884D01*
X0379064Y0326940D01*
X0378941Y0327000D01*
X0378819Y0327063D01*
X0378700Y0327130D01*
X0378583Y0327200D01*
X0378467Y0327273D01*
X0378354Y0327350D01*
X0378243Y0327430D01*
X0378135Y0327513D01*
X0378029Y0327600D01*
X0377925Y0327689D01*
X0377825Y0327781D01*
X0377727Y0327877D01*
X0377631Y0327975D01*
X0377539Y0328075D01*
X0377450Y0328179D01*
X0377363Y0328285D01*
X0377280Y0328393D01*
X0377200Y0328504D01*
X0377123Y0328617D01*
X0377050Y0328733D01*
X0376980Y0328850D01*
X0376913Y0328969D01*
X0376850Y0329091D01*
X0376790Y0329214D01*
X0376734Y0329338D01*
X0376682Y0329465D01*
X0376633Y0329593D01*
X0376589Y0329722D01*
X0376547Y0329852D01*
X0376510Y0329984D01*
X0376477Y0330116D01*
X0376447Y0330250D01*
X0376421Y0330384D01*
X0376400Y0330519D01*
X0376382Y0330654D01*
X0376368Y0330790D01*
X0376358Y0330927D01*
X0376352Y0331063D01*
X0376350Y0331200D01*
X0407250Y0331200D02*
X0407252Y0331337D01*
X0407258Y0331473D01*
X0407268Y0331610D01*
X0407282Y0331746D01*
X0407300Y0331881D01*
X0407321Y0332016D01*
X0407347Y0332150D01*
X0407377Y0332284D01*
X0407410Y0332416D01*
X0407447Y0332548D01*
X0407489Y0332678D01*
X0407533Y0332807D01*
X0407582Y0332935D01*
X0407634Y0333062D01*
X0407690Y0333186D01*
X0407750Y0333309D01*
X0407813Y0333431D01*
X0407880Y0333550D01*
X0407950Y0333667D01*
X0408023Y0333783D01*
X0408100Y0333896D01*
X0408180Y0334007D01*
X0408263Y0334115D01*
X0408350Y0334221D01*
X0408439Y0334325D01*
X0408531Y0334425D01*
X0408627Y0334523D01*
X0408725Y0334619D01*
X0408825Y0334711D01*
X0408929Y0334800D01*
X0409035Y0334887D01*
X0409143Y0334970D01*
X0409254Y0335050D01*
X0409367Y0335127D01*
X0409483Y0335200D01*
X0409600Y0335270D01*
X0409719Y0335337D01*
X0409841Y0335400D01*
X0409964Y0335460D01*
X0410088Y0335516D01*
X0410215Y0335568D01*
X0410343Y0335617D01*
X0410472Y0335661D01*
X0410602Y0335703D01*
X0410734Y0335740D01*
X0410866Y0335773D01*
X0411000Y0335803D01*
X0411134Y0335829D01*
X0411269Y0335850D01*
X0411404Y0335868D01*
X0411540Y0335882D01*
X0411677Y0335892D01*
X0411813Y0335898D01*
X0411950Y0335900D01*
X0412087Y0335898D01*
X0412223Y0335892D01*
X0412360Y0335882D01*
X0412496Y0335868D01*
X0412631Y0335850D01*
X0412766Y0335829D01*
X0412900Y0335803D01*
X0413034Y0335773D01*
X0413166Y0335740D01*
X0413298Y0335703D01*
X0413428Y0335661D01*
X0413557Y0335617D01*
X0413685Y0335568D01*
X0413812Y0335516D01*
X0413936Y0335460D01*
X0414059Y0335400D01*
X0414181Y0335337D01*
X0414300Y0335270D01*
X0414417Y0335200D01*
X0414533Y0335127D01*
X0414646Y0335050D01*
X0414757Y0334970D01*
X0414865Y0334887D01*
X0414971Y0334800D01*
X0415075Y0334711D01*
X0415175Y0334619D01*
X0415273Y0334523D01*
X0415369Y0334425D01*
X0415461Y0334325D01*
X0415550Y0334221D01*
X0415637Y0334115D01*
X0415720Y0334007D01*
X0415800Y0333896D01*
X0415877Y0333783D01*
X0415950Y0333667D01*
X0416020Y0333550D01*
X0416087Y0333431D01*
X0416150Y0333309D01*
X0416210Y0333186D01*
X0416266Y0333062D01*
X0416318Y0332935D01*
X0416367Y0332807D01*
X0416411Y0332678D01*
X0416453Y0332548D01*
X0416490Y0332416D01*
X0416523Y0332284D01*
X0416553Y0332150D01*
X0416579Y0332016D01*
X0416600Y0331881D01*
X0416618Y0331746D01*
X0416632Y0331610D01*
X0416642Y0331473D01*
X0416648Y0331337D01*
X0416650Y0331200D01*
X0416648Y0331063D01*
X0416642Y0330927D01*
X0416632Y0330790D01*
X0416618Y0330654D01*
X0416600Y0330519D01*
X0416579Y0330384D01*
X0416553Y0330250D01*
X0416523Y0330116D01*
X0416490Y0329984D01*
X0416453Y0329852D01*
X0416411Y0329722D01*
X0416367Y0329593D01*
X0416318Y0329465D01*
X0416266Y0329338D01*
X0416210Y0329214D01*
X0416150Y0329091D01*
X0416087Y0328969D01*
X0416020Y0328850D01*
X0415950Y0328733D01*
X0415877Y0328617D01*
X0415800Y0328504D01*
X0415720Y0328393D01*
X0415637Y0328285D01*
X0415550Y0328179D01*
X0415461Y0328075D01*
X0415369Y0327975D01*
X0415273Y0327877D01*
X0415175Y0327781D01*
X0415075Y0327689D01*
X0414971Y0327600D01*
X0414865Y0327513D01*
X0414757Y0327430D01*
X0414646Y0327350D01*
X0414533Y0327273D01*
X0414417Y0327200D01*
X0414300Y0327130D01*
X0414181Y0327063D01*
X0414059Y0327000D01*
X0413936Y0326940D01*
X0413812Y0326884D01*
X0413685Y0326832D01*
X0413557Y0326783D01*
X0413428Y0326739D01*
X0413298Y0326697D01*
X0413166Y0326660D01*
X0413034Y0326627D01*
X0412900Y0326597D01*
X0412766Y0326571D01*
X0412631Y0326550D01*
X0412496Y0326532D01*
X0412360Y0326518D01*
X0412223Y0326508D01*
X0412087Y0326502D01*
X0411950Y0326500D01*
X0411813Y0326502D01*
X0411677Y0326508D01*
X0411540Y0326518D01*
X0411404Y0326532D01*
X0411269Y0326550D01*
X0411134Y0326571D01*
X0411000Y0326597D01*
X0410866Y0326627D01*
X0410734Y0326660D01*
X0410602Y0326697D01*
X0410472Y0326739D01*
X0410343Y0326783D01*
X0410215Y0326832D01*
X0410088Y0326884D01*
X0409964Y0326940D01*
X0409841Y0327000D01*
X0409719Y0327063D01*
X0409600Y0327130D01*
X0409483Y0327200D01*
X0409367Y0327273D01*
X0409254Y0327350D01*
X0409143Y0327430D01*
X0409035Y0327513D01*
X0408929Y0327600D01*
X0408825Y0327689D01*
X0408725Y0327781D01*
X0408627Y0327877D01*
X0408531Y0327975D01*
X0408439Y0328075D01*
X0408350Y0328179D01*
X0408263Y0328285D01*
X0408180Y0328393D01*
X0408100Y0328504D01*
X0408023Y0328617D01*
X0407950Y0328733D01*
X0407880Y0328850D01*
X0407813Y0328969D01*
X0407750Y0329091D01*
X0407690Y0329214D01*
X0407634Y0329338D01*
X0407582Y0329465D01*
X0407533Y0329593D01*
X0407489Y0329722D01*
X0407447Y0329852D01*
X0407410Y0329984D01*
X0407377Y0330116D01*
X0407347Y0330250D01*
X0407321Y0330384D01*
X0407300Y0330519D01*
X0407282Y0330654D01*
X0407268Y0330790D01*
X0407258Y0330927D01*
X0407252Y0331063D01*
X0407250Y0331200D01*
X0466350Y0331200D02*
X0466352Y0331337D01*
X0466358Y0331473D01*
X0466368Y0331610D01*
X0466382Y0331746D01*
X0466400Y0331881D01*
X0466421Y0332016D01*
X0466447Y0332150D01*
X0466477Y0332284D01*
X0466510Y0332416D01*
X0466547Y0332548D01*
X0466589Y0332678D01*
X0466633Y0332807D01*
X0466682Y0332935D01*
X0466734Y0333062D01*
X0466790Y0333186D01*
X0466850Y0333309D01*
X0466913Y0333431D01*
X0466980Y0333550D01*
X0467050Y0333667D01*
X0467123Y0333783D01*
X0467200Y0333896D01*
X0467280Y0334007D01*
X0467363Y0334115D01*
X0467450Y0334221D01*
X0467539Y0334325D01*
X0467631Y0334425D01*
X0467727Y0334523D01*
X0467825Y0334619D01*
X0467925Y0334711D01*
X0468029Y0334800D01*
X0468135Y0334887D01*
X0468243Y0334970D01*
X0468354Y0335050D01*
X0468467Y0335127D01*
X0468583Y0335200D01*
X0468700Y0335270D01*
X0468819Y0335337D01*
X0468941Y0335400D01*
X0469064Y0335460D01*
X0469188Y0335516D01*
X0469315Y0335568D01*
X0469443Y0335617D01*
X0469572Y0335661D01*
X0469702Y0335703D01*
X0469834Y0335740D01*
X0469966Y0335773D01*
X0470100Y0335803D01*
X0470234Y0335829D01*
X0470369Y0335850D01*
X0470504Y0335868D01*
X0470640Y0335882D01*
X0470777Y0335892D01*
X0470913Y0335898D01*
X0471050Y0335900D01*
X0471187Y0335898D01*
X0471323Y0335892D01*
X0471460Y0335882D01*
X0471596Y0335868D01*
X0471731Y0335850D01*
X0471866Y0335829D01*
X0472000Y0335803D01*
X0472134Y0335773D01*
X0472266Y0335740D01*
X0472398Y0335703D01*
X0472528Y0335661D01*
X0472657Y0335617D01*
X0472785Y0335568D01*
X0472912Y0335516D01*
X0473036Y0335460D01*
X0473159Y0335400D01*
X0473281Y0335337D01*
X0473400Y0335270D01*
X0473517Y0335200D01*
X0473633Y0335127D01*
X0473746Y0335050D01*
X0473857Y0334970D01*
X0473965Y0334887D01*
X0474071Y0334800D01*
X0474175Y0334711D01*
X0474275Y0334619D01*
X0474373Y0334523D01*
X0474469Y0334425D01*
X0474561Y0334325D01*
X0474650Y0334221D01*
X0474737Y0334115D01*
X0474820Y0334007D01*
X0474900Y0333896D01*
X0474977Y0333783D01*
X0475050Y0333667D01*
X0475120Y0333550D01*
X0475187Y0333431D01*
X0475250Y0333309D01*
X0475310Y0333186D01*
X0475366Y0333062D01*
X0475418Y0332935D01*
X0475467Y0332807D01*
X0475511Y0332678D01*
X0475553Y0332548D01*
X0475590Y0332416D01*
X0475623Y0332284D01*
X0475653Y0332150D01*
X0475679Y0332016D01*
X0475700Y0331881D01*
X0475718Y0331746D01*
X0475732Y0331610D01*
X0475742Y0331473D01*
X0475748Y0331337D01*
X0475750Y0331200D01*
X0475748Y0331063D01*
X0475742Y0330927D01*
X0475732Y0330790D01*
X0475718Y0330654D01*
X0475700Y0330519D01*
X0475679Y0330384D01*
X0475653Y0330250D01*
X0475623Y0330116D01*
X0475590Y0329984D01*
X0475553Y0329852D01*
X0475511Y0329722D01*
X0475467Y0329593D01*
X0475418Y0329465D01*
X0475366Y0329338D01*
X0475310Y0329214D01*
X0475250Y0329091D01*
X0475187Y0328969D01*
X0475120Y0328850D01*
X0475050Y0328733D01*
X0474977Y0328617D01*
X0474900Y0328504D01*
X0474820Y0328393D01*
X0474737Y0328285D01*
X0474650Y0328179D01*
X0474561Y0328075D01*
X0474469Y0327975D01*
X0474373Y0327877D01*
X0474275Y0327781D01*
X0474175Y0327689D01*
X0474071Y0327600D01*
X0473965Y0327513D01*
X0473857Y0327430D01*
X0473746Y0327350D01*
X0473633Y0327273D01*
X0473517Y0327200D01*
X0473400Y0327130D01*
X0473281Y0327063D01*
X0473159Y0327000D01*
X0473036Y0326940D01*
X0472912Y0326884D01*
X0472785Y0326832D01*
X0472657Y0326783D01*
X0472528Y0326739D01*
X0472398Y0326697D01*
X0472266Y0326660D01*
X0472134Y0326627D01*
X0472000Y0326597D01*
X0471866Y0326571D01*
X0471731Y0326550D01*
X0471596Y0326532D01*
X0471460Y0326518D01*
X0471323Y0326508D01*
X0471187Y0326502D01*
X0471050Y0326500D01*
X0470913Y0326502D01*
X0470777Y0326508D01*
X0470640Y0326518D01*
X0470504Y0326532D01*
X0470369Y0326550D01*
X0470234Y0326571D01*
X0470100Y0326597D01*
X0469966Y0326627D01*
X0469834Y0326660D01*
X0469702Y0326697D01*
X0469572Y0326739D01*
X0469443Y0326783D01*
X0469315Y0326832D01*
X0469188Y0326884D01*
X0469064Y0326940D01*
X0468941Y0327000D01*
X0468819Y0327063D01*
X0468700Y0327130D01*
X0468583Y0327200D01*
X0468467Y0327273D01*
X0468354Y0327350D01*
X0468243Y0327430D01*
X0468135Y0327513D01*
X0468029Y0327600D01*
X0467925Y0327689D01*
X0467825Y0327781D01*
X0467727Y0327877D01*
X0467631Y0327975D01*
X0467539Y0328075D01*
X0467450Y0328179D01*
X0467363Y0328285D01*
X0467280Y0328393D01*
X0467200Y0328504D01*
X0467123Y0328617D01*
X0467050Y0328733D01*
X0466980Y0328850D01*
X0466913Y0328969D01*
X0466850Y0329091D01*
X0466790Y0329214D01*
X0466734Y0329338D01*
X0466682Y0329465D01*
X0466633Y0329593D01*
X0466589Y0329722D01*
X0466547Y0329852D01*
X0466510Y0329984D01*
X0466477Y0330116D01*
X0466447Y0330250D01*
X0466421Y0330384D01*
X0466400Y0330519D01*
X0466382Y0330654D01*
X0466368Y0330790D01*
X0466358Y0330927D01*
X0466352Y0331063D01*
X0466350Y0331200D01*
X0510250Y0341500D02*
X0510252Y0341658D01*
X0510258Y0341815D01*
X0510268Y0341973D01*
X0510282Y0342130D01*
X0510300Y0342286D01*
X0510321Y0342443D01*
X0510347Y0342598D01*
X0510377Y0342753D01*
X0510410Y0342907D01*
X0510448Y0343060D01*
X0510489Y0343213D01*
X0510534Y0343364D01*
X0510583Y0343514D01*
X0510636Y0343662D01*
X0510692Y0343810D01*
X0510753Y0343955D01*
X0510816Y0344100D01*
X0510884Y0344242D01*
X0510955Y0344383D01*
X0511029Y0344522D01*
X0511107Y0344659D01*
X0511189Y0344794D01*
X0511273Y0344927D01*
X0511362Y0345058D01*
X0511453Y0345186D01*
X0511548Y0345313D01*
X0511645Y0345436D01*
X0511746Y0345558D01*
X0511850Y0345676D01*
X0511957Y0345792D01*
X0512067Y0345905D01*
X0512179Y0346016D01*
X0512295Y0346123D01*
X0512413Y0346228D01*
X0512533Y0346330D01*
X0512656Y0346428D01*
X0512782Y0346524D01*
X0512910Y0346616D01*
X0513040Y0346705D01*
X0513172Y0346791D01*
X0513307Y0346873D01*
X0513444Y0346952D01*
X0513582Y0347027D01*
X0513722Y0347099D01*
X0513865Y0347167D01*
X0514008Y0347232D01*
X0514154Y0347293D01*
X0514301Y0347350D01*
X0514449Y0347404D01*
X0514599Y0347454D01*
X0514749Y0347500D01*
X0514901Y0347542D01*
X0515054Y0347581D01*
X0515208Y0347615D01*
X0515363Y0347646D01*
X0515518Y0347672D01*
X0515674Y0347695D01*
X0515831Y0347714D01*
X0515988Y0347729D01*
X0516145Y0347740D01*
X0516303Y0347747D01*
X0516461Y0347750D01*
X0516618Y0347749D01*
X0516776Y0347744D01*
X0516933Y0347735D01*
X0517091Y0347722D01*
X0517247Y0347705D01*
X0517404Y0347684D01*
X0517559Y0347660D01*
X0517714Y0347631D01*
X0517869Y0347598D01*
X0518022Y0347562D01*
X0518175Y0347521D01*
X0518326Y0347477D01*
X0518476Y0347429D01*
X0518625Y0347378D01*
X0518773Y0347322D01*
X0518919Y0347263D01*
X0519064Y0347200D01*
X0519207Y0347133D01*
X0519348Y0347063D01*
X0519487Y0346990D01*
X0519625Y0346913D01*
X0519761Y0346832D01*
X0519894Y0346748D01*
X0520025Y0346661D01*
X0520154Y0346570D01*
X0520281Y0346476D01*
X0520406Y0346379D01*
X0520527Y0346279D01*
X0520647Y0346176D01*
X0520763Y0346070D01*
X0520877Y0345961D01*
X0520989Y0345849D01*
X0521097Y0345735D01*
X0521202Y0345617D01*
X0521305Y0345497D01*
X0521404Y0345375D01*
X0521500Y0345250D01*
X0521593Y0345122D01*
X0521683Y0344993D01*
X0521769Y0344861D01*
X0521853Y0344727D01*
X0521932Y0344591D01*
X0522009Y0344453D01*
X0522081Y0344313D01*
X0522150Y0344171D01*
X0522216Y0344028D01*
X0522278Y0343883D01*
X0522336Y0343736D01*
X0522391Y0343588D01*
X0522442Y0343439D01*
X0522489Y0343288D01*
X0522532Y0343137D01*
X0522571Y0342984D01*
X0522607Y0342830D01*
X0522638Y0342676D01*
X0522666Y0342521D01*
X0522690Y0342365D01*
X0522710Y0342208D01*
X0522726Y0342051D01*
X0522738Y0341894D01*
X0522746Y0341737D01*
X0522750Y0341579D01*
X0522750Y0341421D01*
X0522746Y0341263D01*
X0522738Y0341106D01*
X0522726Y0340949D01*
X0522710Y0340792D01*
X0522690Y0340635D01*
X0522666Y0340479D01*
X0522638Y0340324D01*
X0522607Y0340170D01*
X0522571Y0340016D01*
X0522532Y0339863D01*
X0522489Y0339712D01*
X0522442Y0339561D01*
X0522391Y0339412D01*
X0522336Y0339264D01*
X0522278Y0339117D01*
X0522216Y0338972D01*
X0522150Y0338829D01*
X0522081Y0338687D01*
X0522009Y0338547D01*
X0521932Y0338409D01*
X0521853Y0338273D01*
X0521769Y0338139D01*
X0521683Y0338007D01*
X0521593Y0337878D01*
X0521500Y0337750D01*
X0521404Y0337625D01*
X0521305Y0337503D01*
X0521202Y0337383D01*
X0521097Y0337265D01*
X0520989Y0337151D01*
X0520877Y0337039D01*
X0520763Y0336930D01*
X0520647Y0336824D01*
X0520527Y0336721D01*
X0520406Y0336621D01*
X0520281Y0336524D01*
X0520154Y0336430D01*
X0520025Y0336339D01*
X0519894Y0336252D01*
X0519761Y0336168D01*
X0519625Y0336087D01*
X0519487Y0336010D01*
X0519348Y0335937D01*
X0519207Y0335867D01*
X0519064Y0335800D01*
X0518919Y0335737D01*
X0518773Y0335678D01*
X0518625Y0335622D01*
X0518476Y0335571D01*
X0518326Y0335523D01*
X0518175Y0335479D01*
X0518022Y0335438D01*
X0517869Y0335402D01*
X0517714Y0335369D01*
X0517559Y0335340D01*
X0517404Y0335316D01*
X0517247Y0335295D01*
X0517091Y0335278D01*
X0516933Y0335265D01*
X0516776Y0335256D01*
X0516618Y0335251D01*
X0516461Y0335250D01*
X0516303Y0335253D01*
X0516145Y0335260D01*
X0515988Y0335271D01*
X0515831Y0335286D01*
X0515674Y0335305D01*
X0515518Y0335328D01*
X0515363Y0335354D01*
X0515208Y0335385D01*
X0515054Y0335419D01*
X0514901Y0335458D01*
X0514749Y0335500D01*
X0514599Y0335546D01*
X0514449Y0335596D01*
X0514301Y0335650D01*
X0514154Y0335707D01*
X0514008Y0335768D01*
X0513865Y0335833D01*
X0513722Y0335901D01*
X0513582Y0335973D01*
X0513444Y0336048D01*
X0513307Y0336127D01*
X0513172Y0336209D01*
X0513040Y0336295D01*
X0512910Y0336384D01*
X0512782Y0336476D01*
X0512656Y0336572D01*
X0512533Y0336670D01*
X0512413Y0336772D01*
X0512295Y0336877D01*
X0512179Y0336984D01*
X0512067Y0337095D01*
X0511957Y0337208D01*
X0511850Y0337324D01*
X0511746Y0337442D01*
X0511645Y0337564D01*
X0511548Y0337687D01*
X0511453Y0337814D01*
X0511362Y0337942D01*
X0511273Y0338073D01*
X0511189Y0338206D01*
X0511107Y0338341D01*
X0511029Y0338478D01*
X0510955Y0338617D01*
X0510884Y0338758D01*
X0510816Y0338900D01*
X0510753Y0339045D01*
X0510692Y0339190D01*
X0510636Y0339338D01*
X0510583Y0339486D01*
X0510534Y0339636D01*
X0510489Y0339787D01*
X0510448Y0339940D01*
X0510410Y0340093D01*
X0510377Y0340247D01*
X0510347Y0340402D01*
X0510321Y0340557D01*
X0510300Y0340714D01*
X0510282Y0340870D01*
X0510268Y0341027D01*
X0510258Y0341185D01*
X0510252Y0341342D01*
X0510250Y0341500D01*
X0510250Y0021500D02*
X0510252Y0021658D01*
X0510258Y0021815D01*
X0510268Y0021973D01*
X0510282Y0022130D01*
X0510300Y0022286D01*
X0510321Y0022443D01*
X0510347Y0022598D01*
X0510377Y0022753D01*
X0510410Y0022907D01*
X0510448Y0023060D01*
X0510489Y0023213D01*
X0510534Y0023364D01*
X0510583Y0023514D01*
X0510636Y0023662D01*
X0510692Y0023810D01*
X0510753Y0023955D01*
X0510816Y0024100D01*
X0510884Y0024242D01*
X0510955Y0024383D01*
X0511029Y0024522D01*
X0511107Y0024659D01*
X0511189Y0024794D01*
X0511273Y0024927D01*
X0511362Y0025058D01*
X0511453Y0025186D01*
X0511548Y0025313D01*
X0511645Y0025436D01*
X0511746Y0025558D01*
X0511850Y0025676D01*
X0511957Y0025792D01*
X0512067Y0025905D01*
X0512179Y0026016D01*
X0512295Y0026123D01*
X0512413Y0026228D01*
X0512533Y0026330D01*
X0512656Y0026428D01*
X0512782Y0026524D01*
X0512910Y0026616D01*
X0513040Y0026705D01*
X0513172Y0026791D01*
X0513307Y0026873D01*
X0513444Y0026952D01*
X0513582Y0027027D01*
X0513722Y0027099D01*
X0513865Y0027167D01*
X0514008Y0027232D01*
X0514154Y0027293D01*
X0514301Y0027350D01*
X0514449Y0027404D01*
X0514599Y0027454D01*
X0514749Y0027500D01*
X0514901Y0027542D01*
X0515054Y0027581D01*
X0515208Y0027615D01*
X0515363Y0027646D01*
X0515518Y0027672D01*
X0515674Y0027695D01*
X0515831Y0027714D01*
X0515988Y0027729D01*
X0516145Y0027740D01*
X0516303Y0027747D01*
X0516461Y0027750D01*
X0516618Y0027749D01*
X0516776Y0027744D01*
X0516933Y0027735D01*
X0517091Y0027722D01*
X0517247Y0027705D01*
X0517404Y0027684D01*
X0517559Y0027660D01*
X0517714Y0027631D01*
X0517869Y0027598D01*
X0518022Y0027562D01*
X0518175Y0027521D01*
X0518326Y0027477D01*
X0518476Y0027429D01*
X0518625Y0027378D01*
X0518773Y0027322D01*
X0518919Y0027263D01*
X0519064Y0027200D01*
X0519207Y0027133D01*
X0519348Y0027063D01*
X0519487Y0026990D01*
X0519625Y0026913D01*
X0519761Y0026832D01*
X0519894Y0026748D01*
X0520025Y0026661D01*
X0520154Y0026570D01*
X0520281Y0026476D01*
X0520406Y0026379D01*
X0520527Y0026279D01*
X0520647Y0026176D01*
X0520763Y0026070D01*
X0520877Y0025961D01*
X0520989Y0025849D01*
X0521097Y0025735D01*
X0521202Y0025617D01*
X0521305Y0025497D01*
X0521404Y0025375D01*
X0521500Y0025250D01*
X0521593Y0025122D01*
X0521683Y0024993D01*
X0521769Y0024861D01*
X0521853Y0024727D01*
X0521932Y0024591D01*
X0522009Y0024453D01*
X0522081Y0024313D01*
X0522150Y0024171D01*
X0522216Y0024028D01*
X0522278Y0023883D01*
X0522336Y0023736D01*
X0522391Y0023588D01*
X0522442Y0023439D01*
X0522489Y0023288D01*
X0522532Y0023137D01*
X0522571Y0022984D01*
X0522607Y0022830D01*
X0522638Y0022676D01*
X0522666Y0022521D01*
X0522690Y0022365D01*
X0522710Y0022208D01*
X0522726Y0022051D01*
X0522738Y0021894D01*
X0522746Y0021737D01*
X0522750Y0021579D01*
X0522750Y0021421D01*
X0522746Y0021263D01*
X0522738Y0021106D01*
X0522726Y0020949D01*
X0522710Y0020792D01*
X0522690Y0020635D01*
X0522666Y0020479D01*
X0522638Y0020324D01*
X0522607Y0020170D01*
X0522571Y0020016D01*
X0522532Y0019863D01*
X0522489Y0019712D01*
X0522442Y0019561D01*
X0522391Y0019412D01*
X0522336Y0019264D01*
X0522278Y0019117D01*
X0522216Y0018972D01*
X0522150Y0018829D01*
X0522081Y0018687D01*
X0522009Y0018547D01*
X0521932Y0018409D01*
X0521853Y0018273D01*
X0521769Y0018139D01*
X0521683Y0018007D01*
X0521593Y0017878D01*
X0521500Y0017750D01*
X0521404Y0017625D01*
X0521305Y0017503D01*
X0521202Y0017383D01*
X0521097Y0017265D01*
X0520989Y0017151D01*
X0520877Y0017039D01*
X0520763Y0016930D01*
X0520647Y0016824D01*
X0520527Y0016721D01*
X0520406Y0016621D01*
X0520281Y0016524D01*
X0520154Y0016430D01*
X0520025Y0016339D01*
X0519894Y0016252D01*
X0519761Y0016168D01*
X0519625Y0016087D01*
X0519487Y0016010D01*
X0519348Y0015937D01*
X0519207Y0015867D01*
X0519064Y0015800D01*
X0518919Y0015737D01*
X0518773Y0015678D01*
X0518625Y0015622D01*
X0518476Y0015571D01*
X0518326Y0015523D01*
X0518175Y0015479D01*
X0518022Y0015438D01*
X0517869Y0015402D01*
X0517714Y0015369D01*
X0517559Y0015340D01*
X0517404Y0015316D01*
X0517247Y0015295D01*
X0517091Y0015278D01*
X0516933Y0015265D01*
X0516776Y0015256D01*
X0516618Y0015251D01*
X0516461Y0015250D01*
X0516303Y0015253D01*
X0516145Y0015260D01*
X0515988Y0015271D01*
X0515831Y0015286D01*
X0515674Y0015305D01*
X0515518Y0015328D01*
X0515363Y0015354D01*
X0515208Y0015385D01*
X0515054Y0015419D01*
X0514901Y0015458D01*
X0514749Y0015500D01*
X0514599Y0015546D01*
X0514449Y0015596D01*
X0514301Y0015650D01*
X0514154Y0015707D01*
X0514008Y0015768D01*
X0513865Y0015833D01*
X0513722Y0015901D01*
X0513582Y0015973D01*
X0513444Y0016048D01*
X0513307Y0016127D01*
X0513172Y0016209D01*
X0513040Y0016295D01*
X0512910Y0016384D01*
X0512782Y0016476D01*
X0512656Y0016572D01*
X0512533Y0016670D01*
X0512413Y0016772D01*
X0512295Y0016877D01*
X0512179Y0016984D01*
X0512067Y0017095D01*
X0511957Y0017208D01*
X0511850Y0017324D01*
X0511746Y0017442D01*
X0511645Y0017564D01*
X0511548Y0017687D01*
X0511453Y0017814D01*
X0511362Y0017942D01*
X0511273Y0018073D01*
X0511189Y0018206D01*
X0511107Y0018341D01*
X0511029Y0018478D01*
X0510955Y0018617D01*
X0510884Y0018758D01*
X0510816Y0018900D01*
X0510753Y0019045D01*
X0510692Y0019190D01*
X0510636Y0019338D01*
X0510583Y0019486D01*
X0510534Y0019636D01*
X0510489Y0019787D01*
X0510448Y0019940D01*
X0510410Y0020093D01*
X0510377Y0020247D01*
X0510347Y0020402D01*
X0510321Y0020557D01*
X0510300Y0020714D01*
X0510282Y0020870D01*
X0510268Y0021027D01*
X0510258Y0021185D01*
X0510252Y0021342D01*
X0510250Y0021500D01*
D11*
X0243000Y0191500D02*
X0220000Y0191500D01*
X0220000Y0261500D01*
X0227500Y0261500D01*
X0227502Y0261374D01*
X0227508Y0261249D01*
X0227518Y0261124D01*
X0227532Y0260999D01*
X0227549Y0260874D01*
X0227571Y0260750D01*
X0227596Y0260627D01*
X0227626Y0260505D01*
X0227659Y0260384D01*
X0227696Y0260264D01*
X0227736Y0260145D01*
X0227781Y0260028D01*
X0227829Y0259911D01*
X0227881Y0259797D01*
X0227936Y0259684D01*
X0227995Y0259573D01*
X0228057Y0259464D01*
X0228123Y0259357D01*
X0228192Y0259252D01*
X0228264Y0259149D01*
X0228339Y0259048D01*
X0228418Y0258950D01*
X0228500Y0258855D01*
X0228584Y0258762D01*
X0228672Y0258672D01*
X0228762Y0258584D01*
X0228855Y0258500D01*
X0228950Y0258418D01*
X0229048Y0258339D01*
X0229149Y0258264D01*
X0229252Y0258192D01*
X0229357Y0258123D01*
X0229464Y0258057D01*
X0229573Y0257995D01*
X0229684Y0257936D01*
X0229797Y0257881D01*
X0229911Y0257829D01*
X0230028Y0257781D01*
X0230145Y0257736D01*
X0230264Y0257696D01*
X0230384Y0257659D01*
X0230505Y0257626D01*
X0230627Y0257596D01*
X0230750Y0257571D01*
X0230874Y0257549D01*
X0230999Y0257532D01*
X0231124Y0257518D01*
X0231249Y0257508D01*
X0231374Y0257502D01*
X0231500Y0257500D01*
X0231626Y0257502D01*
X0231751Y0257508D01*
X0231876Y0257518D01*
X0232001Y0257532D01*
X0232126Y0257549D01*
X0232250Y0257571D01*
X0232373Y0257596D01*
X0232495Y0257626D01*
X0232616Y0257659D01*
X0232736Y0257696D01*
X0232855Y0257736D01*
X0232972Y0257781D01*
X0233089Y0257829D01*
X0233203Y0257881D01*
X0233316Y0257936D01*
X0233427Y0257995D01*
X0233536Y0258057D01*
X0233643Y0258123D01*
X0233748Y0258192D01*
X0233851Y0258264D01*
X0233952Y0258339D01*
X0234050Y0258418D01*
X0234145Y0258500D01*
X0234238Y0258584D01*
X0234328Y0258672D01*
X0234416Y0258762D01*
X0234500Y0258855D01*
X0234582Y0258950D01*
X0234661Y0259048D01*
X0234736Y0259149D01*
X0234808Y0259252D01*
X0234877Y0259357D01*
X0234943Y0259464D01*
X0235005Y0259573D01*
X0235064Y0259684D01*
X0235119Y0259797D01*
X0235171Y0259911D01*
X0235219Y0260028D01*
X0235264Y0260145D01*
X0235304Y0260264D01*
X0235341Y0260384D01*
X0235374Y0260505D01*
X0235404Y0260627D01*
X0235429Y0260750D01*
X0235451Y0260874D01*
X0235468Y0260999D01*
X0235482Y0261124D01*
X0235492Y0261249D01*
X0235498Y0261374D01*
X0235500Y0261500D01*
X0243000Y0261500D01*
X0243000Y0191500D01*
X0186500Y0181500D02*
X0186503Y0181745D01*
X0186512Y0181991D01*
X0186527Y0182236D01*
X0186548Y0182480D01*
X0186575Y0182724D01*
X0186608Y0182967D01*
X0186647Y0183210D01*
X0186692Y0183451D01*
X0186743Y0183691D01*
X0186800Y0183930D01*
X0186862Y0184167D01*
X0186931Y0184403D01*
X0187005Y0184637D01*
X0187085Y0184869D01*
X0187170Y0185099D01*
X0187261Y0185327D01*
X0187358Y0185552D01*
X0187460Y0185776D01*
X0187568Y0185996D01*
X0187681Y0186214D01*
X0187799Y0186429D01*
X0187923Y0186641D01*
X0188051Y0186850D01*
X0188185Y0187056D01*
X0188324Y0187258D01*
X0188468Y0187457D01*
X0188617Y0187652D01*
X0188770Y0187844D01*
X0188928Y0188032D01*
X0189090Y0188216D01*
X0189258Y0188395D01*
X0189429Y0188571D01*
X0189605Y0188742D01*
X0189784Y0188910D01*
X0189968Y0189072D01*
X0190156Y0189230D01*
X0190348Y0189383D01*
X0190543Y0189532D01*
X0190742Y0189676D01*
X0190944Y0189815D01*
X0191150Y0189949D01*
X0191359Y0190077D01*
X0191571Y0190201D01*
X0191786Y0190319D01*
X0192004Y0190432D01*
X0192224Y0190540D01*
X0192448Y0190642D01*
X0192673Y0190739D01*
X0192901Y0190830D01*
X0193131Y0190915D01*
X0193363Y0190995D01*
X0193597Y0191069D01*
X0193833Y0191138D01*
X0194070Y0191200D01*
X0194309Y0191257D01*
X0194549Y0191308D01*
X0194790Y0191353D01*
X0195033Y0191392D01*
X0195276Y0191425D01*
X0195520Y0191452D01*
X0195764Y0191473D01*
X0196009Y0191488D01*
X0196255Y0191497D01*
X0196500Y0191500D01*
X0196745Y0191497D01*
X0196991Y0191488D01*
X0197236Y0191473D01*
X0197480Y0191452D01*
X0197724Y0191425D01*
X0197967Y0191392D01*
X0198210Y0191353D01*
X0198451Y0191308D01*
X0198691Y0191257D01*
X0198930Y0191200D01*
X0199167Y0191138D01*
X0199403Y0191069D01*
X0199637Y0190995D01*
X0199869Y0190915D01*
X0200099Y0190830D01*
X0200327Y0190739D01*
X0200552Y0190642D01*
X0200776Y0190540D01*
X0200996Y0190432D01*
X0201214Y0190319D01*
X0201429Y0190201D01*
X0201641Y0190077D01*
X0201850Y0189949D01*
X0202056Y0189815D01*
X0202258Y0189676D01*
X0202457Y0189532D01*
X0202652Y0189383D01*
X0202844Y0189230D01*
X0203032Y0189072D01*
X0203216Y0188910D01*
X0203395Y0188742D01*
X0203571Y0188571D01*
X0203742Y0188395D01*
X0203910Y0188216D01*
X0204072Y0188032D01*
X0204230Y0187844D01*
X0204383Y0187652D01*
X0204532Y0187457D01*
X0204676Y0187258D01*
X0204815Y0187056D01*
X0204949Y0186850D01*
X0205077Y0186641D01*
X0205201Y0186429D01*
X0205319Y0186214D01*
X0205432Y0185996D01*
X0205540Y0185776D01*
X0205642Y0185552D01*
X0205739Y0185327D01*
X0205830Y0185099D01*
X0205915Y0184869D01*
X0205995Y0184637D01*
X0206069Y0184403D01*
X0206138Y0184167D01*
X0206200Y0183930D01*
X0206257Y0183691D01*
X0206308Y0183451D01*
X0206353Y0183210D01*
X0206392Y0182967D01*
X0206425Y0182724D01*
X0206452Y0182480D01*
X0206473Y0182236D01*
X0206488Y0181991D01*
X0206497Y0181745D01*
X0206500Y0181500D01*
X0206497Y0181255D01*
X0206488Y0181009D01*
X0206473Y0180764D01*
X0206452Y0180520D01*
X0206425Y0180276D01*
X0206392Y0180033D01*
X0206353Y0179790D01*
X0206308Y0179549D01*
X0206257Y0179309D01*
X0206200Y0179070D01*
X0206138Y0178833D01*
X0206069Y0178597D01*
X0205995Y0178363D01*
X0205915Y0178131D01*
X0205830Y0177901D01*
X0205739Y0177673D01*
X0205642Y0177448D01*
X0205540Y0177224D01*
X0205432Y0177004D01*
X0205319Y0176786D01*
X0205201Y0176571D01*
X0205077Y0176359D01*
X0204949Y0176150D01*
X0204815Y0175944D01*
X0204676Y0175742D01*
X0204532Y0175543D01*
X0204383Y0175348D01*
X0204230Y0175156D01*
X0204072Y0174968D01*
X0203910Y0174784D01*
X0203742Y0174605D01*
X0203571Y0174429D01*
X0203395Y0174258D01*
X0203216Y0174090D01*
X0203032Y0173928D01*
X0202844Y0173770D01*
X0202652Y0173617D01*
X0202457Y0173468D01*
X0202258Y0173324D01*
X0202056Y0173185D01*
X0201850Y0173051D01*
X0201641Y0172923D01*
X0201429Y0172799D01*
X0201214Y0172681D01*
X0200996Y0172568D01*
X0200776Y0172460D01*
X0200552Y0172358D01*
X0200327Y0172261D01*
X0200099Y0172170D01*
X0199869Y0172085D01*
X0199637Y0172005D01*
X0199403Y0171931D01*
X0199167Y0171862D01*
X0198930Y0171800D01*
X0198691Y0171743D01*
X0198451Y0171692D01*
X0198210Y0171647D01*
X0197967Y0171608D01*
X0197724Y0171575D01*
X0197480Y0171548D01*
X0197236Y0171527D01*
X0196991Y0171512D01*
X0196745Y0171503D01*
X0196500Y0171500D01*
X0196255Y0171503D01*
X0196009Y0171512D01*
X0195764Y0171527D01*
X0195520Y0171548D01*
X0195276Y0171575D01*
X0195033Y0171608D01*
X0194790Y0171647D01*
X0194549Y0171692D01*
X0194309Y0171743D01*
X0194070Y0171800D01*
X0193833Y0171862D01*
X0193597Y0171931D01*
X0193363Y0172005D01*
X0193131Y0172085D01*
X0192901Y0172170D01*
X0192673Y0172261D01*
X0192448Y0172358D01*
X0192224Y0172460D01*
X0192004Y0172568D01*
X0191786Y0172681D01*
X0191571Y0172799D01*
X0191359Y0172923D01*
X0191150Y0173051D01*
X0190944Y0173185D01*
X0190742Y0173324D01*
X0190543Y0173468D01*
X0190348Y0173617D01*
X0190156Y0173770D01*
X0189968Y0173928D01*
X0189784Y0174090D01*
X0189605Y0174258D01*
X0189429Y0174429D01*
X0189258Y0174605D01*
X0189090Y0174784D01*
X0188928Y0174968D01*
X0188770Y0175156D01*
X0188617Y0175348D01*
X0188468Y0175543D01*
X0188324Y0175742D01*
X0188185Y0175944D01*
X0188051Y0176150D01*
X0187923Y0176359D01*
X0187799Y0176571D01*
X0187681Y0176786D01*
X0187568Y0177004D01*
X0187460Y0177224D01*
X0187358Y0177448D01*
X0187261Y0177673D01*
X0187170Y0177901D01*
X0187085Y0178131D01*
X0187005Y0178363D01*
X0186931Y0178597D01*
X0186862Y0178833D01*
X0186800Y0179070D01*
X0186743Y0179309D01*
X0186692Y0179549D01*
X0186647Y0179790D01*
X0186608Y0180033D01*
X0186575Y0180276D01*
X0186548Y0180520D01*
X0186527Y0180764D01*
X0186512Y0181009D01*
X0186503Y0181255D01*
X0186500Y0181500D01*
X0182907Y0181205D02*
X0182907Y0175868D01*
X0181839Y0174800D01*
X0179704Y0174800D01*
X0178636Y0175868D01*
X0178636Y0181205D01*
X0176461Y0180138D02*
X0176461Y0178003D01*
X0175394Y0176935D01*
X0172191Y0176935D01*
X0172191Y0174800D02*
X0172191Y0181205D01*
X0175394Y0181205D01*
X0176461Y0180138D01*
X0174326Y0176935D02*
X0176461Y0174800D01*
X0170016Y0174800D02*
X0170016Y0181205D01*
X0170016Y0178003D02*
X0165745Y0178003D01*
X0165745Y0181205D02*
X0165745Y0174800D01*
X0161435Y0174800D02*
X0161435Y0181205D01*
X0159300Y0181205D02*
X0163570Y0181205D01*
X0157125Y0178003D02*
X0152854Y0178003D01*
X0150679Y0181205D02*
X0146409Y0181205D01*
X0148544Y0181205D02*
X0148544Y0174800D01*
X0144234Y0175868D02*
X0144234Y0181205D01*
X0139963Y0181205D02*
X0139963Y0175868D01*
X0141031Y0174800D01*
X0143166Y0174800D01*
X0144234Y0175868D01*
X0137788Y0175868D02*
X0137788Y0180138D01*
X0136721Y0181205D01*
X0134586Y0181205D01*
X0133518Y0180138D01*
X0133518Y0175868D01*
X0134586Y0174800D01*
X0136721Y0174800D01*
X0137788Y0175868D01*
X0191500Y0188500D02*
X0193500Y0188500D01*
X0192500Y0187500D02*
X0192500Y0189500D01*
X0173000Y0221500D02*
X0150000Y0221500D01*
X0150000Y0261500D01*
X0157500Y0261500D01*
X0157502Y0261374D01*
X0157508Y0261249D01*
X0157518Y0261124D01*
X0157532Y0260999D01*
X0157549Y0260874D01*
X0157571Y0260750D01*
X0157596Y0260627D01*
X0157626Y0260505D01*
X0157659Y0260384D01*
X0157696Y0260264D01*
X0157736Y0260145D01*
X0157781Y0260028D01*
X0157829Y0259911D01*
X0157881Y0259797D01*
X0157936Y0259684D01*
X0157995Y0259573D01*
X0158057Y0259464D01*
X0158123Y0259357D01*
X0158192Y0259252D01*
X0158264Y0259149D01*
X0158339Y0259048D01*
X0158418Y0258950D01*
X0158500Y0258855D01*
X0158584Y0258762D01*
X0158672Y0258672D01*
X0158762Y0258584D01*
X0158855Y0258500D01*
X0158950Y0258418D01*
X0159048Y0258339D01*
X0159149Y0258264D01*
X0159252Y0258192D01*
X0159357Y0258123D01*
X0159464Y0258057D01*
X0159573Y0257995D01*
X0159684Y0257936D01*
X0159797Y0257881D01*
X0159911Y0257829D01*
X0160028Y0257781D01*
X0160145Y0257736D01*
X0160264Y0257696D01*
X0160384Y0257659D01*
X0160505Y0257626D01*
X0160627Y0257596D01*
X0160750Y0257571D01*
X0160874Y0257549D01*
X0160999Y0257532D01*
X0161124Y0257518D01*
X0161249Y0257508D01*
X0161374Y0257502D01*
X0161500Y0257500D01*
X0161626Y0257502D01*
X0161751Y0257508D01*
X0161876Y0257518D01*
X0162001Y0257532D01*
X0162126Y0257549D01*
X0162250Y0257571D01*
X0162373Y0257596D01*
X0162495Y0257626D01*
X0162616Y0257659D01*
X0162736Y0257696D01*
X0162855Y0257736D01*
X0162972Y0257781D01*
X0163089Y0257829D01*
X0163203Y0257881D01*
X0163316Y0257936D01*
X0163427Y0257995D01*
X0163536Y0258057D01*
X0163643Y0258123D01*
X0163748Y0258192D01*
X0163851Y0258264D01*
X0163952Y0258339D01*
X0164050Y0258418D01*
X0164145Y0258500D01*
X0164238Y0258584D01*
X0164328Y0258672D01*
X0164416Y0258762D01*
X0164500Y0258855D01*
X0164582Y0258950D01*
X0164661Y0259048D01*
X0164736Y0259149D01*
X0164808Y0259252D01*
X0164877Y0259357D01*
X0164943Y0259464D01*
X0165005Y0259573D01*
X0165064Y0259684D01*
X0165119Y0259797D01*
X0165171Y0259911D01*
X0165219Y0260028D01*
X0165264Y0260145D01*
X0165304Y0260264D01*
X0165341Y0260384D01*
X0165374Y0260505D01*
X0165404Y0260627D01*
X0165429Y0260750D01*
X0165451Y0260874D01*
X0165468Y0260999D01*
X0165482Y0261124D01*
X0165492Y0261249D01*
X0165498Y0261374D01*
X0165500Y0261500D01*
X0173000Y0261500D01*
X0173000Y0221500D01*
X0116500Y0276500D02*
X0116503Y0276745D01*
X0116512Y0276991D01*
X0116527Y0277236D01*
X0116548Y0277480D01*
X0116575Y0277724D01*
X0116608Y0277967D01*
X0116647Y0278210D01*
X0116692Y0278451D01*
X0116743Y0278691D01*
X0116800Y0278930D01*
X0116862Y0279167D01*
X0116931Y0279403D01*
X0117005Y0279637D01*
X0117085Y0279869D01*
X0117170Y0280099D01*
X0117261Y0280327D01*
X0117358Y0280552D01*
X0117460Y0280776D01*
X0117568Y0280996D01*
X0117681Y0281214D01*
X0117799Y0281429D01*
X0117923Y0281641D01*
X0118051Y0281850D01*
X0118185Y0282056D01*
X0118324Y0282258D01*
X0118468Y0282457D01*
X0118617Y0282652D01*
X0118770Y0282844D01*
X0118928Y0283032D01*
X0119090Y0283216D01*
X0119258Y0283395D01*
X0119429Y0283571D01*
X0119605Y0283742D01*
X0119784Y0283910D01*
X0119968Y0284072D01*
X0120156Y0284230D01*
X0120348Y0284383D01*
X0120543Y0284532D01*
X0120742Y0284676D01*
X0120944Y0284815D01*
X0121150Y0284949D01*
X0121359Y0285077D01*
X0121571Y0285201D01*
X0121786Y0285319D01*
X0122004Y0285432D01*
X0122224Y0285540D01*
X0122448Y0285642D01*
X0122673Y0285739D01*
X0122901Y0285830D01*
X0123131Y0285915D01*
X0123363Y0285995D01*
X0123597Y0286069D01*
X0123833Y0286138D01*
X0124070Y0286200D01*
X0124309Y0286257D01*
X0124549Y0286308D01*
X0124790Y0286353D01*
X0125033Y0286392D01*
X0125276Y0286425D01*
X0125520Y0286452D01*
X0125764Y0286473D01*
X0126009Y0286488D01*
X0126255Y0286497D01*
X0126500Y0286500D01*
X0126745Y0286497D01*
X0126991Y0286488D01*
X0127236Y0286473D01*
X0127480Y0286452D01*
X0127724Y0286425D01*
X0127967Y0286392D01*
X0128210Y0286353D01*
X0128451Y0286308D01*
X0128691Y0286257D01*
X0128930Y0286200D01*
X0129167Y0286138D01*
X0129403Y0286069D01*
X0129637Y0285995D01*
X0129869Y0285915D01*
X0130099Y0285830D01*
X0130327Y0285739D01*
X0130552Y0285642D01*
X0130776Y0285540D01*
X0130996Y0285432D01*
X0131214Y0285319D01*
X0131429Y0285201D01*
X0131641Y0285077D01*
X0131850Y0284949D01*
X0132056Y0284815D01*
X0132258Y0284676D01*
X0132457Y0284532D01*
X0132652Y0284383D01*
X0132844Y0284230D01*
X0133032Y0284072D01*
X0133216Y0283910D01*
X0133395Y0283742D01*
X0133571Y0283571D01*
X0133742Y0283395D01*
X0133910Y0283216D01*
X0134072Y0283032D01*
X0134230Y0282844D01*
X0134383Y0282652D01*
X0134532Y0282457D01*
X0134676Y0282258D01*
X0134815Y0282056D01*
X0134949Y0281850D01*
X0135077Y0281641D01*
X0135201Y0281429D01*
X0135319Y0281214D01*
X0135432Y0280996D01*
X0135540Y0280776D01*
X0135642Y0280552D01*
X0135739Y0280327D01*
X0135830Y0280099D01*
X0135915Y0279869D01*
X0135995Y0279637D01*
X0136069Y0279403D01*
X0136138Y0279167D01*
X0136200Y0278930D01*
X0136257Y0278691D01*
X0136308Y0278451D01*
X0136353Y0278210D01*
X0136392Y0277967D01*
X0136425Y0277724D01*
X0136452Y0277480D01*
X0136473Y0277236D01*
X0136488Y0276991D01*
X0136497Y0276745D01*
X0136500Y0276500D01*
X0136497Y0276255D01*
X0136488Y0276009D01*
X0136473Y0275764D01*
X0136452Y0275520D01*
X0136425Y0275276D01*
X0136392Y0275033D01*
X0136353Y0274790D01*
X0136308Y0274549D01*
X0136257Y0274309D01*
X0136200Y0274070D01*
X0136138Y0273833D01*
X0136069Y0273597D01*
X0135995Y0273363D01*
X0135915Y0273131D01*
X0135830Y0272901D01*
X0135739Y0272673D01*
X0135642Y0272448D01*
X0135540Y0272224D01*
X0135432Y0272004D01*
X0135319Y0271786D01*
X0135201Y0271571D01*
X0135077Y0271359D01*
X0134949Y0271150D01*
X0134815Y0270944D01*
X0134676Y0270742D01*
X0134532Y0270543D01*
X0134383Y0270348D01*
X0134230Y0270156D01*
X0134072Y0269968D01*
X0133910Y0269784D01*
X0133742Y0269605D01*
X0133571Y0269429D01*
X0133395Y0269258D01*
X0133216Y0269090D01*
X0133032Y0268928D01*
X0132844Y0268770D01*
X0132652Y0268617D01*
X0132457Y0268468D01*
X0132258Y0268324D01*
X0132056Y0268185D01*
X0131850Y0268051D01*
X0131641Y0267923D01*
X0131429Y0267799D01*
X0131214Y0267681D01*
X0130996Y0267568D01*
X0130776Y0267460D01*
X0130552Y0267358D01*
X0130327Y0267261D01*
X0130099Y0267170D01*
X0129869Y0267085D01*
X0129637Y0267005D01*
X0129403Y0266931D01*
X0129167Y0266862D01*
X0128930Y0266800D01*
X0128691Y0266743D01*
X0128451Y0266692D01*
X0128210Y0266647D01*
X0127967Y0266608D01*
X0127724Y0266575D01*
X0127480Y0266548D01*
X0127236Y0266527D01*
X0126991Y0266512D01*
X0126745Y0266503D01*
X0126500Y0266500D01*
X0126255Y0266503D01*
X0126009Y0266512D01*
X0125764Y0266527D01*
X0125520Y0266548D01*
X0125276Y0266575D01*
X0125033Y0266608D01*
X0124790Y0266647D01*
X0124549Y0266692D01*
X0124309Y0266743D01*
X0124070Y0266800D01*
X0123833Y0266862D01*
X0123597Y0266931D01*
X0123363Y0267005D01*
X0123131Y0267085D01*
X0122901Y0267170D01*
X0122673Y0267261D01*
X0122448Y0267358D01*
X0122224Y0267460D01*
X0122004Y0267568D01*
X0121786Y0267681D01*
X0121571Y0267799D01*
X0121359Y0267923D01*
X0121150Y0268051D01*
X0120944Y0268185D01*
X0120742Y0268324D01*
X0120543Y0268468D01*
X0120348Y0268617D01*
X0120156Y0268770D01*
X0119968Y0268928D01*
X0119784Y0269090D01*
X0119605Y0269258D01*
X0119429Y0269429D01*
X0119258Y0269605D01*
X0119090Y0269784D01*
X0118928Y0269968D01*
X0118770Y0270156D01*
X0118617Y0270348D01*
X0118468Y0270543D01*
X0118324Y0270742D01*
X0118185Y0270944D01*
X0118051Y0271150D01*
X0117923Y0271359D01*
X0117799Y0271571D01*
X0117681Y0271786D01*
X0117568Y0272004D01*
X0117460Y0272224D01*
X0117358Y0272448D01*
X0117261Y0272673D01*
X0117170Y0272901D01*
X0117085Y0273131D01*
X0117005Y0273363D01*
X0116931Y0273597D01*
X0116862Y0273833D01*
X0116800Y0274070D01*
X0116743Y0274309D01*
X0116692Y0274549D01*
X0116647Y0274790D01*
X0116608Y0275033D01*
X0116575Y0275276D01*
X0116548Y0275520D01*
X0116527Y0275764D01*
X0116512Y0276009D01*
X0116503Y0276255D01*
X0116500Y0276500D01*
X0132500Y0280500D02*
X0134500Y0280500D01*
X0133500Y0281500D02*
X0133500Y0279500D01*
X0074500Y0280500D02*
X0072500Y0280500D01*
X0073500Y0281500D02*
X0073500Y0279500D01*
X0056500Y0276500D02*
X0056503Y0276745D01*
X0056512Y0276991D01*
X0056527Y0277236D01*
X0056548Y0277480D01*
X0056575Y0277724D01*
X0056608Y0277967D01*
X0056647Y0278210D01*
X0056692Y0278451D01*
X0056743Y0278691D01*
X0056800Y0278930D01*
X0056862Y0279167D01*
X0056931Y0279403D01*
X0057005Y0279637D01*
X0057085Y0279869D01*
X0057170Y0280099D01*
X0057261Y0280327D01*
X0057358Y0280552D01*
X0057460Y0280776D01*
X0057568Y0280996D01*
X0057681Y0281214D01*
X0057799Y0281429D01*
X0057923Y0281641D01*
X0058051Y0281850D01*
X0058185Y0282056D01*
X0058324Y0282258D01*
X0058468Y0282457D01*
X0058617Y0282652D01*
X0058770Y0282844D01*
X0058928Y0283032D01*
X0059090Y0283216D01*
X0059258Y0283395D01*
X0059429Y0283571D01*
X0059605Y0283742D01*
X0059784Y0283910D01*
X0059968Y0284072D01*
X0060156Y0284230D01*
X0060348Y0284383D01*
X0060543Y0284532D01*
X0060742Y0284676D01*
X0060944Y0284815D01*
X0061150Y0284949D01*
X0061359Y0285077D01*
X0061571Y0285201D01*
X0061786Y0285319D01*
X0062004Y0285432D01*
X0062224Y0285540D01*
X0062448Y0285642D01*
X0062673Y0285739D01*
X0062901Y0285830D01*
X0063131Y0285915D01*
X0063363Y0285995D01*
X0063597Y0286069D01*
X0063833Y0286138D01*
X0064070Y0286200D01*
X0064309Y0286257D01*
X0064549Y0286308D01*
X0064790Y0286353D01*
X0065033Y0286392D01*
X0065276Y0286425D01*
X0065520Y0286452D01*
X0065764Y0286473D01*
X0066009Y0286488D01*
X0066255Y0286497D01*
X0066500Y0286500D01*
X0066745Y0286497D01*
X0066991Y0286488D01*
X0067236Y0286473D01*
X0067480Y0286452D01*
X0067724Y0286425D01*
X0067967Y0286392D01*
X0068210Y0286353D01*
X0068451Y0286308D01*
X0068691Y0286257D01*
X0068930Y0286200D01*
X0069167Y0286138D01*
X0069403Y0286069D01*
X0069637Y0285995D01*
X0069869Y0285915D01*
X0070099Y0285830D01*
X0070327Y0285739D01*
X0070552Y0285642D01*
X0070776Y0285540D01*
X0070996Y0285432D01*
X0071214Y0285319D01*
X0071429Y0285201D01*
X0071641Y0285077D01*
X0071850Y0284949D01*
X0072056Y0284815D01*
X0072258Y0284676D01*
X0072457Y0284532D01*
X0072652Y0284383D01*
X0072844Y0284230D01*
X0073032Y0284072D01*
X0073216Y0283910D01*
X0073395Y0283742D01*
X0073571Y0283571D01*
X0073742Y0283395D01*
X0073910Y0283216D01*
X0074072Y0283032D01*
X0074230Y0282844D01*
X0074383Y0282652D01*
X0074532Y0282457D01*
X0074676Y0282258D01*
X0074815Y0282056D01*
X0074949Y0281850D01*
X0075077Y0281641D01*
X0075201Y0281429D01*
X0075319Y0281214D01*
X0075432Y0280996D01*
X0075540Y0280776D01*
X0075642Y0280552D01*
X0075739Y0280327D01*
X0075830Y0280099D01*
X0075915Y0279869D01*
X0075995Y0279637D01*
X0076069Y0279403D01*
X0076138Y0279167D01*
X0076200Y0278930D01*
X0076257Y0278691D01*
X0076308Y0278451D01*
X0076353Y0278210D01*
X0076392Y0277967D01*
X0076425Y0277724D01*
X0076452Y0277480D01*
X0076473Y0277236D01*
X0076488Y0276991D01*
X0076497Y0276745D01*
X0076500Y0276500D01*
X0076497Y0276255D01*
X0076488Y0276009D01*
X0076473Y0275764D01*
X0076452Y0275520D01*
X0076425Y0275276D01*
X0076392Y0275033D01*
X0076353Y0274790D01*
X0076308Y0274549D01*
X0076257Y0274309D01*
X0076200Y0274070D01*
X0076138Y0273833D01*
X0076069Y0273597D01*
X0075995Y0273363D01*
X0075915Y0273131D01*
X0075830Y0272901D01*
X0075739Y0272673D01*
X0075642Y0272448D01*
X0075540Y0272224D01*
X0075432Y0272004D01*
X0075319Y0271786D01*
X0075201Y0271571D01*
X0075077Y0271359D01*
X0074949Y0271150D01*
X0074815Y0270944D01*
X0074676Y0270742D01*
X0074532Y0270543D01*
X0074383Y0270348D01*
X0074230Y0270156D01*
X0074072Y0269968D01*
X0073910Y0269784D01*
X0073742Y0269605D01*
X0073571Y0269429D01*
X0073395Y0269258D01*
X0073216Y0269090D01*
X0073032Y0268928D01*
X0072844Y0268770D01*
X0072652Y0268617D01*
X0072457Y0268468D01*
X0072258Y0268324D01*
X0072056Y0268185D01*
X0071850Y0268051D01*
X0071641Y0267923D01*
X0071429Y0267799D01*
X0071214Y0267681D01*
X0070996Y0267568D01*
X0070776Y0267460D01*
X0070552Y0267358D01*
X0070327Y0267261D01*
X0070099Y0267170D01*
X0069869Y0267085D01*
X0069637Y0267005D01*
X0069403Y0266931D01*
X0069167Y0266862D01*
X0068930Y0266800D01*
X0068691Y0266743D01*
X0068451Y0266692D01*
X0068210Y0266647D01*
X0067967Y0266608D01*
X0067724Y0266575D01*
X0067480Y0266548D01*
X0067236Y0266527D01*
X0066991Y0266512D01*
X0066745Y0266503D01*
X0066500Y0266500D01*
X0066255Y0266503D01*
X0066009Y0266512D01*
X0065764Y0266527D01*
X0065520Y0266548D01*
X0065276Y0266575D01*
X0065033Y0266608D01*
X0064790Y0266647D01*
X0064549Y0266692D01*
X0064309Y0266743D01*
X0064070Y0266800D01*
X0063833Y0266862D01*
X0063597Y0266931D01*
X0063363Y0267005D01*
X0063131Y0267085D01*
X0062901Y0267170D01*
X0062673Y0267261D01*
X0062448Y0267358D01*
X0062224Y0267460D01*
X0062004Y0267568D01*
X0061786Y0267681D01*
X0061571Y0267799D01*
X0061359Y0267923D01*
X0061150Y0268051D01*
X0060944Y0268185D01*
X0060742Y0268324D01*
X0060543Y0268468D01*
X0060348Y0268617D01*
X0060156Y0268770D01*
X0059968Y0268928D01*
X0059784Y0269090D01*
X0059605Y0269258D01*
X0059429Y0269429D01*
X0059258Y0269605D01*
X0059090Y0269784D01*
X0058928Y0269968D01*
X0058770Y0270156D01*
X0058617Y0270348D01*
X0058468Y0270543D01*
X0058324Y0270742D01*
X0058185Y0270944D01*
X0058051Y0271150D01*
X0057923Y0271359D01*
X0057799Y0271571D01*
X0057681Y0271786D01*
X0057568Y0272004D01*
X0057460Y0272224D01*
X0057358Y0272448D01*
X0057261Y0272673D01*
X0057170Y0272901D01*
X0057085Y0273131D01*
X0057005Y0273363D01*
X0056931Y0273597D01*
X0056862Y0273833D01*
X0056800Y0274070D01*
X0056743Y0274309D01*
X0056692Y0274549D01*
X0056647Y0274790D01*
X0056608Y0275033D01*
X0056575Y0275276D01*
X0056548Y0275520D01*
X0056527Y0275764D01*
X0056512Y0276009D01*
X0056503Y0276255D01*
X0056500Y0276500D01*
X0166429Y0333800D02*
X0168564Y0333800D01*
X0167496Y0333800D02*
X0167496Y0340205D01*
X0166429Y0340205D02*
X0168564Y0340205D01*
X0170726Y0340205D02*
X0174996Y0333800D01*
X0174996Y0340205D01*
X0170726Y0340205D02*
X0170726Y0333800D01*
X0248909Y0340205D02*
X0253179Y0340205D01*
X0251044Y0340205D02*
X0251044Y0333800D01*
X0255354Y0333800D02*
X0255354Y0340205D01*
X0255354Y0337003D02*
X0259625Y0337003D01*
X0261800Y0335935D02*
X0265003Y0335935D01*
X0266070Y0337003D01*
X0266070Y0339138D01*
X0265003Y0340205D01*
X0261800Y0340205D01*
X0261800Y0333800D01*
X0259625Y0333800D02*
X0259625Y0340205D01*
X0263935Y0335935D02*
X0266070Y0333800D01*
X0268245Y0334868D02*
X0269313Y0333800D01*
X0271448Y0333800D01*
X0272516Y0334868D01*
X0272516Y0340205D01*
X0268245Y0340205D02*
X0268245Y0334868D01*
X0338909Y0340205D02*
X0343179Y0340205D01*
X0341044Y0340205D02*
X0341044Y0333800D01*
X0345354Y0333800D02*
X0345354Y0340205D01*
X0345354Y0337003D02*
X0349625Y0337003D01*
X0351800Y0335935D02*
X0355003Y0335935D01*
X0356070Y0337003D01*
X0356070Y0339138D01*
X0355003Y0340205D01*
X0351800Y0340205D01*
X0351800Y0333800D01*
X0349625Y0333800D02*
X0349625Y0340205D01*
X0353935Y0335935D02*
X0356070Y0333800D01*
X0358245Y0334868D02*
X0359313Y0333800D01*
X0361448Y0333800D01*
X0362516Y0334868D01*
X0362516Y0340205D01*
X0358245Y0340205D02*
X0358245Y0334868D01*
X0416018Y0340205D02*
X0420288Y0340205D01*
X0418153Y0340205D02*
X0418153Y0333800D01*
X0422463Y0333800D02*
X0422463Y0340205D01*
X0422463Y0337003D02*
X0426734Y0337003D01*
X0428909Y0335935D02*
X0432112Y0335935D01*
X0433179Y0337003D01*
X0433179Y0339138D01*
X0432112Y0340205D01*
X0428909Y0340205D01*
X0428909Y0333800D01*
X0426734Y0333800D02*
X0426734Y0340205D01*
X0431044Y0335935D02*
X0433179Y0333800D01*
X0435354Y0334868D02*
X0436422Y0333800D01*
X0438557Y0333800D01*
X0439625Y0334868D01*
X0439625Y0340205D01*
X0435354Y0340205D02*
X0435354Y0334868D01*
X0441800Y0333800D02*
X0446070Y0340205D01*
X0448245Y0339138D02*
X0448245Y0334868D01*
X0449313Y0333800D01*
X0451448Y0333800D01*
X0452516Y0334868D01*
X0452516Y0339138D01*
X0451448Y0340205D01*
X0449313Y0340205D01*
X0448245Y0339138D01*
X0454691Y0340205D02*
X0454691Y0334868D01*
X0455759Y0333800D01*
X0457894Y0333800D01*
X0458961Y0334868D01*
X0458961Y0340205D01*
X0461136Y0340205D02*
X0465407Y0340205D01*
X0463272Y0340205D02*
X0463272Y0333800D01*
D12*
X0256500Y0163500D02*
X0255500Y0163500D01*
X0256500Y0163500D02*
X0256500Y0139500D01*
X0255500Y0139500D01*
X0247500Y0139500D02*
X0245500Y0139500D01*
X0237500Y0139500D02*
X0235500Y0139500D01*
X0227500Y0139500D02*
X0225500Y0139500D01*
X0226500Y0139500D01*
X0217500Y0139500D02*
X0215500Y0139500D01*
X0207500Y0139500D02*
X0205500Y0139500D01*
X0197500Y0139500D02*
X0195500Y0139500D01*
X0187500Y0139500D02*
X0185500Y0139500D01*
X0177500Y0139500D02*
X0175500Y0139500D01*
X0167500Y0139500D02*
X0165500Y0139500D01*
X0157500Y0139500D02*
X0155500Y0139500D01*
X0147500Y0139500D02*
X0145500Y0139500D01*
X0137500Y0139500D02*
X0136500Y0139500D01*
X0136500Y0147500D01*
X0136626Y0147502D01*
X0136751Y0147508D01*
X0136876Y0147518D01*
X0137001Y0147532D01*
X0137126Y0147549D01*
X0137250Y0147571D01*
X0137373Y0147596D01*
X0137495Y0147626D01*
X0137616Y0147659D01*
X0137736Y0147696D01*
X0137855Y0147736D01*
X0137972Y0147781D01*
X0138089Y0147829D01*
X0138203Y0147881D01*
X0138316Y0147936D01*
X0138427Y0147995D01*
X0138536Y0148057D01*
X0138643Y0148123D01*
X0138748Y0148192D01*
X0138851Y0148264D01*
X0138952Y0148339D01*
X0139050Y0148418D01*
X0139145Y0148500D01*
X0139238Y0148584D01*
X0139328Y0148672D01*
X0139416Y0148762D01*
X0139500Y0148855D01*
X0139582Y0148950D01*
X0139661Y0149048D01*
X0139736Y0149149D01*
X0139808Y0149252D01*
X0139877Y0149357D01*
X0139943Y0149464D01*
X0140005Y0149573D01*
X0140064Y0149684D01*
X0140119Y0149797D01*
X0140171Y0149911D01*
X0140219Y0150028D01*
X0140264Y0150145D01*
X0140304Y0150264D01*
X0140341Y0150384D01*
X0140374Y0150505D01*
X0140404Y0150627D01*
X0140429Y0150750D01*
X0140451Y0150874D01*
X0140468Y0150999D01*
X0140482Y0151124D01*
X0140492Y0151249D01*
X0140498Y0151374D01*
X0140500Y0151500D01*
X0140498Y0151626D01*
X0140492Y0151751D01*
X0140482Y0151876D01*
X0140468Y0152001D01*
X0140451Y0152126D01*
X0140429Y0152250D01*
X0140404Y0152373D01*
X0140374Y0152495D01*
X0140341Y0152616D01*
X0140304Y0152736D01*
X0140264Y0152855D01*
X0140219Y0152972D01*
X0140171Y0153089D01*
X0140119Y0153203D01*
X0140064Y0153316D01*
X0140005Y0153427D01*
X0139943Y0153536D01*
X0139877Y0153643D01*
X0139808Y0153748D01*
X0139736Y0153851D01*
X0139661Y0153952D01*
X0139582Y0154050D01*
X0139500Y0154145D01*
X0139416Y0154238D01*
X0139328Y0154328D01*
X0139238Y0154416D01*
X0139145Y0154500D01*
X0139050Y0154582D01*
X0138952Y0154661D01*
X0138851Y0154736D01*
X0138748Y0154808D01*
X0138643Y0154877D01*
X0138536Y0154943D01*
X0138427Y0155005D01*
X0138316Y0155064D01*
X0138203Y0155119D01*
X0138089Y0155171D01*
X0137972Y0155219D01*
X0137855Y0155264D01*
X0137736Y0155304D01*
X0137616Y0155341D01*
X0137495Y0155374D01*
X0137373Y0155404D01*
X0137250Y0155429D01*
X0137126Y0155451D01*
X0137001Y0155468D01*
X0136876Y0155482D01*
X0136751Y0155492D01*
X0136626Y0155498D01*
X0136500Y0155500D01*
X0136500Y0163500D01*
X0137500Y0163500D01*
X0145500Y0163500D02*
X0147500Y0163500D01*
X0155500Y0163500D02*
X0157500Y0163500D01*
X0165500Y0163500D02*
X0167500Y0163500D01*
X0175500Y0163500D02*
X0177500Y0163500D01*
X0185500Y0163500D02*
X0187500Y0163500D01*
X0195500Y0163500D02*
X0197500Y0163500D01*
X0205500Y0163500D02*
X0207500Y0163500D01*
X0215500Y0163500D02*
X0217500Y0163500D01*
X0225500Y0163500D02*
X0227500Y0163500D01*
X0226500Y0163500D02*
X0225500Y0163500D01*
X0235500Y0163500D02*
X0237500Y0163500D01*
X0245500Y0163500D02*
X0247500Y0163500D01*
X0276900Y0141108D02*
X0279969Y0138039D01*
X0283039Y0141108D01*
X0283039Y0131900D01*
X0289177Y0131900D02*
X0289177Y0141108D01*
X0286108Y0141108D02*
X0292246Y0141108D01*
X0295316Y0139573D02*
X0295316Y0133435D01*
X0296850Y0131900D01*
X0299920Y0131900D01*
X0301454Y0133435D01*
X0304524Y0131900D02*
X0309128Y0131900D01*
X0310662Y0133435D01*
X0310662Y0139573D01*
X0309128Y0141108D01*
X0304524Y0141108D01*
X0304524Y0131900D01*
X0313731Y0131900D02*
X0316801Y0131900D01*
X0315266Y0131900D02*
X0315266Y0138039D01*
X0313731Y0138039D01*
X0315266Y0141108D02*
X0315266Y0142643D01*
X0321405Y0138039D02*
X0326009Y0138039D01*
X0329078Y0138039D02*
X0333682Y0138039D01*
X0335216Y0136504D01*
X0335216Y0133435D01*
X0333682Y0131900D01*
X0329078Y0131900D01*
X0329078Y0128831D02*
X0329078Y0138039D01*
X0324474Y0134969D02*
X0321405Y0134969D01*
X0319870Y0136504D01*
X0321405Y0138039D01*
X0324474Y0134969D02*
X0326009Y0133435D01*
X0324474Y0131900D01*
X0319870Y0131900D01*
X0338286Y0131900D02*
X0341355Y0131900D01*
X0339820Y0131900D02*
X0339820Y0141108D01*
X0338286Y0141108D01*
X0345959Y0138039D02*
X0349028Y0138039D01*
X0350563Y0136504D01*
X0350563Y0131900D01*
X0345959Y0131900D01*
X0344424Y0133435D01*
X0345959Y0134969D01*
X0350563Y0134969D01*
X0353632Y0133435D02*
X0355167Y0131900D01*
X0359771Y0131900D01*
X0359771Y0130365D02*
X0358236Y0128831D01*
X0356701Y0128831D01*
X0359771Y0130365D02*
X0359771Y0138039D01*
X0353632Y0138039D02*
X0353632Y0133435D01*
X0372048Y0134969D02*
X0375117Y0131900D01*
X0378186Y0134969D01*
X0378186Y0141108D01*
X0381256Y0136504D02*
X0382790Y0138039D01*
X0385860Y0138039D01*
X0387394Y0136504D01*
X0387394Y0134969D01*
X0381256Y0134969D01*
X0381256Y0133435D02*
X0381256Y0136504D01*
X0381256Y0133435D02*
X0382790Y0131900D01*
X0385860Y0131900D01*
X0390464Y0131900D02*
X0390464Y0138039D01*
X0393533Y0138039D02*
X0390464Y0134969D01*
X0393533Y0138039D02*
X0395068Y0138039D01*
X0398137Y0133435D02*
X0399671Y0133435D01*
X0399671Y0131900D01*
X0398137Y0131900D01*
X0398137Y0133435D01*
X0411949Y0131900D02*
X0418087Y0131900D01*
X0415018Y0131900D02*
X0415018Y0141108D01*
X0411949Y0138039D01*
X0421156Y0133435D02*
X0421156Y0131900D01*
X0422691Y0131900D01*
X0422691Y0133435D01*
X0421156Y0133435D01*
X0425760Y0133435D02*
X0427295Y0131900D01*
X0430364Y0131900D01*
X0431899Y0133435D01*
X0431899Y0139573D01*
X0425760Y0133435D01*
X0425760Y0139573D01*
X0427295Y0141108D01*
X0430364Y0141108D01*
X0431899Y0139573D01*
X0372048Y0141108D02*
X0372048Y0134969D01*
X0388427Y0098286D02*
X0386892Y0096751D01*
X0386892Y0093682D01*
X0388427Y0092147D01*
X0389961Y0092147D01*
X0391496Y0093682D01*
X0391496Y0096751D01*
X0393031Y0098286D01*
X0394565Y0098286D01*
X0396100Y0096751D01*
X0396100Y0093682D01*
X0394565Y0092147D01*
X0394565Y0089078D02*
X0388427Y0089078D01*
X0386892Y0087543D01*
X0386892Y0082939D01*
X0396100Y0082939D01*
X0396100Y0087543D01*
X0394565Y0089078D01*
X0396100Y0079870D02*
X0386892Y0079870D01*
X0386892Y0073731D02*
X0396100Y0079870D01*
X0396100Y0073731D02*
X0386892Y0073731D01*
X0388427Y0070662D02*
X0386892Y0069128D01*
X0386892Y0066058D01*
X0388427Y0064524D01*
X0394565Y0064524D01*
X0396100Y0066058D01*
X0396100Y0069128D01*
X0394565Y0070662D01*
X0388427Y0070662D01*
X0388427Y0061454D02*
X0386892Y0059920D01*
X0386892Y0056850D01*
X0388427Y0055316D01*
X0394565Y0055316D01*
X0396100Y0056850D01*
X0396100Y0059920D01*
X0394565Y0061454D01*
X0396100Y0052246D02*
X0396100Y0046108D01*
X0386892Y0046108D01*
X0386892Y0052246D01*
X0391496Y0049177D02*
X0391496Y0046108D01*
X0393031Y0043039D02*
X0391496Y0041504D01*
X0391496Y0038435D01*
X0389961Y0036900D01*
X0388427Y0036900D01*
X0386892Y0038435D01*
X0386892Y0041504D01*
X0388427Y0043039D01*
X0393031Y0043039D02*
X0394565Y0043039D01*
X0396100Y0041504D01*
X0396100Y0038435D01*
X0394565Y0036900D01*
X0511892Y0036900D02*
X0511892Y0043039D01*
X0511892Y0046108D02*
X0511892Y0050712D01*
X0513427Y0052246D01*
X0516496Y0052246D01*
X0518031Y0050712D01*
X0518031Y0046108D01*
X0521100Y0046108D02*
X0511892Y0046108D01*
X0518031Y0049177D02*
X0521100Y0052246D01*
X0521100Y0055316D02*
X0514961Y0055316D01*
X0511892Y0058385D01*
X0514961Y0061454D01*
X0521100Y0061454D01*
X0521100Y0064524D02*
X0511892Y0064524D01*
X0514961Y0067593D01*
X0511892Y0070662D01*
X0521100Y0070662D01*
X0521100Y0073731D02*
X0511892Y0073731D01*
X0511892Y0079870D01*
X0513427Y0082939D02*
X0514961Y0082939D01*
X0516496Y0084474D01*
X0516496Y0087543D01*
X0518031Y0089078D01*
X0519565Y0089078D01*
X0521100Y0087543D01*
X0521100Y0084474D01*
X0519565Y0082939D01*
X0521100Y0079870D02*
X0521100Y0073731D01*
X0516496Y0073731D02*
X0516496Y0076801D01*
X0513427Y0082939D02*
X0511892Y0084474D01*
X0511892Y0087543D01*
X0513427Y0089078D01*
X0516496Y0061454D02*
X0516496Y0055316D01*
X0516496Y0039969D02*
X0516496Y0036900D01*
X0521100Y0036900D02*
X0511892Y0036900D01*
X0301454Y0139573D02*
X0299920Y0141108D01*
X0296850Y0141108D01*
X0295316Y0139573D01*
X0276900Y0141108D02*
X0276900Y0131900D01*
X0269565Y0095216D02*
X0268031Y0095216D01*
X0266496Y0093682D01*
X0266496Y0090613D01*
X0264961Y0089078D01*
X0263427Y0089078D01*
X0261892Y0090613D01*
X0261892Y0093682D01*
X0263427Y0095216D01*
X0269565Y0095216D02*
X0271100Y0093682D01*
X0271100Y0090613D01*
X0269565Y0089078D01*
X0271100Y0086009D02*
X0271100Y0079870D01*
X0261892Y0079870D01*
X0261892Y0086009D01*
X0266496Y0082939D02*
X0266496Y0079870D01*
X0261892Y0076801D02*
X0261892Y0070662D01*
X0261892Y0067593D02*
X0269565Y0067593D01*
X0271100Y0066058D01*
X0271100Y0062989D01*
X0269565Y0061454D01*
X0261892Y0061454D01*
X0261892Y0058385D02*
X0271100Y0058385D01*
X0261892Y0052246D01*
X0271100Y0052246D01*
X0271100Y0049177D02*
X0271100Y0046108D01*
X0271100Y0047642D02*
X0261892Y0047642D01*
X0261892Y0046108D02*
X0261892Y0049177D01*
X0261892Y0043039D02*
X0271100Y0043039D01*
X0271100Y0036900D02*
X0261892Y0036900D01*
X0264961Y0039969D01*
X0261892Y0043039D01*
X0261892Y0073731D02*
X0271100Y0073731D01*
X0146100Y0073335D02*
X0146100Y0070266D01*
X0144565Y0068731D01*
X0146100Y0065662D02*
X0143031Y0062593D01*
X0143031Y0064128D02*
X0143031Y0059524D01*
X0146100Y0059524D02*
X0136892Y0059524D01*
X0136892Y0064128D01*
X0138427Y0065662D01*
X0141496Y0065662D01*
X0143031Y0064128D01*
X0139961Y0068731D02*
X0138427Y0068731D01*
X0136892Y0070266D01*
X0136892Y0073335D01*
X0138427Y0074870D01*
X0141496Y0073335D02*
X0141496Y0070266D01*
X0139961Y0068731D01*
X0141496Y0073335D02*
X0143031Y0074870D01*
X0144565Y0074870D01*
X0146100Y0073335D01*
X0144565Y0056454D02*
X0136892Y0056454D01*
X0144565Y0056454D02*
X0146100Y0054920D01*
X0146100Y0051850D01*
X0144565Y0050316D01*
X0136892Y0050316D01*
X0138427Y0047246D02*
X0136892Y0045712D01*
X0136892Y0042642D01*
X0138427Y0041108D01*
X0144565Y0041108D01*
X0146100Y0042642D01*
X0146100Y0045712D01*
X0144565Y0047246D01*
X0138427Y0047246D01*
X0136892Y0038039D02*
X0146100Y0038039D01*
X0141496Y0038039D02*
X0141496Y0031900D01*
X0146100Y0031900D02*
X0136892Y0031900D01*
X0108500Y0121500D02*
X0084500Y0121500D01*
X0084500Y0122500D01*
X0108500Y0122500D02*
X0108500Y0121500D01*
X0060500Y0158000D02*
X0060500Y0185000D01*
X0060497Y0185219D01*
X0060489Y0185438D01*
X0060476Y0185657D01*
X0060457Y0185875D01*
X0060433Y0186093D01*
X0060404Y0186310D01*
X0060370Y0186527D01*
X0060330Y0186742D01*
X0060285Y0186957D01*
X0060234Y0187170D01*
X0060179Y0187382D01*
X0060118Y0187593D01*
X0060053Y0187802D01*
X0059982Y0188009D01*
X0059906Y0188215D01*
X0059825Y0188419D01*
X0059740Y0188621D01*
X0059649Y0188820D01*
X0059554Y0189017D01*
X0059453Y0189212D01*
X0059348Y0189405D01*
X0059239Y0189595D01*
X0059125Y0189782D01*
X0059006Y0189966D01*
X0058883Y0190147D01*
X0058755Y0190325D01*
X0058623Y0190501D01*
X0058487Y0190672D01*
X0058347Y0190841D01*
X0058203Y0191006D01*
X0058055Y0191167D01*
X0057903Y0191325D01*
X0057747Y0191479D01*
X0057587Y0191629D01*
X0057424Y0191776D01*
X0057257Y0191918D01*
X0057087Y0192056D01*
X0056913Y0192190D01*
X0056737Y0192320D01*
X0056557Y0192445D01*
X0056374Y0192566D01*
X0056188Y0192682D01*
X0056000Y0192794D01*
X0055809Y0192901D01*
X0055615Y0193004D01*
X0055419Y0193102D01*
X0055221Y0193195D01*
X0055020Y0193283D01*
X0054817Y0193366D01*
X0054612Y0193445D01*
X0054406Y0193518D01*
X0054198Y0193586D01*
X0053988Y0193649D01*
X0053776Y0193707D01*
X0053564Y0193760D01*
X0053350Y0193808D01*
X0053135Y0193850D01*
X0052919Y0193887D01*
X0052702Y0193919D01*
X0052484Y0193946D01*
X0052266Y0193967D01*
X0052048Y0193983D01*
X0051829Y0193994D01*
X0051610Y0193999D01*
X0051390Y0193999D01*
X0051171Y0193994D01*
X0050952Y0193983D01*
X0050734Y0193967D01*
X0050516Y0193946D01*
X0050298Y0193919D01*
X0050081Y0193887D01*
X0049865Y0193850D01*
X0049650Y0193808D01*
X0049436Y0193760D01*
X0049224Y0193707D01*
X0049012Y0193649D01*
X0048802Y0193586D01*
X0048594Y0193518D01*
X0048388Y0193445D01*
X0048183Y0193366D01*
X0047980Y0193283D01*
X0047779Y0193195D01*
X0047581Y0193102D01*
X0047385Y0193004D01*
X0047191Y0192901D01*
X0047000Y0192794D01*
X0046812Y0192682D01*
X0046626Y0192566D01*
X0046443Y0192445D01*
X0046263Y0192320D01*
X0046087Y0192190D01*
X0045913Y0192056D01*
X0045743Y0191918D01*
X0045576Y0191776D01*
X0045413Y0191629D01*
X0045253Y0191479D01*
X0045097Y0191325D01*
X0044945Y0191167D01*
X0044797Y0191006D01*
X0044653Y0190841D01*
X0044513Y0190672D01*
X0044377Y0190501D01*
X0044245Y0190325D01*
X0044117Y0190147D01*
X0043994Y0189966D01*
X0043875Y0189782D01*
X0043761Y0189595D01*
X0043652Y0189405D01*
X0043547Y0189212D01*
X0043446Y0189017D01*
X0043351Y0188820D01*
X0043260Y0188621D01*
X0043175Y0188419D01*
X0043094Y0188215D01*
X0043018Y0188009D01*
X0042947Y0187802D01*
X0042882Y0187593D01*
X0042821Y0187382D01*
X0042766Y0187170D01*
X0042715Y0186957D01*
X0042670Y0186742D01*
X0042630Y0186527D01*
X0042596Y0186310D01*
X0042567Y0186093D01*
X0042543Y0185875D01*
X0042524Y0185657D01*
X0042511Y0185438D01*
X0042503Y0185219D01*
X0042500Y0185000D01*
X0042500Y0158000D01*
X0042503Y0157781D01*
X0042511Y0157562D01*
X0042524Y0157343D01*
X0042543Y0157125D01*
X0042567Y0156907D01*
X0042596Y0156690D01*
X0042630Y0156473D01*
X0042670Y0156258D01*
X0042715Y0156043D01*
X0042766Y0155830D01*
X0042821Y0155618D01*
X0042882Y0155407D01*
X0042947Y0155198D01*
X0043018Y0154991D01*
X0043094Y0154785D01*
X0043175Y0154581D01*
X0043260Y0154379D01*
X0043351Y0154180D01*
X0043446Y0153983D01*
X0043547Y0153788D01*
X0043652Y0153595D01*
X0043761Y0153405D01*
X0043875Y0153218D01*
X0043994Y0153034D01*
X0044117Y0152853D01*
X0044245Y0152675D01*
X0044377Y0152499D01*
X0044513Y0152328D01*
X0044653Y0152159D01*
X0044797Y0151994D01*
X0044945Y0151833D01*
X0045097Y0151675D01*
X0045253Y0151521D01*
X0045413Y0151371D01*
X0045576Y0151224D01*
X0045743Y0151082D01*
X0045913Y0150944D01*
X0046087Y0150810D01*
X0046263Y0150680D01*
X0046443Y0150555D01*
X0046626Y0150434D01*
X0046812Y0150318D01*
X0047000Y0150206D01*
X0047191Y0150099D01*
X0047385Y0149996D01*
X0047581Y0149898D01*
X0047779Y0149805D01*
X0047980Y0149717D01*
X0048183Y0149634D01*
X0048388Y0149555D01*
X0048594Y0149482D01*
X0048802Y0149414D01*
X0049012Y0149351D01*
X0049224Y0149293D01*
X0049436Y0149240D01*
X0049650Y0149192D01*
X0049865Y0149150D01*
X0050081Y0149113D01*
X0050298Y0149081D01*
X0050516Y0149054D01*
X0050734Y0149033D01*
X0050952Y0149017D01*
X0051171Y0149006D01*
X0051390Y0149001D01*
X0051610Y0149001D01*
X0051829Y0149006D01*
X0052048Y0149017D01*
X0052266Y0149033D01*
X0052484Y0149054D01*
X0052702Y0149081D01*
X0052919Y0149113D01*
X0053135Y0149150D01*
X0053350Y0149192D01*
X0053564Y0149240D01*
X0053776Y0149293D01*
X0053988Y0149351D01*
X0054198Y0149414D01*
X0054406Y0149482D01*
X0054612Y0149555D01*
X0054817Y0149634D01*
X0055020Y0149717D01*
X0055221Y0149805D01*
X0055419Y0149898D01*
X0055615Y0149996D01*
X0055809Y0150099D01*
X0056000Y0150206D01*
X0056188Y0150318D01*
X0056374Y0150434D01*
X0056557Y0150555D01*
X0056737Y0150680D01*
X0056913Y0150810D01*
X0057087Y0150944D01*
X0057257Y0151082D01*
X0057424Y0151224D01*
X0057587Y0151371D01*
X0057747Y0151521D01*
X0057903Y0151675D01*
X0058055Y0151833D01*
X0058203Y0151994D01*
X0058347Y0152159D01*
X0058487Y0152328D01*
X0058623Y0152499D01*
X0058755Y0152675D01*
X0058883Y0152853D01*
X0059006Y0153034D01*
X0059125Y0153218D01*
X0059239Y0153405D01*
X0059348Y0153595D01*
X0059453Y0153788D01*
X0059554Y0153983D01*
X0059649Y0154180D01*
X0059740Y0154379D01*
X0059825Y0154581D01*
X0059906Y0154785D01*
X0059982Y0154991D01*
X0060053Y0155198D01*
X0060118Y0155407D01*
X0060179Y0155618D01*
X0060234Y0155830D01*
X0060285Y0156043D01*
X0060330Y0156258D01*
X0060370Y0156473D01*
X0060404Y0156690D01*
X0060433Y0156907D01*
X0060457Y0157125D01*
X0060476Y0157343D01*
X0060489Y0157562D01*
X0060497Y0157781D01*
X0060500Y0158000D01*
X0034000Y0166500D02*
X0029000Y0166500D01*
X0029000Y0186500D02*
X0034000Y0186500D01*
X0133606Y0182937D02*
X0179394Y0182937D01*
X0179394Y0200063D01*
X0133606Y0200063D01*
X0133606Y0182937D01*
X0108500Y0260500D02*
X0108500Y0261500D01*
X0101500Y0261500D01*
X0101498Y0261360D01*
X0101492Y0261220D01*
X0101482Y0261080D01*
X0101469Y0260940D01*
X0101451Y0260801D01*
X0101429Y0260662D01*
X0101404Y0260525D01*
X0101375Y0260387D01*
X0101342Y0260251D01*
X0101305Y0260116D01*
X0101264Y0259982D01*
X0101219Y0259849D01*
X0101171Y0259717D01*
X0101119Y0259587D01*
X0101064Y0259458D01*
X0101005Y0259331D01*
X0100942Y0259205D01*
X0100876Y0259081D01*
X0100807Y0258960D01*
X0100734Y0258840D01*
X0100657Y0258722D01*
X0100578Y0258607D01*
X0100495Y0258493D01*
X0100409Y0258383D01*
X0100320Y0258274D01*
X0100228Y0258168D01*
X0100133Y0258065D01*
X0100036Y0257964D01*
X0099935Y0257867D01*
X0099832Y0257772D01*
X0099726Y0257680D01*
X0099617Y0257591D01*
X0099507Y0257505D01*
X0099393Y0257422D01*
X0099278Y0257343D01*
X0099160Y0257266D01*
X0099040Y0257193D01*
X0098919Y0257124D01*
X0098795Y0257058D01*
X0098669Y0256995D01*
X0098542Y0256936D01*
X0098413Y0256881D01*
X0098283Y0256829D01*
X0098151Y0256781D01*
X0098018Y0256736D01*
X0097884Y0256695D01*
X0097749Y0256658D01*
X0097613Y0256625D01*
X0097475Y0256596D01*
X0097338Y0256571D01*
X0097199Y0256549D01*
X0097060Y0256531D01*
X0096920Y0256518D01*
X0096780Y0256508D01*
X0096640Y0256502D01*
X0096500Y0256500D01*
X0096360Y0256502D01*
X0096220Y0256508D01*
X0096080Y0256518D01*
X0095940Y0256531D01*
X0095801Y0256549D01*
X0095662Y0256571D01*
X0095525Y0256596D01*
X0095387Y0256625D01*
X0095251Y0256658D01*
X0095116Y0256695D01*
X0094982Y0256736D01*
X0094849Y0256781D01*
X0094717Y0256829D01*
X0094587Y0256881D01*
X0094458Y0256936D01*
X0094331Y0256995D01*
X0094205Y0257058D01*
X0094081Y0257124D01*
X0093960Y0257193D01*
X0093840Y0257266D01*
X0093722Y0257343D01*
X0093607Y0257422D01*
X0093493Y0257505D01*
X0093383Y0257591D01*
X0093274Y0257680D01*
X0093168Y0257772D01*
X0093065Y0257867D01*
X0092964Y0257964D01*
X0092867Y0258065D01*
X0092772Y0258168D01*
X0092680Y0258274D01*
X0092591Y0258383D01*
X0092505Y0258493D01*
X0092422Y0258607D01*
X0092343Y0258722D01*
X0092266Y0258840D01*
X0092193Y0258960D01*
X0092124Y0259081D01*
X0092058Y0259205D01*
X0091995Y0259331D01*
X0091936Y0259458D01*
X0091881Y0259587D01*
X0091829Y0259717D01*
X0091781Y0259849D01*
X0091736Y0259982D01*
X0091695Y0260116D01*
X0091658Y0260251D01*
X0091625Y0260387D01*
X0091596Y0260525D01*
X0091571Y0260662D01*
X0091549Y0260801D01*
X0091531Y0260940D01*
X0091518Y0261080D01*
X0091508Y0261220D01*
X0091502Y0261360D01*
X0091500Y0261500D01*
X0084500Y0261500D01*
X0084500Y0260500D01*
X0069217Y0307563D02*
X0060949Y0307563D01*
X0069217Y0307563D02*
X0069217Y0349689D01*
X0033783Y0349689D01*
X0033783Y0328823D01*
X0033783Y0310319D02*
X0033783Y0307563D01*
X0042051Y0307563D01*
X0155500Y0271500D02*
X0156500Y0271500D01*
X0156500Y0274500D01*
X0176500Y0274500D01*
X0176500Y0271500D01*
X0177500Y0271500D01*
X0176500Y0271500D02*
X0176500Y0268500D01*
X0156500Y0268500D01*
X0156500Y0271500D01*
X0159000Y0269000D02*
X0159000Y0274000D01*
D13*
X0277300Y0225716D02*
X0277300Y0207300D01*
X0289577Y0207300D01*
X0295716Y0207300D02*
X0307993Y0225716D01*
X0314131Y0216508D02*
X0326409Y0216508D01*
X0332547Y0225716D02*
X0341755Y0225716D01*
X0344824Y0222646D01*
X0344824Y0210369D01*
X0341755Y0207300D01*
X0332547Y0207300D01*
X0332547Y0225716D01*
X0350963Y0225716D02*
X0350963Y0207300D01*
X0363240Y0207300D01*
X0369379Y0210369D02*
X0372448Y0207300D01*
X0378587Y0207300D01*
X0381656Y0210369D01*
X0381656Y0213439D01*
X0378587Y0216508D01*
X0372448Y0216508D01*
X0369379Y0219577D01*
X0369379Y0222646D01*
X0372448Y0225716D01*
X0378587Y0225716D01*
X0381656Y0222646D01*
X0387794Y0225716D02*
X0393933Y0225716D01*
X0390864Y0225716D02*
X0390864Y0207300D01*
X0393933Y0207300D02*
X0387794Y0207300D01*
X0400072Y0210369D02*
X0403141Y0207300D01*
X0409279Y0207300D01*
X0412349Y0210369D01*
X0412349Y0216508D01*
X0406210Y0216508D01*
X0400072Y0222646D02*
X0400072Y0210369D01*
X0400072Y0222646D02*
X0403141Y0225716D01*
X0409279Y0225716D01*
X0412349Y0222646D01*
X0418487Y0225716D02*
X0430764Y0207300D01*
X0430764Y0225716D01*
X0436903Y0222646D02*
X0436903Y0219577D01*
X0439972Y0216508D01*
X0446111Y0216508D01*
X0449180Y0213439D01*
X0449180Y0210369D01*
X0446111Y0207300D01*
X0439972Y0207300D01*
X0436903Y0210369D01*
X0436903Y0222646D02*
X0439972Y0225716D01*
X0446111Y0225716D01*
X0449180Y0222646D01*
X0455319Y0210369D02*
X0458388Y0210369D01*
X0458388Y0207300D01*
X0455319Y0207300D01*
X0455319Y0210369D01*
X0464527Y0210369D02*
X0467596Y0207300D01*
X0473734Y0207300D01*
X0476804Y0210369D01*
X0482942Y0210369D02*
X0486012Y0207300D01*
X0492150Y0207300D01*
X0495220Y0210369D01*
X0495220Y0222646D01*
X0492150Y0225716D01*
X0486012Y0225716D01*
X0482942Y0222646D01*
X0482942Y0210369D01*
X0476804Y0222646D02*
X0473734Y0225716D01*
X0467596Y0225716D01*
X0464527Y0222646D01*
X0464527Y0210369D01*
X0501358Y0207300D02*
X0501358Y0225716D01*
X0507497Y0219577D01*
X0513635Y0225716D01*
X0513635Y0207300D01*
X0526500Y0209875D02*
X0526500Y0220917D01*
X0526500Y0226822D02*
X0526500Y0237865D01*
X0526500Y0243770D02*
X0526500Y0254813D01*
X0526500Y0260718D02*
X0526500Y0271761D01*
X0526500Y0277666D02*
X0526500Y0288708D01*
X0526500Y0294614D02*
X0526500Y0305656D01*
X0526500Y0311562D02*
X0526500Y0322604D01*
X0526500Y0328510D02*
X0526500Y0339552D01*
X0526500Y0345458D02*
X0526500Y0356500D01*
X0418487Y0225716D02*
X0418487Y0207300D01*
X0363240Y0225716D02*
X0350963Y0225716D01*
X0350963Y0216508D02*
X0357102Y0216508D01*
X0307993Y0207300D02*
X0295716Y0225716D01*
X0526500Y0203969D02*
X0526500Y0192927D01*
X0526500Y0187021D02*
X0526500Y0175979D01*
X0526500Y0170073D02*
X0526500Y0159031D01*
X0526500Y0153125D02*
X0526500Y0142083D01*
X0526500Y0136178D02*
X0526500Y0125135D01*
X0526500Y0119230D02*
X0526500Y0108187D01*
X0526500Y0102282D02*
X0526500Y0091239D01*
X0526500Y0085334D02*
X0526500Y0074292D01*
X0526500Y0068386D02*
X0526500Y0057344D01*
X0526500Y0051438D02*
X0526500Y0040396D01*
X0526500Y0034490D02*
X0526500Y0023448D01*
X0526500Y0017542D02*
X0526500Y0006500D01*
X0011500Y0006500D02*
X0011500Y0017542D01*
X0011500Y0023448D02*
X0011500Y0034490D01*
X0011500Y0040396D02*
X0011500Y0051438D01*
X0011500Y0057344D02*
X0011500Y0068386D01*
X0011500Y0074292D02*
X0011500Y0085334D01*
X0011500Y0091239D02*
X0011500Y0102282D01*
X0011500Y0108187D02*
X0011500Y0119230D01*
X0011500Y0125135D02*
X0011500Y0136178D01*
X0011500Y0142083D02*
X0011500Y0153125D01*
X0011500Y0159031D02*
X0011500Y0170073D01*
X0011500Y0175979D02*
X0011500Y0187021D01*
X0011500Y0192927D02*
X0011500Y0203969D01*
X0011500Y0209875D02*
X0011500Y0220917D01*
X0011500Y0226822D02*
X0011500Y0237865D01*
X0011500Y0243770D02*
X0011500Y0254813D01*
X0011500Y0260718D02*
X0011500Y0271761D01*
X0011500Y0277666D02*
X0011500Y0288708D01*
X0011500Y0294614D02*
X0011500Y0305656D01*
X0011500Y0311562D02*
X0011500Y0322604D01*
X0011500Y0328510D02*
X0011500Y0339552D01*
X0011500Y0345458D02*
X0011500Y0356500D01*
D14*
X0276500Y0231500D02*
X0291500Y0231500D01*
X0306500Y0261500D01*
X0321500Y0231500D01*
X0336500Y0231500D01*
X0346500Y0231500D02*
X0356500Y0246500D01*
X0391500Y0246500D01*
X0401500Y0261500D01*
X0416500Y0261500D01*
X0391500Y0246500D02*
X0401500Y0231500D01*
X0416500Y0231500D01*
X0391500Y0246500D02*
X0381500Y0231500D01*
X0371500Y0231500D02*
X0346500Y0231500D01*
X0356500Y0246500D02*
X0346500Y0261500D01*
X0371500Y0261500D01*
X0381500Y0261500D02*
X0391500Y0246500D01*
D15*
X0390367Y0266500D02*
X0394500Y0266500D01*
X0398500Y0266500D02*
X0402633Y0266500D01*
X0406633Y0266500D02*
X0410767Y0266500D01*
X0414767Y0266500D02*
X0418900Y0266500D01*
X0422900Y0266500D02*
X0427033Y0266500D01*
X0431033Y0266500D02*
X0435167Y0266500D01*
X0439167Y0266500D02*
X0443300Y0266500D01*
X0447300Y0266500D02*
X0451433Y0266500D01*
X0455433Y0266500D02*
X0459567Y0266500D01*
X0463567Y0266500D02*
X0467700Y0266500D01*
X0471700Y0266500D02*
X0475833Y0266500D01*
X0479833Y0266500D02*
X0483967Y0266500D01*
X0487967Y0266500D02*
X0492100Y0266500D01*
X0496100Y0266500D02*
X0500233Y0266500D01*
X0504233Y0266500D02*
X0508367Y0266500D01*
X0512367Y0266500D02*
X0516500Y0266500D01*
X0521500Y0261500D01*
X0521500Y0257125D01*
X0521500Y0253125D02*
X0521500Y0248750D01*
X0521500Y0244750D02*
X0521500Y0240375D01*
X0521500Y0236375D02*
X0521500Y0232000D01*
X0521500Y0228000D02*
X0521500Y0223625D01*
X0521500Y0219625D02*
X0521500Y0215250D01*
X0521500Y0211250D02*
X0521500Y0206875D01*
X0521500Y0202875D02*
X0521500Y0198500D01*
X0521500Y0194500D02*
X0521500Y0190125D01*
X0521500Y0186125D02*
X0521500Y0181750D01*
X0521500Y0177750D02*
X0521500Y0173375D01*
X0521500Y0169375D02*
X0521500Y0165000D01*
X0521500Y0161000D02*
X0521500Y0156625D01*
X0521500Y0152625D02*
X0521500Y0148250D01*
X0521500Y0144250D02*
X0521500Y0139875D01*
X0521500Y0135875D02*
X0521500Y0131500D01*
X0516500Y0126500D01*
X0512367Y0126500D01*
X0508367Y0126500D02*
X0504233Y0126500D01*
X0500233Y0126500D02*
X0496100Y0126500D01*
X0492100Y0126500D02*
X0487967Y0126500D01*
X0483967Y0126500D02*
X0479833Y0126500D01*
X0475833Y0126500D02*
X0471700Y0126500D01*
X0467700Y0126500D02*
X0463567Y0126500D01*
X0459567Y0126500D02*
X0455433Y0126500D01*
X0451433Y0126500D02*
X0447300Y0126500D01*
X0443300Y0126500D02*
X0439167Y0126500D01*
X0435167Y0126500D02*
X0431033Y0126500D01*
X0427033Y0126500D02*
X0422900Y0126500D01*
X0418900Y0126500D02*
X0414767Y0126500D01*
X0410767Y0126500D02*
X0406633Y0126500D01*
X0402633Y0126500D02*
X0398500Y0126500D01*
X0394500Y0126500D02*
X0390367Y0126500D01*
X0386367Y0126500D02*
X0382233Y0126500D01*
X0378233Y0126500D02*
X0374100Y0126500D01*
X0370100Y0126500D02*
X0365967Y0126500D01*
X0361967Y0126500D02*
X0357833Y0126500D01*
X0353833Y0126500D02*
X0349700Y0126500D01*
X0345700Y0126500D02*
X0341567Y0126500D01*
X0337567Y0126500D02*
X0333433Y0126500D01*
X0329433Y0126500D02*
X0325300Y0126500D01*
X0321300Y0126500D02*
X0317167Y0126500D01*
X0313167Y0126500D02*
X0309033Y0126500D01*
X0305033Y0126500D02*
X0300900Y0126500D01*
X0296900Y0126500D02*
X0292767Y0126500D01*
X0288767Y0126500D02*
X0284633Y0126500D01*
X0280633Y0126500D02*
X0276500Y0126500D01*
X0271500Y0131500D01*
X0271500Y0135875D01*
X0271500Y0139875D02*
X0271500Y0144250D01*
X0271500Y0148250D02*
X0271500Y0152625D01*
X0271500Y0156625D02*
X0271500Y0161000D01*
X0271500Y0165000D02*
X0271500Y0169375D01*
X0271500Y0173375D02*
X0271500Y0177750D01*
X0271500Y0181750D02*
X0271500Y0186125D01*
X0271500Y0190125D02*
X0271500Y0194500D01*
X0271500Y0198500D02*
X0271500Y0202875D01*
X0271500Y0206875D02*
X0271500Y0211250D01*
X0271500Y0215250D02*
X0271500Y0219625D01*
X0271500Y0223625D02*
X0271500Y0228000D01*
X0271500Y0232000D02*
X0271500Y0236375D01*
X0271500Y0240375D02*
X0271500Y0244750D01*
X0271500Y0248750D02*
X0271500Y0253125D01*
X0271500Y0257125D02*
X0271500Y0261500D01*
X0276500Y0266500D01*
X0280633Y0266500D01*
X0284633Y0266500D02*
X0288767Y0266500D01*
X0292767Y0266500D02*
X0296900Y0266500D01*
X0300900Y0266500D02*
X0305033Y0266500D01*
X0309033Y0266500D02*
X0313167Y0266500D01*
X0317167Y0266500D02*
X0321300Y0266500D01*
X0325300Y0266500D02*
X0329433Y0266500D01*
X0333433Y0266500D02*
X0337567Y0266500D01*
X0341567Y0266500D02*
X0345700Y0266500D01*
X0349700Y0266500D02*
X0353833Y0266500D01*
X0357833Y0266500D02*
X0361967Y0266500D01*
X0365967Y0266500D02*
X0370100Y0266500D01*
X0374100Y0266500D02*
X0378233Y0266500D01*
X0382233Y0266500D02*
X0386367Y0266500D01*
D16*
X0362905Y0323700D02*
X0361037Y0323700D01*
X0360103Y0324634D01*
X0360103Y0326502D02*
X0361971Y0327437D01*
X0362905Y0327437D01*
X0363839Y0326502D01*
X0363839Y0324634D01*
X0362905Y0323700D01*
X0360103Y0326502D02*
X0360103Y0329305D01*
X0363839Y0329305D01*
X0357762Y0326502D02*
X0354026Y0326502D01*
X0351685Y0323700D02*
X0351685Y0329305D01*
X0347949Y0329305D02*
X0347949Y0323700D01*
X0345765Y0323700D02*
X0343897Y0323700D01*
X0344831Y0323700D02*
X0344831Y0329305D01*
X0343897Y0329305D02*
X0345765Y0329305D01*
X0347949Y0329305D02*
X0351685Y0323700D01*
X0341556Y0324634D02*
X0341556Y0328371D01*
X0340622Y0329305D01*
X0337820Y0329305D01*
X0337820Y0323700D01*
X0340622Y0323700D01*
X0341556Y0324634D01*
X0273839Y0324634D02*
X0272905Y0323700D01*
X0271037Y0323700D01*
X0270103Y0324634D01*
X0270103Y0326502D02*
X0271971Y0327437D01*
X0272905Y0327437D01*
X0273839Y0326502D01*
X0273839Y0324634D01*
X0270103Y0326502D02*
X0270103Y0329305D01*
X0273839Y0329305D01*
X0267762Y0326502D02*
X0264026Y0326502D01*
X0261685Y0323700D02*
X0261685Y0329305D01*
X0257949Y0329305D02*
X0257949Y0323700D01*
X0255765Y0323700D02*
X0253897Y0323700D01*
X0254831Y0323700D02*
X0254831Y0329305D01*
X0253897Y0329305D02*
X0255765Y0329305D01*
X0257949Y0329305D02*
X0261685Y0323700D01*
X0251556Y0324634D02*
X0251556Y0328371D01*
X0250622Y0329305D01*
X0247820Y0329305D01*
X0247820Y0323700D01*
X0250622Y0323700D01*
X0251556Y0324634D01*
X0183839Y0324634D02*
X0182905Y0323700D01*
X0181037Y0323700D01*
X0180103Y0324634D01*
X0180103Y0326502D02*
X0181971Y0327437D01*
X0182905Y0327437D01*
X0183839Y0326502D01*
X0183839Y0324634D01*
X0180103Y0326502D02*
X0180103Y0329305D01*
X0183839Y0329305D01*
X0177762Y0326502D02*
X0174026Y0326502D01*
X0171685Y0323700D02*
X0171685Y0329305D01*
X0167949Y0329305D02*
X0171685Y0323700D01*
X0167949Y0323700D02*
X0167949Y0329305D01*
X0165765Y0329305D02*
X0163897Y0329305D01*
X0164831Y0329305D02*
X0164831Y0323700D01*
X0163897Y0323700D02*
X0165765Y0323700D01*
X0161556Y0324634D02*
X0161556Y0328371D01*
X0160622Y0329305D01*
X0157820Y0329305D01*
X0157820Y0323700D01*
X0160622Y0323700D01*
X0161556Y0324634D01*
X0186500Y0262000D02*
X0196500Y0262000D01*
X0196500Y0241000D01*
X0186500Y0241000D01*
X0186500Y0262000D01*
X0189000Y0251500D02*
X0194000Y0251500D01*
X0256500Y0241000D02*
X0256500Y0262000D01*
X0266500Y0262000D01*
X0266500Y0241000D01*
X0256500Y0241000D01*
X0259000Y0251500D02*
X0264000Y0251500D01*
X0207000Y0206500D02*
X0207000Y0196500D01*
X0186000Y0196500D01*
X0186000Y0206500D01*
X0207000Y0206500D01*
X0196500Y0204000D02*
X0196500Y0199000D01*
X0131500Y0204500D02*
X0131500Y0183500D01*
X0121500Y0183500D01*
X0121500Y0204500D01*
X0131500Y0204500D01*
X0129000Y0194000D02*
X0124000Y0194000D01*
X0121500Y0182000D02*
X0131500Y0182000D01*
X0131500Y0161000D01*
X0121500Y0161000D01*
X0121500Y0182000D01*
X0124000Y0171500D02*
X0129000Y0171500D01*
X0074000Y0181000D02*
X0064000Y0181000D01*
X0064000Y0202000D01*
X0074000Y0202000D01*
X0074000Y0181000D01*
X0071500Y0191500D02*
X0066500Y0191500D01*
X0427820Y0323700D02*
X0430622Y0323700D01*
X0431556Y0324634D01*
X0431556Y0328371D01*
X0430622Y0329305D01*
X0427820Y0329305D01*
X0427820Y0323700D01*
X0433897Y0323700D02*
X0435765Y0323700D01*
X0434831Y0323700D02*
X0434831Y0329305D01*
X0433897Y0329305D02*
X0435765Y0329305D01*
X0437949Y0329305D02*
X0437949Y0323700D01*
X0441685Y0323700D02*
X0437949Y0329305D01*
X0441685Y0329305D02*
X0441685Y0323700D01*
X0444026Y0326502D02*
X0447762Y0326502D01*
X0450103Y0326502D02*
X0451971Y0327437D01*
X0452905Y0327437D01*
X0453839Y0326502D01*
X0453839Y0324634D01*
X0452905Y0323700D01*
X0451037Y0323700D01*
X0450103Y0324634D01*
X0450103Y0326502D02*
X0450103Y0329305D01*
X0453839Y0329305D01*
D17*
X0472492Y0293804D02*
X0472492Y0289967D01*
X0473259Y0289200D01*
X0474794Y0289200D01*
X0475561Y0289967D01*
X0475561Y0293804D01*
X0477096Y0293804D02*
X0477096Y0291502D01*
X0478631Y0292269D01*
X0479398Y0292269D01*
X0480165Y0291502D01*
X0480165Y0289967D01*
X0479398Y0289200D01*
X0477863Y0289200D01*
X0477096Y0289967D01*
X0477096Y0293804D02*
X0480165Y0293804D01*
X0471300Y0284596D02*
X0470533Y0284596D01*
X0467463Y0287665D01*
X0466696Y0287665D01*
X0466696Y0284596D01*
X0467463Y0283061D02*
X0468998Y0283061D01*
X0469765Y0282294D01*
X0469765Y0279992D01*
X0469765Y0281527D02*
X0471300Y0283061D01*
X0471300Y0279992D02*
X0466696Y0279992D01*
X0466696Y0282294D01*
X0467463Y0283061D01*
X0431300Y0283061D02*
X0429765Y0281527D01*
X0429765Y0282294D02*
X0429765Y0279992D01*
X0431300Y0279992D02*
X0426696Y0279992D01*
X0426696Y0282294D01*
X0427463Y0283061D01*
X0428998Y0283061D01*
X0429765Y0282294D01*
X0428998Y0284596D02*
X0428998Y0286898D01*
X0429765Y0287665D01*
X0430533Y0287665D01*
X0431300Y0286898D01*
X0431300Y0285363D01*
X0430533Y0284596D01*
X0428998Y0284596D01*
X0427463Y0286131D01*
X0426696Y0287665D01*
X0390165Y0291502D02*
X0387096Y0291502D01*
X0389398Y0293804D01*
X0389398Y0289200D01*
X0385561Y0289967D02*
X0385561Y0293804D01*
X0382492Y0293804D02*
X0382492Y0289967D01*
X0383259Y0289200D01*
X0384794Y0289200D01*
X0385561Y0289967D01*
X0381300Y0286898D02*
X0381300Y0285363D01*
X0380533Y0284596D01*
X0378998Y0284596D02*
X0378231Y0286131D01*
X0378231Y0286898D01*
X0378998Y0287665D01*
X0380533Y0287665D01*
X0381300Y0286898D01*
X0378998Y0284596D02*
X0376696Y0284596D01*
X0376696Y0287665D01*
X0377463Y0283061D02*
X0378998Y0283061D01*
X0379765Y0282294D01*
X0379765Y0279992D01*
X0379765Y0281527D02*
X0381300Y0283061D01*
X0381300Y0279992D02*
X0376696Y0279992D01*
X0376696Y0282294D01*
X0377463Y0283061D01*
X0341300Y0283061D02*
X0339765Y0281527D01*
X0339765Y0282294D02*
X0339765Y0279992D01*
X0341300Y0279992D02*
X0336696Y0279992D01*
X0336696Y0282294D01*
X0337463Y0283061D01*
X0338998Y0283061D01*
X0339765Y0282294D01*
X0338998Y0284596D02*
X0338998Y0287665D01*
X0341300Y0286898D02*
X0336696Y0286898D01*
X0338998Y0284596D01*
X0300165Y0289967D02*
X0299398Y0289200D01*
X0297863Y0289200D01*
X0297096Y0289967D01*
X0295561Y0289967D02*
X0294794Y0289200D01*
X0293259Y0289200D01*
X0292492Y0289967D01*
X0292492Y0293804D01*
X0295561Y0293804D02*
X0295561Y0289967D01*
X0297096Y0293037D02*
X0297863Y0293804D01*
X0299398Y0293804D01*
X0300165Y0293037D01*
X0300165Y0292269D01*
X0299398Y0291502D01*
X0300165Y0290735D01*
X0300165Y0289967D01*
X0299398Y0291502D02*
X0298631Y0291502D01*
X0291300Y0286898D02*
X0291300Y0285363D01*
X0290533Y0284596D01*
X0291300Y0283061D02*
X0289765Y0281527D01*
X0289765Y0282294D02*
X0289765Y0279992D01*
X0291300Y0279992D02*
X0286696Y0279992D01*
X0286696Y0282294D01*
X0287463Y0283061D01*
X0288998Y0283061D01*
X0289765Y0282294D01*
X0287463Y0284596D02*
X0286696Y0285363D01*
X0286696Y0286898D01*
X0287463Y0287665D01*
X0288231Y0287665D01*
X0288998Y0286898D01*
X0289765Y0287665D01*
X0290533Y0287665D01*
X0291300Y0286898D01*
X0288998Y0286898D02*
X0288998Y0286131D01*
X0251300Y0287665D02*
X0251300Y0284596D01*
X0248231Y0287665D01*
X0247463Y0287665D01*
X0246696Y0286898D01*
X0246696Y0285363D01*
X0247463Y0284596D01*
X0247463Y0283061D02*
X0248998Y0283061D01*
X0249765Y0282294D01*
X0249765Y0279992D01*
X0249765Y0281527D02*
X0251300Y0283061D01*
X0251300Y0279992D02*
X0246696Y0279992D01*
X0246696Y0282294D01*
X0247463Y0283061D01*
X0210165Y0289200D02*
X0207096Y0289200D01*
X0210165Y0292269D01*
X0210165Y0293037D01*
X0209398Y0293804D01*
X0207863Y0293804D01*
X0207096Y0293037D01*
X0205561Y0293804D02*
X0205561Y0289967D01*
X0204794Y0289200D01*
X0203259Y0289200D01*
X0202492Y0289967D01*
X0202492Y0293804D01*
X0161300Y0287665D02*
X0161300Y0284596D01*
X0161300Y0283061D02*
X0159765Y0281527D01*
X0159765Y0282294D02*
X0159765Y0279992D01*
X0161300Y0279992D02*
X0156696Y0279992D01*
X0156696Y0282294D01*
X0157463Y0283061D01*
X0158998Y0283061D01*
X0159765Y0282294D01*
X0158231Y0284596D02*
X0156696Y0286131D01*
X0161300Y0286131D01*
X0067300Y0288467D02*
X0067300Y0290002D01*
X0066533Y0290769D01*
X0064998Y0290769D01*
X0064998Y0289235D01*
X0063463Y0290769D02*
X0062696Y0290002D01*
X0062696Y0288467D01*
X0063463Y0287700D01*
X0066533Y0287700D01*
X0067300Y0288467D01*
X0067300Y0292304D02*
X0067300Y0295373D01*
X0067300Y0293839D02*
X0062696Y0293839D01*
X0064231Y0292304D01*
X0040165Y0296700D02*
X0037096Y0296700D01*
X0038631Y0296700D02*
X0038631Y0301304D01*
X0037096Y0299769D01*
X0035561Y0301304D02*
X0034027Y0301304D01*
X0034794Y0301304D02*
X0034794Y0297467D01*
X0034027Y0296700D01*
X0033259Y0296700D01*
X0032492Y0297467D01*
X0057463Y0246873D02*
X0058231Y0246873D01*
X0058998Y0246106D01*
X0058998Y0244571D01*
X0058231Y0243804D01*
X0057463Y0243804D01*
X0056696Y0244571D01*
X0056696Y0246106D01*
X0057463Y0246873D01*
X0058998Y0246106D02*
X0059765Y0246873D01*
X0060533Y0246873D01*
X0061300Y0246106D01*
X0061300Y0244571D01*
X0060533Y0243804D01*
X0059765Y0243804D01*
X0058998Y0244571D01*
X0058998Y0242269D02*
X0059765Y0241502D01*
X0059765Y0239200D01*
X0059765Y0240735D02*
X0061300Y0242269D01*
X0058998Y0242269D02*
X0057463Y0242269D01*
X0056696Y0241502D01*
X0056696Y0239200D01*
X0061300Y0239200D01*
X0126696Y0216106D02*
X0126696Y0214571D01*
X0127463Y0213804D01*
X0128231Y0213804D01*
X0128998Y0214571D01*
X0128998Y0216873D01*
X0127463Y0216873D02*
X0126696Y0216106D01*
X0127463Y0216873D02*
X0130533Y0216873D01*
X0131300Y0216106D01*
X0131300Y0214571D01*
X0130533Y0213804D01*
X0131300Y0212269D02*
X0129765Y0210735D01*
X0129765Y0211502D02*
X0129765Y0209200D01*
X0131300Y0209200D02*
X0126696Y0209200D01*
X0126696Y0211502D01*
X0127463Y0212269D01*
X0128998Y0212269D01*
X0129765Y0211502D01*
X0041300Y0189002D02*
X0040533Y0189769D01*
X0039765Y0189769D01*
X0038998Y0189002D01*
X0038998Y0186700D01*
X0040533Y0186700D01*
X0041300Y0187467D01*
X0041300Y0189002D01*
X0038998Y0186700D02*
X0037463Y0188235D01*
X0036696Y0189769D01*
X0037463Y0185165D02*
X0036696Y0184398D01*
X0036696Y0182863D01*
X0037463Y0182096D01*
X0040533Y0182096D01*
X0041300Y0182863D01*
X0041300Y0184398D01*
X0040533Y0185165D01*
X0037463Y0169769D02*
X0040533Y0166700D01*
X0041300Y0166700D01*
X0040533Y0165165D02*
X0041300Y0164398D01*
X0041300Y0162863D01*
X0040533Y0162096D01*
X0037463Y0162096D01*
X0036696Y0162863D01*
X0036696Y0164398D01*
X0037463Y0165165D01*
X0036696Y0166700D02*
X0036696Y0169769D01*
X0037463Y0169769D01*
X0037002Y0120304D02*
X0034700Y0120304D01*
X0034700Y0115700D01*
X0037002Y0115700D01*
X0037769Y0116467D01*
X0037769Y0119537D01*
X0037002Y0120304D01*
X0039304Y0118002D02*
X0042373Y0118002D01*
X0041606Y0120304D02*
X0039304Y0118002D01*
X0041606Y0115700D02*
X0041606Y0120304D01*
X0159700Y0120304D02*
X0159700Y0115700D01*
X0162002Y0115700D01*
X0162769Y0116467D01*
X0162769Y0119537D01*
X0162002Y0120304D01*
X0159700Y0120304D01*
X0164304Y0119537D02*
X0165071Y0120304D01*
X0166606Y0120304D01*
X0167373Y0119537D01*
X0167373Y0118769D01*
X0166606Y0118002D01*
X0167373Y0117235D01*
X0167373Y0116467D01*
X0166606Y0115700D01*
X0165071Y0115700D01*
X0164304Y0116467D01*
X0165839Y0118002D02*
X0166606Y0118002D01*
X0226700Y0174200D02*
X0226700Y0178804D01*
X0229002Y0178804D01*
X0229769Y0178037D01*
X0229769Y0176502D01*
X0229002Y0175735D01*
X0226700Y0175735D01*
X0228235Y0175735D02*
X0229769Y0174200D01*
X0231304Y0174200D02*
X0234373Y0174200D01*
X0232839Y0174200D02*
X0232839Y0178804D01*
X0231304Y0177269D01*
X0235908Y0178037D02*
X0235908Y0174967D01*
X0238977Y0178037D01*
X0238977Y0174967D01*
X0238210Y0174200D01*
X0236675Y0174200D01*
X0235908Y0174967D01*
X0235908Y0178037D02*
X0236675Y0178804D01*
X0238210Y0178804D01*
X0238977Y0178037D01*
X0284700Y0120304D02*
X0287002Y0120304D01*
X0287769Y0119537D01*
X0287769Y0116467D01*
X0287002Y0115700D01*
X0284700Y0115700D01*
X0284700Y0120304D01*
X0289304Y0119537D02*
X0290071Y0120304D01*
X0291606Y0120304D01*
X0292373Y0119537D01*
X0292373Y0118769D01*
X0289304Y0115700D01*
X0292373Y0115700D01*
X0409700Y0115700D02*
X0412002Y0115700D01*
X0412769Y0116467D01*
X0412769Y0119537D01*
X0412002Y0120304D01*
X0409700Y0120304D01*
X0409700Y0115700D01*
X0414304Y0115700D02*
X0417373Y0115700D01*
X0415839Y0115700D02*
X0415839Y0120304D01*
X0414304Y0118769D01*
D18*
X0409500Y0112500D02*
X0409500Y0055500D01*
X0405500Y0055500D01*
X0405500Y0006500D01*
X0507500Y0006500D01*
X0507500Y0055500D01*
X0503500Y0055500D01*
X0503500Y0112500D01*
X0409500Y0112500D01*
X0378500Y0112500D02*
X0378500Y0055500D01*
X0382500Y0055500D01*
X0382500Y0006500D01*
X0280500Y0006500D01*
X0280500Y0055500D01*
X0284500Y0055500D01*
X0284500Y0112500D01*
X0378500Y0112500D01*
X0403500Y0076000D02*
X0403502Y0076089D01*
X0403508Y0076178D01*
X0403518Y0076267D01*
X0403532Y0076355D01*
X0403549Y0076442D01*
X0403571Y0076528D01*
X0403597Y0076614D01*
X0403626Y0076698D01*
X0403659Y0076781D01*
X0403695Y0076862D01*
X0403736Y0076942D01*
X0403779Y0077019D01*
X0403826Y0077095D01*
X0403877Y0077168D01*
X0403930Y0077239D01*
X0403987Y0077308D01*
X0404047Y0077374D01*
X0404110Y0077438D01*
X0404175Y0077498D01*
X0404243Y0077556D01*
X0404314Y0077610D01*
X0404387Y0077661D01*
X0404462Y0077709D01*
X0404539Y0077754D01*
X0404618Y0077795D01*
X0404699Y0077832D01*
X0404781Y0077866D01*
X0404865Y0077897D01*
X0404950Y0077923D01*
X0405036Y0077946D01*
X0405123Y0077964D01*
X0405211Y0077979D01*
X0405300Y0077990D01*
X0405389Y0077997D01*
X0405478Y0078000D01*
X0405567Y0077999D01*
X0405656Y0077994D01*
X0405744Y0077985D01*
X0405833Y0077972D01*
X0405920Y0077955D01*
X0406007Y0077935D01*
X0406093Y0077910D01*
X0406177Y0077882D01*
X0406260Y0077850D01*
X0406342Y0077814D01*
X0406422Y0077775D01*
X0406500Y0077732D01*
X0406576Y0077686D01*
X0406650Y0077636D01*
X0406722Y0077583D01*
X0406791Y0077527D01*
X0406858Y0077468D01*
X0406922Y0077406D01*
X0406983Y0077342D01*
X0407042Y0077274D01*
X0407097Y0077204D01*
X0407149Y0077132D01*
X0407198Y0077057D01*
X0407243Y0076981D01*
X0407285Y0076902D01*
X0407323Y0076822D01*
X0407358Y0076740D01*
X0407389Y0076656D01*
X0407417Y0076571D01*
X0407440Y0076485D01*
X0407460Y0076398D01*
X0407476Y0076311D01*
X0407488Y0076222D01*
X0407496Y0076134D01*
X0407500Y0076045D01*
X0407500Y0075955D01*
X0407496Y0075866D01*
X0407488Y0075778D01*
X0407476Y0075689D01*
X0407460Y0075602D01*
X0407440Y0075515D01*
X0407417Y0075429D01*
X0407389Y0075344D01*
X0407358Y0075260D01*
X0407323Y0075178D01*
X0407285Y0075098D01*
X0407243Y0075019D01*
X0407198Y0074943D01*
X0407149Y0074868D01*
X0407097Y0074796D01*
X0407042Y0074726D01*
X0406983Y0074658D01*
X0406922Y0074594D01*
X0406858Y0074532D01*
X0406791Y0074473D01*
X0406722Y0074417D01*
X0406650Y0074364D01*
X0406576Y0074314D01*
X0406500Y0074268D01*
X0406422Y0074225D01*
X0406342Y0074186D01*
X0406260Y0074150D01*
X0406177Y0074118D01*
X0406093Y0074090D01*
X0406007Y0074065D01*
X0405920Y0074045D01*
X0405833Y0074028D01*
X0405744Y0074015D01*
X0405656Y0074006D01*
X0405567Y0074001D01*
X0405478Y0074000D01*
X0405389Y0074003D01*
X0405300Y0074010D01*
X0405211Y0074021D01*
X0405123Y0074036D01*
X0405036Y0074054D01*
X0404950Y0074077D01*
X0404865Y0074103D01*
X0404781Y0074134D01*
X0404699Y0074168D01*
X0404618Y0074205D01*
X0404539Y0074246D01*
X0404462Y0074291D01*
X0404387Y0074339D01*
X0404314Y0074390D01*
X0404243Y0074444D01*
X0404175Y0074502D01*
X0404110Y0074562D01*
X0404047Y0074626D01*
X0403987Y0074692D01*
X0403930Y0074761D01*
X0403877Y0074832D01*
X0403826Y0074905D01*
X0403779Y0074981D01*
X0403736Y0075058D01*
X0403695Y0075138D01*
X0403659Y0075219D01*
X0403626Y0075302D01*
X0403597Y0075386D01*
X0403571Y0075472D01*
X0403549Y0075558D01*
X0403532Y0075645D01*
X0403518Y0075733D01*
X0403508Y0075822D01*
X0403502Y0075911D01*
X0403500Y0076000D01*
X0278500Y0076000D02*
X0278502Y0076089D01*
X0278508Y0076178D01*
X0278518Y0076267D01*
X0278532Y0076355D01*
X0278549Y0076442D01*
X0278571Y0076528D01*
X0278597Y0076614D01*
X0278626Y0076698D01*
X0278659Y0076781D01*
X0278695Y0076862D01*
X0278736Y0076942D01*
X0278779Y0077019D01*
X0278826Y0077095D01*
X0278877Y0077168D01*
X0278930Y0077239D01*
X0278987Y0077308D01*
X0279047Y0077374D01*
X0279110Y0077438D01*
X0279175Y0077498D01*
X0279243Y0077556D01*
X0279314Y0077610D01*
X0279387Y0077661D01*
X0279462Y0077709D01*
X0279539Y0077754D01*
X0279618Y0077795D01*
X0279699Y0077832D01*
X0279781Y0077866D01*
X0279865Y0077897D01*
X0279950Y0077923D01*
X0280036Y0077946D01*
X0280123Y0077964D01*
X0280211Y0077979D01*
X0280300Y0077990D01*
X0280389Y0077997D01*
X0280478Y0078000D01*
X0280567Y0077999D01*
X0280656Y0077994D01*
X0280744Y0077985D01*
X0280833Y0077972D01*
X0280920Y0077955D01*
X0281007Y0077935D01*
X0281093Y0077910D01*
X0281177Y0077882D01*
X0281260Y0077850D01*
X0281342Y0077814D01*
X0281422Y0077775D01*
X0281500Y0077732D01*
X0281576Y0077686D01*
X0281650Y0077636D01*
X0281722Y0077583D01*
X0281791Y0077527D01*
X0281858Y0077468D01*
X0281922Y0077406D01*
X0281983Y0077342D01*
X0282042Y0077274D01*
X0282097Y0077204D01*
X0282149Y0077132D01*
X0282198Y0077057D01*
X0282243Y0076981D01*
X0282285Y0076902D01*
X0282323Y0076822D01*
X0282358Y0076740D01*
X0282389Y0076656D01*
X0282417Y0076571D01*
X0282440Y0076485D01*
X0282460Y0076398D01*
X0282476Y0076311D01*
X0282488Y0076222D01*
X0282496Y0076134D01*
X0282500Y0076045D01*
X0282500Y0075955D01*
X0282496Y0075866D01*
X0282488Y0075778D01*
X0282476Y0075689D01*
X0282460Y0075602D01*
X0282440Y0075515D01*
X0282417Y0075429D01*
X0282389Y0075344D01*
X0282358Y0075260D01*
X0282323Y0075178D01*
X0282285Y0075098D01*
X0282243Y0075019D01*
X0282198Y0074943D01*
X0282149Y0074868D01*
X0282097Y0074796D01*
X0282042Y0074726D01*
X0281983Y0074658D01*
X0281922Y0074594D01*
X0281858Y0074532D01*
X0281791Y0074473D01*
X0281722Y0074417D01*
X0281650Y0074364D01*
X0281576Y0074314D01*
X0281500Y0074268D01*
X0281422Y0074225D01*
X0281342Y0074186D01*
X0281260Y0074150D01*
X0281177Y0074118D01*
X0281093Y0074090D01*
X0281007Y0074065D01*
X0280920Y0074045D01*
X0280833Y0074028D01*
X0280744Y0074015D01*
X0280656Y0074006D01*
X0280567Y0074001D01*
X0280478Y0074000D01*
X0280389Y0074003D01*
X0280300Y0074010D01*
X0280211Y0074021D01*
X0280123Y0074036D01*
X0280036Y0074054D01*
X0279950Y0074077D01*
X0279865Y0074103D01*
X0279781Y0074134D01*
X0279699Y0074168D01*
X0279618Y0074205D01*
X0279539Y0074246D01*
X0279462Y0074291D01*
X0279387Y0074339D01*
X0279314Y0074390D01*
X0279243Y0074444D01*
X0279175Y0074502D01*
X0279110Y0074562D01*
X0279047Y0074626D01*
X0278987Y0074692D01*
X0278930Y0074761D01*
X0278877Y0074832D01*
X0278826Y0074905D01*
X0278779Y0074981D01*
X0278736Y0075058D01*
X0278695Y0075138D01*
X0278659Y0075219D01*
X0278626Y0075302D01*
X0278597Y0075386D01*
X0278571Y0075472D01*
X0278549Y0075558D01*
X0278532Y0075645D01*
X0278518Y0075733D01*
X0278508Y0075822D01*
X0278502Y0075911D01*
X0278500Y0076000D01*
X0257500Y0055500D02*
X0257500Y0006500D01*
X0155500Y0006500D01*
X0155500Y0055500D01*
X0159500Y0055500D01*
X0159500Y0112500D01*
X0253500Y0112500D01*
X0253500Y0055500D01*
X0257500Y0055500D01*
X0153500Y0076000D02*
X0153502Y0076089D01*
X0153508Y0076178D01*
X0153518Y0076267D01*
X0153532Y0076355D01*
X0153549Y0076442D01*
X0153571Y0076528D01*
X0153597Y0076614D01*
X0153626Y0076698D01*
X0153659Y0076781D01*
X0153695Y0076862D01*
X0153736Y0076942D01*
X0153779Y0077019D01*
X0153826Y0077095D01*
X0153877Y0077168D01*
X0153930Y0077239D01*
X0153987Y0077308D01*
X0154047Y0077374D01*
X0154110Y0077438D01*
X0154175Y0077498D01*
X0154243Y0077556D01*
X0154314Y0077610D01*
X0154387Y0077661D01*
X0154462Y0077709D01*
X0154539Y0077754D01*
X0154618Y0077795D01*
X0154699Y0077832D01*
X0154781Y0077866D01*
X0154865Y0077897D01*
X0154950Y0077923D01*
X0155036Y0077946D01*
X0155123Y0077964D01*
X0155211Y0077979D01*
X0155300Y0077990D01*
X0155389Y0077997D01*
X0155478Y0078000D01*
X0155567Y0077999D01*
X0155656Y0077994D01*
X0155744Y0077985D01*
X0155833Y0077972D01*
X0155920Y0077955D01*
X0156007Y0077935D01*
X0156093Y0077910D01*
X0156177Y0077882D01*
X0156260Y0077850D01*
X0156342Y0077814D01*
X0156422Y0077775D01*
X0156500Y0077732D01*
X0156576Y0077686D01*
X0156650Y0077636D01*
X0156722Y0077583D01*
X0156791Y0077527D01*
X0156858Y0077468D01*
X0156922Y0077406D01*
X0156983Y0077342D01*
X0157042Y0077274D01*
X0157097Y0077204D01*
X0157149Y0077132D01*
X0157198Y0077057D01*
X0157243Y0076981D01*
X0157285Y0076902D01*
X0157323Y0076822D01*
X0157358Y0076740D01*
X0157389Y0076656D01*
X0157417Y0076571D01*
X0157440Y0076485D01*
X0157460Y0076398D01*
X0157476Y0076311D01*
X0157488Y0076222D01*
X0157496Y0076134D01*
X0157500Y0076045D01*
X0157500Y0075955D01*
X0157496Y0075866D01*
X0157488Y0075778D01*
X0157476Y0075689D01*
X0157460Y0075602D01*
X0157440Y0075515D01*
X0157417Y0075429D01*
X0157389Y0075344D01*
X0157358Y0075260D01*
X0157323Y0075178D01*
X0157285Y0075098D01*
X0157243Y0075019D01*
X0157198Y0074943D01*
X0157149Y0074868D01*
X0157097Y0074796D01*
X0157042Y0074726D01*
X0156983Y0074658D01*
X0156922Y0074594D01*
X0156858Y0074532D01*
X0156791Y0074473D01*
X0156722Y0074417D01*
X0156650Y0074364D01*
X0156576Y0074314D01*
X0156500Y0074268D01*
X0156422Y0074225D01*
X0156342Y0074186D01*
X0156260Y0074150D01*
X0156177Y0074118D01*
X0156093Y0074090D01*
X0156007Y0074065D01*
X0155920Y0074045D01*
X0155833Y0074028D01*
X0155744Y0074015D01*
X0155656Y0074006D01*
X0155567Y0074001D01*
X0155478Y0074000D01*
X0155389Y0074003D01*
X0155300Y0074010D01*
X0155211Y0074021D01*
X0155123Y0074036D01*
X0155036Y0074054D01*
X0154950Y0074077D01*
X0154865Y0074103D01*
X0154781Y0074134D01*
X0154699Y0074168D01*
X0154618Y0074205D01*
X0154539Y0074246D01*
X0154462Y0074291D01*
X0154387Y0074339D01*
X0154314Y0074390D01*
X0154243Y0074444D01*
X0154175Y0074502D01*
X0154110Y0074562D01*
X0154047Y0074626D01*
X0153987Y0074692D01*
X0153930Y0074761D01*
X0153877Y0074832D01*
X0153826Y0074905D01*
X0153779Y0074981D01*
X0153736Y0075058D01*
X0153695Y0075138D01*
X0153659Y0075219D01*
X0153626Y0075302D01*
X0153597Y0075386D01*
X0153571Y0075472D01*
X0153549Y0075558D01*
X0153532Y0075645D01*
X0153518Y0075733D01*
X0153508Y0075822D01*
X0153502Y0075911D01*
X0153500Y0076000D01*
X0132500Y0055500D02*
X0128500Y0055500D01*
X0128500Y0112500D01*
X0034500Y0112500D01*
X0034500Y0055500D01*
X0030500Y0055500D01*
X0030500Y0006500D01*
X0132500Y0006500D01*
X0132500Y0055500D01*
X0028500Y0076000D02*
X0028502Y0076089D01*
X0028508Y0076178D01*
X0028518Y0076267D01*
X0028532Y0076355D01*
X0028549Y0076442D01*
X0028571Y0076528D01*
X0028597Y0076614D01*
X0028626Y0076698D01*
X0028659Y0076781D01*
X0028695Y0076862D01*
X0028736Y0076942D01*
X0028779Y0077019D01*
X0028826Y0077095D01*
X0028877Y0077168D01*
X0028930Y0077239D01*
X0028987Y0077308D01*
X0029047Y0077374D01*
X0029110Y0077438D01*
X0029175Y0077498D01*
X0029243Y0077556D01*
X0029314Y0077610D01*
X0029387Y0077661D01*
X0029462Y0077709D01*
X0029539Y0077754D01*
X0029618Y0077795D01*
X0029699Y0077832D01*
X0029781Y0077866D01*
X0029865Y0077897D01*
X0029950Y0077923D01*
X0030036Y0077946D01*
X0030123Y0077964D01*
X0030211Y0077979D01*
X0030300Y0077990D01*
X0030389Y0077997D01*
X0030478Y0078000D01*
X0030567Y0077999D01*
X0030656Y0077994D01*
X0030744Y0077985D01*
X0030833Y0077972D01*
X0030920Y0077955D01*
X0031007Y0077935D01*
X0031093Y0077910D01*
X0031177Y0077882D01*
X0031260Y0077850D01*
X0031342Y0077814D01*
X0031422Y0077775D01*
X0031500Y0077732D01*
X0031576Y0077686D01*
X0031650Y0077636D01*
X0031722Y0077583D01*
X0031791Y0077527D01*
X0031858Y0077468D01*
X0031922Y0077406D01*
X0031983Y0077342D01*
X0032042Y0077274D01*
X0032097Y0077204D01*
X0032149Y0077132D01*
X0032198Y0077057D01*
X0032243Y0076981D01*
X0032285Y0076902D01*
X0032323Y0076822D01*
X0032358Y0076740D01*
X0032389Y0076656D01*
X0032417Y0076571D01*
X0032440Y0076485D01*
X0032460Y0076398D01*
X0032476Y0076311D01*
X0032488Y0076222D01*
X0032496Y0076134D01*
X0032500Y0076045D01*
X0032500Y0075955D01*
X0032496Y0075866D01*
X0032488Y0075778D01*
X0032476Y0075689D01*
X0032460Y0075602D01*
X0032440Y0075515D01*
X0032417Y0075429D01*
X0032389Y0075344D01*
X0032358Y0075260D01*
X0032323Y0075178D01*
X0032285Y0075098D01*
X0032243Y0075019D01*
X0032198Y0074943D01*
X0032149Y0074868D01*
X0032097Y0074796D01*
X0032042Y0074726D01*
X0031983Y0074658D01*
X0031922Y0074594D01*
X0031858Y0074532D01*
X0031791Y0074473D01*
X0031722Y0074417D01*
X0031650Y0074364D01*
X0031576Y0074314D01*
X0031500Y0074268D01*
X0031422Y0074225D01*
X0031342Y0074186D01*
X0031260Y0074150D01*
X0031177Y0074118D01*
X0031093Y0074090D01*
X0031007Y0074065D01*
X0030920Y0074045D01*
X0030833Y0074028D01*
X0030744Y0074015D01*
X0030656Y0074006D01*
X0030567Y0074001D01*
X0030478Y0074000D01*
X0030389Y0074003D01*
X0030300Y0074010D01*
X0030211Y0074021D01*
X0030123Y0074036D01*
X0030036Y0074054D01*
X0029950Y0074077D01*
X0029865Y0074103D01*
X0029781Y0074134D01*
X0029699Y0074168D01*
X0029618Y0074205D01*
X0029539Y0074246D01*
X0029462Y0074291D01*
X0029387Y0074339D01*
X0029314Y0074390D01*
X0029243Y0074444D01*
X0029175Y0074502D01*
X0029110Y0074562D01*
X0029047Y0074626D01*
X0028987Y0074692D01*
X0028930Y0074761D01*
X0028877Y0074832D01*
X0028826Y0074905D01*
X0028779Y0074981D01*
X0028736Y0075058D01*
X0028695Y0075138D01*
X0028659Y0075219D01*
X0028626Y0075302D01*
X0028597Y0075386D01*
X0028571Y0075472D01*
X0028549Y0075558D01*
X0028532Y0075645D01*
X0028518Y0075733D01*
X0028508Y0075822D01*
X0028502Y0075911D01*
X0028500Y0076000D01*
X0130746Y0139750D02*
X0134499Y0139750D01*
X0135250Y0140501D01*
X0135250Y0142002D01*
X0134499Y0142753D01*
X0130746Y0142753D01*
X0132998Y0144354D02*
X0132998Y0146606D01*
X0133749Y0147356D01*
X0134499Y0147356D01*
X0135250Y0146606D01*
X0135250Y0145105D01*
X0134499Y0144354D01*
X0132998Y0144354D01*
X0131497Y0145855D01*
X0130746Y0147356D01*
X0206750Y0186501D02*
X0207501Y0185750D01*
X0209002Y0185750D01*
X0209753Y0186501D01*
X0211354Y0185750D02*
X0214356Y0185750D01*
X0212855Y0185750D02*
X0212855Y0190254D01*
X0211354Y0188753D01*
X0209753Y0189503D02*
X0209002Y0190254D01*
X0207501Y0190254D01*
X0206750Y0189503D01*
X0206750Y0186501D01*
X0215958Y0185750D02*
X0218960Y0185750D01*
X0217459Y0185750D02*
X0217459Y0190254D01*
X0215958Y0188753D01*
X0128750Y0253293D02*
X0127999Y0252542D01*
X0124997Y0252542D01*
X0124246Y0253293D01*
X0124246Y0254794D01*
X0124997Y0255545D01*
X0124997Y0257146D02*
X0124246Y0257897D01*
X0124246Y0259398D01*
X0124997Y0260149D01*
X0125747Y0260149D01*
X0128750Y0257146D01*
X0128750Y0260149D01*
X0127999Y0255545D02*
X0128750Y0254794D01*
X0128750Y0253293D01*
X0150250Y0263501D02*
X0151001Y0262750D01*
X0152502Y0262750D01*
X0153253Y0263501D01*
X0153253Y0266503D01*
X0152502Y0267254D01*
X0151001Y0267254D01*
X0150250Y0266503D01*
X0150250Y0263501D01*
X0154854Y0264251D02*
X0157856Y0267254D01*
X0159458Y0265753D02*
X0160959Y0267254D01*
X0160959Y0262750D01*
X0159458Y0262750D02*
X0162460Y0262750D01*
X0157856Y0262750D02*
X0155605Y0265002D01*
X0154854Y0267254D02*
X0154854Y0262750D01*
X0157071Y0270550D02*
X0158872Y0270550D01*
X0157972Y0270550D02*
X0157972Y0273252D01*
X0157071Y0272352D01*
X0160017Y0273252D02*
X0161819Y0270550D01*
X0161819Y0273252D01*
X0162964Y0271901D02*
X0164765Y0271901D01*
X0165910Y0272352D02*
X0166811Y0273252D01*
X0166811Y0270550D01*
X0165910Y0270550D02*
X0167712Y0270550D01*
X0168857Y0271901D02*
X0170659Y0271901D01*
X0171803Y0271451D02*
X0172254Y0271901D01*
X0173155Y0271901D01*
X0173605Y0271451D01*
X0173605Y0271000D01*
X0173155Y0270550D01*
X0172254Y0270550D01*
X0171803Y0271000D01*
X0171803Y0271451D01*
X0172254Y0271901D02*
X0171803Y0272352D01*
X0171803Y0272802D01*
X0172254Y0273252D01*
X0173155Y0273252D01*
X0173605Y0272802D01*
X0173605Y0272352D01*
X0173155Y0271901D01*
X0170208Y0270550D02*
X0170208Y0273252D01*
X0168857Y0271901D01*
X0164315Y0270550D02*
X0164315Y0273252D01*
X0162964Y0271901D01*
X0160017Y0270550D02*
X0160017Y0273252D01*
X0170857Y0266252D02*
X0172208Y0266252D01*
X0172659Y0265802D01*
X0172659Y0264000D01*
X0172208Y0263550D01*
X0170857Y0263550D01*
X0170857Y0266252D01*
X0173803Y0265802D02*
X0173803Y0265352D01*
X0174254Y0264901D01*
X0175605Y0264901D01*
X0175605Y0264000D02*
X0175605Y0265802D01*
X0175155Y0266252D01*
X0174254Y0266252D01*
X0173803Y0265802D01*
X0173803Y0264000D02*
X0174254Y0263550D01*
X0175155Y0263550D01*
X0175605Y0264000D01*
X0219750Y0263250D02*
X0221251Y0263250D01*
X0220501Y0263250D02*
X0220501Y0267754D01*
X0221251Y0267754D02*
X0219750Y0267754D01*
X0222819Y0267003D02*
X0222819Y0264001D01*
X0223570Y0263250D01*
X0225071Y0263250D01*
X0225822Y0264001D01*
X0227423Y0263250D02*
X0230426Y0263250D01*
X0228924Y0263250D02*
X0228924Y0267754D01*
X0227423Y0266253D01*
X0225822Y0267003D02*
X0225071Y0267754D01*
X0223570Y0267754D01*
X0222819Y0267003D01*
X0222000Y0295700D02*
X0222000Y0360700D01*
X0301000Y0360700D01*
X0301000Y0295700D01*
X0222000Y0295700D01*
X0211000Y0295700D02*
X0211000Y0360700D01*
X0132000Y0360700D01*
X0132000Y0295700D01*
X0211000Y0295700D01*
X0121500Y0286500D02*
X0121500Y0359000D01*
X0071500Y0359000D01*
X0071500Y0286500D01*
X0121500Y0286500D01*
X0090855Y0267254D02*
X0090855Y0262750D01*
X0089354Y0262750D02*
X0092356Y0262750D01*
X0089354Y0265753D02*
X0090855Y0267254D01*
X0087753Y0267254D02*
X0087753Y0263501D01*
X0087002Y0262750D01*
X0085501Y0262750D01*
X0084750Y0263501D01*
X0084750Y0267254D01*
X0068750Y0265149D02*
X0068750Y0262146D01*
X0068750Y0263647D02*
X0064246Y0263647D01*
X0065747Y0262146D01*
X0064997Y0260545D02*
X0064246Y0259794D01*
X0064246Y0258293D01*
X0064997Y0257542D01*
X0067999Y0257542D01*
X0068750Y0258293D01*
X0068750Y0259794D01*
X0067999Y0260545D01*
X0075800Y0292400D02*
X0075802Y0292509D01*
X0075808Y0292618D01*
X0075818Y0292726D01*
X0075832Y0292834D01*
X0075849Y0292942D01*
X0075871Y0293049D01*
X0075896Y0293155D01*
X0075926Y0293259D01*
X0075959Y0293363D01*
X0075996Y0293466D01*
X0076036Y0293567D01*
X0076080Y0293666D01*
X0076128Y0293764D01*
X0076180Y0293861D01*
X0076234Y0293955D01*
X0076292Y0294047D01*
X0076354Y0294137D01*
X0076419Y0294224D01*
X0076486Y0294310D01*
X0076557Y0294393D01*
X0076631Y0294473D01*
X0076708Y0294550D01*
X0076787Y0294625D01*
X0076869Y0294696D01*
X0076954Y0294765D01*
X0077041Y0294830D01*
X0077130Y0294893D01*
X0077222Y0294951D01*
X0077316Y0295007D01*
X0077411Y0295059D01*
X0077509Y0295108D01*
X0077608Y0295153D01*
X0077709Y0295195D01*
X0077811Y0295232D01*
X0077914Y0295266D01*
X0078019Y0295297D01*
X0078125Y0295323D01*
X0078231Y0295346D01*
X0078339Y0295364D01*
X0078447Y0295379D01*
X0078555Y0295390D01*
X0078664Y0295397D01*
X0078773Y0295400D01*
X0078882Y0295399D01*
X0078991Y0295394D01*
X0079099Y0295385D01*
X0079207Y0295372D01*
X0079315Y0295355D01*
X0079422Y0295335D01*
X0079528Y0295310D01*
X0079633Y0295282D01*
X0079737Y0295250D01*
X0079840Y0295214D01*
X0079942Y0295174D01*
X0080042Y0295131D01*
X0080140Y0295084D01*
X0080237Y0295034D01*
X0080331Y0294980D01*
X0080424Y0294922D01*
X0080515Y0294862D01*
X0080603Y0294798D01*
X0080689Y0294731D01*
X0080772Y0294661D01*
X0080853Y0294588D01*
X0080931Y0294512D01*
X0081006Y0294433D01*
X0081079Y0294351D01*
X0081148Y0294267D01*
X0081214Y0294181D01*
X0081277Y0294092D01*
X0081337Y0294001D01*
X0081394Y0293908D01*
X0081447Y0293813D01*
X0081496Y0293716D01*
X0081542Y0293617D01*
X0081584Y0293517D01*
X0081623Y0293415D01*
X0081658Y0293311D01*
X0081689Y0293207D01*
X0081717Y0293102D01*
X0081740Y0292995D01*
X0081760Y0292888D01*
X0081776Y0292780D01*
X0081788Y0292672D01*
X0081796Y0292563D01*
X0081800Y0292454D01*
X0081800Y0292346D01*
X0081796Y0292237D01*
X0081788Y0292128D01*
X0081776Y0292020D01*
X0081760Y0291912D01*
X0081740Y0291805D01*
X0081717Y0291698D01*
X0081689Y0291593D01*
X0081658Y0291489D01*
X0081623Y0291385D01*
X0081584Y0291283D01*
X0081542Y0291183D01*
X0081496Y0291084D01*
X0081447Y0290987D01*
X0081394Y0290892D01*
X0081337Y0290799D01*
X0081277Y0290708D01*
X0081214Y0290619D01*
X0081148Y0290533D01*
X0081079Y0290449D01*
X0081006Y0290367D01*
X0080931Y0290288D01*
X0080853Y0290212D01*
X0080772Y0290139D01*
X0080689Y0290069D01*
X0080603Y0290002D01*
X0080515Y0289938D01*
X0080424Y0289878D01*
X0080331Y0289820D01*
X0080237Y0289766D01*
X0080140Y0289716D01*
X0080042Y0289669D01*
X0079942Y0289626D01*
X0079840Y0289586D01*
X0079737Y0289550D01*
X0079633Y0289518D01*
X0079528Y0289490D01*
X0079422Y0289465D01*
X0079315Y0289445D01*
X0079207Y0289428D01*
X0079099Y0289415D01*
X0078991Y0289406D01*
X0078882Y0289401D01*
X0078773Y0289400D01*
X0078664Y0289403D01*
X0078555Y0289410D01*
X0078447Y0289421D01*
X0078339Y0289436D01*
X0078231Y0289454D01*
X0078125Y0289477D01*
X0078019Y0289503D01*
X0077914Y0289534D01*
X0077811Y0289568D01*
X0077709Y0289605D01*
X0077608Y0289647D01*
X0077509Y0289692D01*
X0077411Y0289741D01*
X0077316Y0289793D01*
X0077222Y0289849D01*
X0077130Y0289907D01*
X0077041Y0289970D01*
X0076954Y0290035D01*
X0076869Y0290104D01*
X0076787Y0290175D01*
X0076708Y0290250D01*
X0076631Y0290327D01*
X0076557Y0290407D01*
X0076486Y0290490D01*
X0076419Y0290576D01*
X0076354Y0290663D01*
X0076292Y0290753D01*
X0076234Y0290845D01*
X0076180Y0290939D01*
X0076128Y0291036D01*
X0076080Y0291134D01*
X0076036Y0291233D01*
X0075996Y0291334D01*
X0075959Y0291437D01*
X0075926Y0291541D01*
X0075896Y0291645D01*
X0075871Y0291751D01*
X0075849Y0291858D01*
X0075832Y0291966D01*
X0075818Y0292074D01*
X0075808Y0292182D01*
X0075802Y0292291D01*
X0075800Y0292400D01*
X0040750Y0159356D02*
X0040750Y0156354D01*
X0040750Y0157855D02*
X0036246Y0157855D01*
X0037747Y0156354D01*
X0036997Y0154753D02*
X0038498Y0153251D01*
X0040750Y0153251D01*
X0038498Y0153251D02*
X0036997Y0151750D01*
X0036246Y0151750D01*
X0036246Y0154753D02*
X0036997Y0154753D01*
X0312000Y0295700D02*
X0312000Y0360700D01*
X0391000Y0360700D01*
X0391000Y0295700D01*
X0312000Y0295700D01*
X0402000Y0295700D02*
X0402000Y0360700D01*
X0481000Y0360700D01*
X0481000Y0295700D01*
X0402000Y0295700D01*
D19*
X0158952Y0208155D02*
X0158952Y0201850D01*
X0156850Y0201850D02*
X0161054Y0201850D01*
X0156850Y0206054D02*
X0158952Y0208155D01*
X0154608Y0207104D02*
X0153557Y0208155D01*
X0151455Y0208155D01*
X0150404Y0207104D01*
X0150404Y0206054D01*
X0151455Y0205003D01*
X0153557Y0205003D01*
X0154608Y0203952D01*
X0154608Y0202901D01*
X0153557Y0201850D01*
X0151455Y0201850D01*
X0150404Y0202901D01*
M02*
