%
M48
M72
T01C0.02362
T02C0.02756
T03C0.03200
T04C0.03543
T05C0.04000
T06C0.04331
T07C0.05512
T08C0.09400
T09C0.11800
T10C0.12500
T11C0.13000
%
T01
X81500Y86500
X51500Y96500
X136500Y81500
X146500Y81500
X156500Y81500
X156500Y86500
X166500Y86500
X176500Y81500
X191500Y86500
X206500Y86500
X176500Y96500
X171500Y96500
X156500Y96500
X151500Y96500
X146500Y96500
X141500Y96500
X141500Y116500
X146500Y116500
X151500Y116500
X156500Y116500
X181500Y121500
X221500Y111500
X276500Y81500
X291500Y96500
X301500Y96500
X316500Y91500
X386500Y96500
X401500Y81500
X426500Y96500
X381500Y281500
X361500Y281500
X291500Y281500
X271500Y281500
X146500Y216500
X126500Y211500
T02
X51500Y181500
X31500Y181500
X31500Y171500
X31500Y161500
X51500Y161500
X31500Y191500
X41500Y106100
X51500Y106100
X61500Y106100
X71500Y106100
X81500Y106100
X91500Y106100
X101500Y106100
X111500Y106100
X121500Y106100
X121500Y76100
X111500Y76100
X101500Y76100
X91500Y76100
X81500Y76100
X71500Y76100
X61500Y76100
X51500Y76100
X41500Y76100
X166500Y76100
X176500Y76100
X186500Y76100
X196500Y76100
X206500Y76100
X216500Y76100
X226500Y76100
X236500Y76100
X246500Y76100
X246500Y106100
X236500Y106100
X226500Y106100
X216500Y106100
X206500Y106100
X196500Y106100
X186500Y106100
X176500Y106100
X166500Y106100
X291500Y106100
X301500Y106100
X311500Y106100
X321500Y106100
X331500Y106100
X341500Y106100
X351500Y106100
X361500Y106100
X371500Y106100
X371500Y76100
X361500Y76100
X351500Y76100
X341500Y76100
X331500Y76100
X321500Y76100
X311500Y76100
X301500Y76100
X291500Y76100
X416500Y76100
X426500Y76100
X436500Y76100
X446500Y76100
X456500Y76100
X466500Y76100
X476500Y76100
X486500Y76100
X496500Y76100
X496500Y106100
X486500Y106100
X476500Y106100
X466500Y106100
X456500Y106100
X446500Y106100
X436500Y106100
X426500Y106100
X416500Y106100
T03
X251500Y136500
X241500Y136500
X231500Y136500
X221500Y136500
X211500Y136500
X201500Y136500
X191500Y136500
X181500Y136500
X171500Y136500
X161500Y136500
X151500Y136500
X141500Y136500
X111500Y136500
X111500Y146500
X111500Y156500
X111500Y166500
X111500Y176500
X111500Y186500
X111500Y196500
X111500Y206500
X111500Y216500
X111500Y226500
X111500Y236500
X111500Y246500
X111500Y256500
X126500Y272500
X126500Y280500
X146500Y256500
X146500Y246500
X146500Y236500
X146500Y226500
X176500Y226500
X176500Y236500
X176500Y246500
X176500Y256500
X216500Y256500
X216500Y246500
X216500Y236500
X216500Y226500
X216500Y216500
X216500Y206500
X216500Y196500
X200500Y181500
X192500Y181500
X191500Y166500
X181500Y166500
X171500Y166500
X161500Y166500
X151500Y166500
X141500Y166500
X111500Y126500
X81500Y126500
X81500Y136500
X81500Y146500
X81500Y156500
X81500Y166500
X81500Y176500
X81500Y186500
X81500Y196500
X81500Y206500
X81500Y216500
X81500Y226500
X81500Y236500
X81500Y246500
X81500Y256500
X66500Y272500
X66500Y280500
X201500Y166500
X211500Y166500
X221500Y166500
X231500Y166500
X241500Y166500
X251500Y166500
X246500Y196500
X246500Y206500
X246500Y216500
X246500Y226500
X246500Y236500
X246500Y246500
X246500Y256500
T04
X181500Y271500
X151500Y271500
T05
X191500Y257000
X191500Y246000
X191000Y201500
X202000Y201500
X166500Y191500
X156500Y191500
X146500Y191500
X126500Y188500
X126500Y199500
X126500Y177000
X126500Y166000
X69000Y186000
X69000Y197000
X261500Y246000
X261500Y257000
T06
X106500Y281500
X96500Y281500
X86500Y281500
T07
X141950Y311500
X151800Y301700
X171500Y311500
X191200Y301700
X201050Y311500
X231950Y311500
X241800Y301700
X261500Y311500
X281200Y301700
X291050Y311500
X321950Y311500
X331800Y301700
X351500Y311500
X371200Y301700
X381050Y311500
X411950Y311500
X421800Y301700
X441500Y311500
X461200Y301700
X471050Y311500
X451350Y350900
X431650Y350900
X361350Y350900
X341650Y350900
X271350Y350900
X251650Y350900
X181350Y350900
X161650Y350900
T08
X141950Y331200
X201050Y331200
X231950Y331200
X291050Y331200
X321950Y331200
X381050Y331200
X411950Y331200
X471050Y331200
T09
X51500Y331185
X32996Y319374
X51500Y307563
T10
X21500Y21500
X261500Y186500
X261500Y271500
X21500Y341500
X516500Y341500
X516500Y21500
T11
X96500Y340500
M30
