G75*
%MOIN*%
%OFA0B0*%
%FSLAX25Y25*%
%IPPOS*%
%LPD*%
%AMOC8*
5,1,8,0,0,1.08239X$1,22.5*
%
%ADD10C,0.00000*%
%ADD11C,0.12500*%
%ADD12C,0.13000*%
%ADD13C,0.00500*%
%ADD14C,0.06500*%
%ADD15C,0.07400*%
%ADD16C,0.04800*%
%ADD17C,0.17000*%
%ADD18C,0.04134*%
%ADD19C,0.07000*%
%ADD20C,0.09000*%
%ADD21C,0.09400*%
%ADD22OC8,0.05000*%
%ADD23C,0.05000*%
D10*
X0001500Y0001500D02*
X0001500Y0361500D01*
X0536500Y0361500D01*
X0536500Y0001500D01*
X0001500Y0001500D01*
X0015250Y0021500D02*
X0015252Y0021658D01*
X0015258Y0021815D01*
X0015268Y0021973D01*
X0015282Y0022130D01*
X0015300Y0022286D01*
X0015321Y0022443D01*
X0015347Y0022598D01*
X0015377Y0022753D01*
X0015410Y0022907D01*
X0015448Y0023060D01*
X0015489Y0023213D01*
X0015534Y0023364D01*
X0015583Y0023514D01*
X0015636Y0023662D01*
X0015692Y0023810D01*
X0015753Y0023955D01*
X0015816Y0024100D01*
X0015884Y0024242D01*
X0015955Y0024383D01*
X0016029Y0024522D01*
X0016107Y0024659D01*
X0016189Y0024794D01*
X0016273Y0024927D01*
X0016362Y0025058D01*
X0016453Y0025186D01*
X0016548Y0025313D01*
X0016645Y0025436D01*
X0016746Y0025558D01*
X0016850Y0025676D01*
X0016957Y0025792D01*
X0017067Y0025905D01*
X0017179Y0026016D01*
X0017295Y0026123D01*
X0017413Y0026228D01*
X0017533Y0026330D01*
X0017656Y0026428D01*
X0017782Y0026524D01*
X0017910Y0026616D01*
X0018040Y0026705D01*
X0018172Y0026791D01*
X0018307Y0026873D01*
X0018444Y0026952D01*
X0018582Y0027027D01*
X0018722Y0027099D01*
X0018865Y0027167D01*
X0019008Y0027232D01*
X0019154Y0027293D01*
X0019301Y0027350D01*
X0019449Y0027404D01*
X0019599Y0027454D01*
X0019749Y0027500D01*
X0019901Y0027542D01*
X0020054Y0027581D01*
X0020208Y0027615D01*
X0020363Y0027646D01*
X0020518Y0027672D01*
X0020674Y0027695D01*
X0020831Y0027714D01*
X0020988Y0027729D01*
X0021145Y0027740D01*
X0021303Y0027747D01*
X0021461Y0027750D01*
X0021618Y0027749D01*
X0021776Y0027744D01*
X0021933Y0027735D01*
X0022091Y0027722D01*
X0022247Y0027705D01*
X0022404Y0027684D01*
X0022559Y0027660D01*
X0022714Y0027631D01*
X0022869Y0027598D01*
X0023022Y0027562D01*
X0023175Y0027521D01*
X0023326Y0027477D01*
X0023476Y0027429D01*
X0023625Y0027378D01*
X0023773Y0027322D01*
X0023919Y0027263D01*
X0024064Y0027200D01*
X0024207Y0027133D01*
X0024348Y0027063D01*
X0024487Y0026990D01*
X0024625Y0026913D01*
X0024761Y0026832D01*
X0024894Y0026748D01*
X0025025Y0026661D01*
X0025154Y0026570D01*
X0025281Y0026476D01*
X0025406Y0026379D01*
X0025527Y0026279D01*
X0025647Y0026176D01*
X0025763Y0026070D01*
X0025877Y0025961D01*
X0025989Y0025849D01*
X0026097Y0025735D01*
X0026202Y0025617D01*
X0026305Y0025497D01*
X0026404Y0025375D01*
X0026500Y0025250D01*
X0026593Y0025122D01*
X0026683Y0024993D01*
X0026769Y0024861D01*
X0026853Y0024727D01*
X0026932Y0024591D01*
X0027009Y0024453D01*
X0027081Y0024313D01*
X0027150Y0024171D01*
X0027216Y0024028D01*
X0027278Y0023883D01*
X0027336Y0023736D01*
X0027391Y0023588D01*
X0027442Y0023439D01*
X0027489Y0023288D01*
X0027532Y0023137D01*
X0027571Y0022984D01*
X0027607Y0022830D01*
X0027638Y0022676D01*
X0027666Y0022521D01*
X0027690Y0022365D01*
X0027710Y0022208D01*
X0027726Y0022051D01*
X0027738Y0021894D01*
X0027746Y0021737D01*
X0027750Y0021579D01*
X0027750Y0021421D01*
X0027746Y0021263D01*
X0027738Y0021106D01*
X0027726Y0020949D01*
X0027710Y0020792D01*
X0027690Y0020635D01*
X0027666Y0020479D01*
X0027638Y0020324D01*
X0027607Y0020170D01*
X0027571Y0020016D01*
X0027532Y0019863D01*
X0027489Y0019712D01*
X0027442Y0019561D01*
X0027391Y0019412D01*
X0027336Y0019264D01*
X0027278Y0019117D01*
X0027216Y0018972D01*
X0027150Y0018829D01*
X0027081Y0018687D01*
X0027009Y0018547D01*
X0026932Y0018409D01*
X0026853Y0018273D01*
X0026769Y0018139D01*
X0026683Y0018007D01*
X0026593Y0017878D01*
X0026500Y0017750D01*
X0026404Y0017625D01*
X0026305Y0017503D01*
X0026202Y0017383D01*
X0026097Y0017265D01*
X0025989Y0017151D01*
X0025877Y0017039D01*
X0025763Y0016930D01*
X0025647Y0016824D01*
X0025527Y0016721D01*
X0025406Y0016621D01*
X0025281Y0016524D01*
X0025154Y0016430D01*
X0025025Y0016339D01*
X0024894Y0016252D01*
X0024761Y0016168D01*
X0024625Y0016087D01*
X0024487Y0016010D01*
X0024348Y0015937D01*
X0024207Y0015867D01*
X0024064Y0015800D01*
X0023919Y0015737D01*
X0023773Y0015678D01*
X0023625Y0015622D01*
X0023476Y0015571D01*
X0023326Y0015523D01*
X0023175Y0015479D01*
X0023022Y0015438D01*
X0022869Y0015402D01*
X0022714Y0015369D01*
X0022559Y0015340D01*
X0022404Y0015316D01*
X0022247Y0015295D01*
X0022091Y0015278D01*
X0021933Y0015265D01*
X0021776Y0015256D01*
X0021618Y0015251D01*
X0021461Y0015250D01*
X0021303Y0015253D01*
X0021145Y0015260D01*
X0020988Y0015271D01*
X0020831Y0015286D01*
X0020674Y0015305D01*
X0020518Y0015328D01*
X0020363Y0015354D01*
X0020208Y0015385D01*
X0020054Y0015419D01*
X0019901Y0015458D01*
X0019749Y0015500D01*
X0019599Y0015546D01*
X0019449Y0015596D01*
X0019301Y0015650D01*
X0019154Y0015707D01*
X0019008Y0015768D01*
X0018865Y0015833D01*
X0018722Y0015901D01*
X0018582Y0015973D01*
X0018444Y0016048D01*
X0018307Y0016127D01*
X0018172Y0016209D01*
X0018040Y0016295D01*
X0017910Y0016384D01*
X0017782Y0016476D01*
X0017656Y0016572D01*
X0017533Y0016670D01*
X0017413Y0016772D01*
X0017295Y0016877D01*
X0017179Y0016984D01*
X0017067Y0017095D01*
X0016957Y0017208D01*
X0016850Y0017324D01*
X0016746Y0017442D01*
X0016645Y0017564D01*
X0016548Y0017687D01*
X0016453Y0017814D01*
X0016362Y0017942D01*
X0016273Y0018073D01*
X0016189Y0018206D01*
X0016107Y0018341D01*
X0016029Y0018478D01*
X0015955Y0018617D01*
X0015884Y0018758D01*
X0015816Y0018900D01*
X0015753Y0019045D01*
X0015692Y0019190D01*
X0015636Y0019338D01*
X0015583Y0019486D01*
X0015534Y0019636D01*
X0015489Y0019787D01*
X0015448Y0019940D01*
X0015410Y0020093D01*
X0015377Y0020247D01*
X0015347Y0020402D01*
X0015321Y0020557D01*
X0015300Y0020714D01*
X0015282Y0020870D01*
X0015268Y0021027D01*
X0015258Y0021185D01*
X0015252Y0021342D01*
X0015250Y0021500D01*
X0255250Y0186500D02*
X0255252Y0186658D01*
X0255258Y0186815D01*
X0255268Y0186973D01*
X0255282Y0187130D01*
X0255300Y0187286D01*
X0255321Y0187443D01*
X0255347Y0187598D01*
X0255377Y0187753D01*
X0255410Y0187907D01*
X0255448Y0188060D01*
X0255489Y0188213D01*
X0255534Y0188364D01*
X0255583Y0188514D01*
X0255636Y0188662D01*
X0255692Y0188810D01*
X0255753Y0188955D01*
X0255816Y0189100D01*
X0255884Y0189242D01*
X0255955Y0189383D01*
X0256029Y0189522D01*
X0256107Y0189659D01*
X0256189Y0189794D01*
X0256273Y0189927D01*
X0256362Y0190058D01*
X0256453Y0190186D01*
X0256548Y0190313D01*
X0256645Y0190436D01*
X0256746Y0190558D01*
X0256850Y0190676D01*
X0256957Y0190792D01*
X0257067Y0190905D01*
X0257179Y0191016D01*
X0257295Y0191123D01*
X0257413Y0191228D01*
X0257533Y0191330D01*
X0257656Y0191428D01*
X0257782Y0191524D01*
X0257910Y0191616D01*
X0258040Y0191705D01*
X0258172Y0191791D01*
X0258307Y0191873D01*
X0258444Y0191952D01*
X0258582Y0192027D01*
X0258722Y0192099D01*
X0258865Y0192167D01*
X0259008Y0192232D01*
X0259154Y0192293D01*
X0259301Y0192350D01*
X0259449Y0192404D01*
X0259599Y0192454D01*
X0259749Y0192500D01*
X0259901Y0192542D01*
X0260054Y0192581D01*
X0260208Y0192615D01*
X0260363Y0192646D01*
X0260518Y0192672D01*
X0260674Y0192695D01*
X0260831Y0192714D01*
X0260988Y0192729D01*
X0261145Y0192740D01*
X0261303Y0192747D01*
X0261461Y0192750D01*
X0261618Y0192749D01*
X0261776Y0192744D01*
X0261933Y0192735D01*
X0262091Y0192722D01*
X0262247Y0192705D01*
X0262404Y0192684D01*
X0262559Y0192660D01*
X0262714Y0192631D01*
X0262869Y0192598D01*
X0263022Y0192562D01*
X0263175Y0192521D01*
X0263326Y0192477D01*
X0263476Y0192429D01*
X0263625Y0192378D01*
X0263773Y0192322D01*
X0263919Y0192263D01*
X0264064Y0192200D01*
X0264207Y0192133D01*
X0264348Y0192063D01*
X0264487Y0191990D01*
X0264625Y0191913D01*
X0264761Y0191832D01*
X0264894Y0191748D01*
X0265025Y0191661D01*
X0265154Y0191570D01*
X0265281Y0191476D01*
X0265406Y0191379D01*
X0265527Y0191279D01*
X0265647Y0191176D01*
X0265763Y0191070D01*
X0265877Y0190961D01*
X0265989Y0190849D01*
X0266097Y0190735D01*
X0266202Y0190617D01*
X0266305Y0190497D01*
X0266404Y0190375D01*
X0266500Y0190250D01*
X0266593Y0190122D01*
X0266683Y0189993D01*
X0266769Y0189861D01*
X0266853Y0189727D01*
X0266932Y0189591D01*
X0267009Y0189453D01*
X0267081Y0189313D01*
X0267150Y0189171D01*
X0267216Y0189028D01*
X0267278Y0188883D01*
X0267336Y0188736D01*
X0267391Y0188588D01*
X0267442Y0188439D01*
X0267489Y0188288D01*
X0267532Y0188137D01*
X0267571Y0187984D01*
X0267607Y0187830D01*
X0267638Y0187676D01*
X0267666Y0187521D01*
X0267690Y0187365D01*
X0267710Y0187208D01*
X0267726Y0187051D01*
X0267738Y0186894D01*
X0267746Y0186737D01*
X0267750Y0186579D01*
X0267750Y0186421D01*
X0267746Y0186263D01*
X0267738Y0186106D01*
X0267726Y0185949D01*
X0267710Y0185792D01*
X0267690Y0185635D01*
X0267666Y0185479D01*
X0267638Y0185324D01*
X0267607Y0185170D01*
X0267571Y0185016D01*
X0267532Y0184863D01*
X0267489Y0184712D01*
X0267442Y0184561D01*
X0267391Y0184412D01*
X0267336Y0184264D01*
X0267278Y0184117D01*
X0267216Y0183972D01*
X0267150Y0183829D01*
X0267081Y0183687D01*
X0267009Y0183547D01*
X0266932Y0183409D01*
X0266853Y0183273D01*
X0266769Y0183139D01*
X0266683Y0183007D01*
X0266593Y0182878D01*
X0266500Y0182750D01*
X0266404Y0182625D01*
X0266305Y0182503D01*
X0266202Y0182383D01*
X0266097Y0182265D01*
X0265989Y0182151D01*
X0265877Y0182039D01*
X0265763Y0181930D01*
X0265647Y0181824D01*
X0265527Y0181721D01*
X0265406Y0181621D01*
X0265281Y0181524D01*
X0265154Y0181430D01*
X0265025Y0181339D01*
X0264894Y0181252D01*
X0264761Y0181168D01*
X0264625Y0181087D01*
X0264487Y0181010D01*
X0264348Y0180937D01*
X0264207Y0180867D01*
X0264064Y0180800D01*
X0263919Y0180737D01*
X0263773Y0180678D01*
X0263625Y0180622D01*
X0263476Y0180571D01*
X0263326Y0180523D01*
X0263175Y0180479D01*
X0263022Y0180438D01*
X0262869Y0180402D01*
X0262714Y0180369D01*
X0262559Y0180340D01*
X0262404Y0180316D01*
X0262247Y0180295D01*
X0262091Y0180278D01*
X0261933Y0180265D01*
X0261776Y0180256D01*
X0261618Y0180251D01*
X0261461Y0180250D01*
X0261303Y0180253D01*
X0261145Y0180260D01*
X0260988Y0180271D01*
X0260831Y0180286D01*
X0260674Y0180305D01*
X0260518Y0180328D01*
X0260363Y0180354D01*
X0260208Y0180385D01*
X0260054Y0180419D01*
X0259901Y0180458D01*
X0259749Y0180500D01*
X0259599Y0180546D01*
X0259449Y0180596D01*
X0259301Y0180650D01*
X0259154Y0180707D01*
X0259008Y0180768D01*
X0258865Y0180833D01*
X0258722Y0180901D01*
X0258582Y0180973D01*
X0258444Y0181048D01*
X0258307Y0181127D01*
X0258172Y0181209D01*
X0258040Y0181295D01*
X0257910Y0181384D01*
X0257782Y0181476D01*
X0257656Y0181572D01*
X0257533Y0181670D01*
X0257413Y0181772D01*
X0257295Y0181877D01*
X0257179Y0181984D01*
X0257067Y0182095D01*
X0256957Y0182208D01*
X0256850Y0182324D01*
X0256746Y0182442D01*
X0256645Y0182564D01*
X0256548Y0182687D01*
X0256453Y0182814D01*
X0256362Y0182942D01*
X0256273Y0183073D01*
X0256189Y0183206D01*
X0256107Y0183341D01*
X0256029Y0183478D01*
X0255955Y0183617D01*
X0255884Y0183758D01*
X0255816Y0183900D01*
X0255753Y0184045D01*
X0255692Y0184190D01*
X0255636Y0184338D01*
X0255583Y0184486D01*
X0255534Y0184636D01*
X0255489Y0184787D01*
X0255448Y0184940D01*
X0255410Y0185093D01*
X0255377Y0185247D01*
X0255347Y0185402D01*
X0255321Y0185557D01*
X0255300Y0185714D01*
X0255282Y0185870D01*
X0255268Y0186027D01*
X0255258Y0186185D01*
X0255252Y0186342D01*
X0255250Y0186500D01*
X0255250Y0271500D02*
X0255252Y0271658D01*
X0255258Y0271815D01*
X0255268Y0271973D01*
X0255282Y0272130D01*
X0255300Y0272286D01*
X0255321Y0272443D01*
X0255347Y0272598D01*
X0255377Y0272753D01*
X0255410Y0272907D01*
X0255448Y0273060D01*
X0255489Y0273213D01*
X0255534Y0273364D01*
X0255583Y0273514D01*
X0255636Y0273662D01*
X0255692Y0273810D01*
X0255753Y0273955D01*
X0255816Y0274100D01*
X0255884Y0274242D01*
X0255955Y0274383D01*
X0256029Y0274522D01*
X0256107Y0274659D01*
X0256189Y0274794D01*
X0256273Y0274927D01*
X0256362Y0275058D01*
X0256453Y0275186D01*
X0256548Y0275313D01*
X0256645Y0275436D01*
X0256746Y0275558D01*
X0256850Y0275676D01*
X0256957Y0275792D01*
X0257067Y0275905D01*
X0257179Y0276016D01*
X0257295Y0276123D01*
X0257413Y0276228D01*
X0257533Y0276330D01*
X0257656Y0276428D01*
X0257782Y0276524D01*
X0257910Y0276616D01*
X0258040Y0276705D01*
X0258172Y0276791D01*
X0258307Y0276873D01*
X0258444Y0276952D01*
X0258582Y0277027D01*
X0258722Y0277099D01*
X0258865Y0277167D01*
X0259008Y0277232D01*
X0259154Y0277293D01*
X0259301Y0277350D01*
X0259449Y0277404D01*
X0259599Y0277454D01*
X0259749Y0277500D01*
X0259901Y0277542D01*
X0260054Y0277581D01*
X0260208Y0277615D01*
X0260363Y0277646D01*
X0260518Y0277672D01*
X0260674Y0277695D01*
X0260831Y0277714D01*
X0260988Y0277729D01*
X0261145Y0277740D01*
X0261303Y0277747D01*
X0261461Y0277750D01*
X0261618Y0277749D01*
X0261776Y0277744D01*
X0261933Y0277735D01*
X0262091Y0277722D01*
X0262247Y0277705D01*
X0262404Y0277684D01*
X0262559Y0277660D01*
X0262714Y0277631D01*
X0262869Y0277598D01*
X0263022Y0277562D01*
X0263175Y0277521D01*
X0263326Y0277477D01*
X0263476Y0277429D01*
X0263625Y0277378D01*
X0263773Y0277322D01*
X0263919Y0277263D01*
X0264064Y0277200D01*
X0264207Y0277133D01*
X0264348Y0277063D01*
X0264487Y0276990D01*
X0264625Y0276913D01*
X0264761Y0276832D01*
X0264894Y0276748D01*
X0265025Y0276661D01*
X0265154Y0276570D01*
X0265281Y0276476D01*
X0265406Y0276379D01*
X0265527Y0276279D01*
X0265647Y0276176D01*
X0265763Y0276070D01*
X0265877Y0275961D01*
X0265989Y0275849D01*
X0266097Y0275735D01*
X0266202Y0275617D01*
X0266305Y0275497D01*
X0266404Y0275375D01*
X0266500Y0275250D01*
X0266593Y0275122D01*
X0266683Y0274993D01*
X0266769Y0274861D01*
X0266853Y0274727D01*
X0266932Y0274591D01*
X0267009Y0274453D01*
X0267081Y0274313D01*
X0267150Y0274171D01*
X0267216Y0274028D01*
X0267278Y0273883D01*
X0267336Y0273736D01*
X0267391Y0273588D01*
X0267442Y0273439D01*
X0267489Y0273288D01*
X0267532Y0273137D01*
X0267571Y0272984D01*
X0267607Y0272830D01*
X0267638Y0272676D01*
X0267666Y0272521D01*
X0267690Y0272365D01*
X0267710Y0272208D01*
X0267726Y0272051D01*
X0267738Y0271894D01*
X0267746Y0271737D01*
X0267750Y0271579D01*
X0267750Y0271421D01*
X0267746Y0271263D01*
X0267738Y0271106D01*
X0267726Y0270949D01*
X0267710Y0270792D01*
X0267690Y0270635D01*
X0267666Y0270479D01*
X0267638Y0270324D01*
X0267607Y0270170D01*
X0267571Y0270016D01*
X0267532Y0269863D01*
X0267489Y0269712D01*
X0267442Y0269561D01*
X0267391Y0269412D01*
X0267336Y0269264D01*
X0267278Y0269117D01*
X0267216Y0268972D01*
X0267150Y0268829D01*
X0267081Y0268687D01*
X0267009Y0268547D01*
X0266932Y0268409D01*
X0266853Y0268273D01*
X0266769Y0268139D01*
X0266683Y0268007D01*
X0266593Y0267878D01*
X0266500Y0267750D01*
X0266404Y0267625D01*
X0266305Y0267503D01*
X0266202Y0267383D01*
X0266097Y0267265D01*
X0265989Y0267151D01*
X0265877Y0267039D01*
X0265763Y0266930D01*
X0265647Y0266824D01*
X0265527Y0266721D01*
X0265406Y0266621D01*
X0265281Y0266524D01*
X0265154Y0266430D01*
X0265025Y0266339D01*
X0264894Y0266252D01*
X0264761Y0266168D01*
X0264625Y0266087D01*
X0264487Y0266010D01*
X0264348Y0265937D01*
X0264207Y0265867D01*
X0264064Y0265800D01*
X0263919Y0265737D01*
X0263773Y0265678D01*
X0263625Y0265622D01*
X0263476Y0265571D01*
X0263326Y0265523D01*
X0263175Y0265479D01*
X0263022Y0265438D01*
X0262869Y0265402D01*
X0262714Y0265369D01*
X0262559Y0265340D01*
X0262404Y0265316D01*
X0262247Y0265295D01*
X0262091Y0265278D01*
X0261933Y0265265D01*
X0261776Y0265256D01*
X0261618Y0265251D01*
X0261461Y0265250D01*
X0261303Y0265253D01*
X0261145Y0265260D01*
X0260988Y0265271D01*
X0260831Y0265286D01*
X0260674Y0265305D01*
X0260518Y0265328D01*
X0260363Y0265354D01*
X0260208Y0265385D01*
X0260054Y0265419D01*
X0259901Y0265458D01*
X0259749Y0265500D01*
X0259599Y0265546D01*
X0259449Y0265596D01*
X0259301Y0265650D01*
X0259154Y0265707D01*
X0259008Y0265768D01*
X0258865Y0265833D01*
X0258722Y0265901D01*
X0258582Y0265973D01*
X0258444Y0266048D01*
X0258307Y0266127D01*
X0258172Y0266209D01*
X0258040Y0266295D01*
X0257910Y0266384D01*
X0257782Y0266476D01*
X0257656Y0266572D01*
X0257533Y0266670D01*
X0257413Y0266772D01*
X0257295Y0266877D01*
X0257179Y0266984D01*
X0257067Y0267095D01*
X0256957Y0267208D01*
X0256850Y0267324D01*
X0256746Y0267442D01*
X0256645Y0267564D01*
X0256548Y0267687D01*
X0256453Y0267814D01*
X0256362Y0267942D01*
X0256273Y0268073D01*
X0256189Y0268206D01*
X0256107Y0268341D01*
X0256029Y0268478D01*
X0255955Y0268617D01*
X0255884Y0268758D01*
X0255816Y0268900D01*
X0255753Y0269045D01*
X0255692Y0269190D01*
X0255636Y0269338D01*
X0255583Y0269486D01*
X0255534Y0269636D01*
X0255489Y0269787D01*
X0255448Y0269940D01*
X0255410Y0270093D01*
X0255377Y0270247D01*
X0255347Y0270402D01*
X0255321Y0270557D01*
X0255300Y0270714D01*
X0255282Y0270870D01*
X0255268Y0271027D01*
X0255258Y0271185D01*
X0255252Y0271342D01*
X0255250Y0271500D01*
X0227250Y0331200D02*
X0227252Y0331337D01*
X0227258Y0331473D01*
X0227268Y0331610D01*
X0227282Y0331746D01*
X0227300Y0331881D01*
X0227321Y0332016D01*
X0227347Y0332150D01*
X0227377Y0332284D01*
X0227410Y0332416D01*
X0227447Y0332548D01*
X0227489Y0332678D01*
X0227533Y0332807D01*
X0227582Y0332935D01*
X0227634Y0333062D01*
X0227690Y0333186D01*
X0227750Y0333309D01*
X0227813Y0333431D01*
X0227880Y0333550D01*
X0227950Y0333667D01*
X0228023Y0333783D01*
X0228100Y0333896D01*
X0228180Y0334007D01*
X0228263Y0334115D01*
X0228350Y0334221D01*
X0228439Y0334325D01*
X0228531Y0334425D01*
X0228627Y0334523D01*
X0228725Y0334619D01*
X0228825Y0334711D01*
X0228929Y0334800D01*
X0229035Y0334887D01*
X0229143Y0334970D01*
X0229254Y0335050D01*
X0229367Y0335127D01*
X0229483Y0335200D01*
X0229600Y0335270D01*
X0229719Y0335337D01*
X0229841Y0335400D01*
X0229964Y0335460D01*
X0230088Y0335516D01*
X0230215Y0335568D01*
X0230343Y0335617D01*
X0230472Y0335661D01*
X0230602Y0335703D01*
X0230734Y0335740D01*
X0230866Y0335773D01*
X0231000Y0335803D01*
X0231134Y0335829D01*
X0231269Y0335850D01*
X0231404Y0335868D01*
X0231540Y0335882D01*
X0231677Y0335892D01*
X0231813Y0335898D01*
X0231950Y0335900D01*
X0232087Y0335898D01*
X0232223Y0335892D01*
X0232360Y0335882D01*
X0232496Y0335868D01*
X0232631Y0335850D01*
X0232766Y0335829D01*
X0232900Y0335803D01*
X0233034Y0335773D01*
X0233166Y0335740D01*
X0233298Y0335703D01*
X0233428Y0335661D01*
X0233557Y0335617D01*
X0233685Y0335568D01*
X0233812Y0335516D01*
X0233936Y0335460D01*
X0234059Y0335400D01*
X0234181Y0335337D01*
X0234300Y0335270D01*
X0234417Y0335200D01*
X0234533Y0335127D01*
X0234646Y0335050D01*
X0234757Y0334970D01*
X0234865Y0334887D01*
X0234971Y0334800D01*
X0235075Y0334711D01*
X0235175Y0334619D01*
X0235273Y0334523D01*
X0235369Y0334425D01*
X0235461Y0334325D01*
X0235550Y0334221D01*
X0235637Y0334115D01*
X0235720Y0334007D01*
X0235800Y0333896D01*
X0235877Y0333783D01*
X0235950Y0333667D01*
X0236020Y0333550D01*
X0236087Y0333431D01*
X0236150Y0333309D01*
X0236210Y0333186D01*
X0236266Y0333062D01*
X0236318Y0332935D01*
X0236367Y0332807D01*
X0236411Y0332678D01*
X0236453Y0332548D01*
X0236490Y0332416D01*
X0236523Y0332284D01*
X0236553Y0332150D01*
X0236579Y0332016D01*
X0236600Y0331881D01*
X0236618Y0331746D01*
X0236632Y0331610D01*
X0236642Y0331473D01*
X0236648Y0331337D01*
X0236650Y0331200D01*
X0236648Y0331063D01*
X0236642Y0330927D01*
X0236632Y0330790D01*
X0236618Y0330654D01*
X0236600Y0330519D01*
X0236579Y0330384D01*
X0236553Y0330250D01*
X0236523Y0330116D01*
X0236490Y0329984D01*
X0236453Y0329852D01*
X0236411Y0329722D01*
X0236367Y0329593D01*
X0236318Y0329465D01*
X0236266Y0329338D01*
X0236210Y0329214D01*
X0236150Y0329091D01*
X0236087Y0328969D01*
X0236020Y0328850D01*
X0235950Y0328733D01*
X0235877Y0328617D01*
X0235800Y0328504D01*
X0235720Y0328393D01*
X0235637Y0328285D01*
X0235550Y0328179D01*
X0235461Y0328075D01*
X0235369Y0327975D01*
X0235273Y0327877D01*
X0235175Y0327781D01*
X0235075Y0327689D01*
X0234971Y0327600D01*
X0234865Y0327513D01*
X0234757Y0327430D01*
X0234646Y0327350D01*
X0234533Y0327273D01*
X0234417Y0327200D01*
X0234300Y0327130D01*
X0234181Y0327063D01*
X0234059Y0327000D01*
X0233936Y0326940D01*
X0233812Y0326884D01*
X0233685Y0326832D01*
X0233557Y0326783D01*
X0233428Y0326739D01*
X0233298Y0326697D01*
X0233166Y0326660D01*
X0233034Y0326627D01*
X0232900Y0326597D01*
X0232766Y0326571D01*
X0232631Y0326550D01*
X0232496Y0326532D01*
X0232360Y0326518D01*
X0232223Y0326508D01*
X0232087Y0326502D01*
X0231950Y0326500D01*
X0231813Y0326502D01*
X0231677Y0326508D01*
X0231540Y0326518D01*
X0231404Y0326532D01*
X0231269Y0326550D01*
X0231134Y0326571D01*
X0231000Y0326597D01*
X0230866Y0326627D01*
X0230734Y0326660D01*
X0230602Y0326697D01*
X0230472Y0326739D01*
X0230343Y0326783D01*
X0230215Y0326832D01*
X0230088Y0326884D01*
X0229964Y0326940D01*
X0229841Y0327000D01*
X0229719Y0327063D01*
X0229600Y0327130D01*
X0229483Y0327200D01*
X0229367Y0327273D01*
X0229254Y0327350D01*
X0229143Y0327430D01*
X0229035Y0327513D01*
X0228929Y0327600D01*
X0228825Y0327689D01*
X0228725Y0327781D01*
X0228627Y0327877D01*
X0228531Y0327975D01*
X0228439Y0328075D01*
X0228350Y0328179D01*
X0228263Y0328285D01*
X0228180Y0328393D01*
X0228100Y0328504D01*
X0228023Y0328617D01*
X0227950Y0328733D01*
X0227880Y0328850D01*
X0227813Y0328969D01*
X0227750Y0329091D01*
X0227690Y0329214D01*
X0227634Y0329338D01*
X0227582Y0329465D01*
X0227533Y0329593D01*
X0227489Y0329722D01*
X0227447Y0329852D01*
X0227410Y0329984D01*
X0227377Y0330116D01*
X0227347Y0330250D01*
X0227321Y0330384D01*
X0227300Y0330519D01*
X0227282Y0330654D01*
X0227268Y0330790D01*
X0227258Y0330927D01*
X0227252Y0331063D01*
X0227250Y0331200D01*
X0196350Y0331200D02*
X0196352Y0331337D01*
X0196358Y0331473D01*
X0196368Y0331610D01*
X0196382Y0331746D01*
X0196400Y0331881D01*
X0196421Y0332016D01*
X0196447Y0332150D01*
X0196477Y0332284D01*
X0196510Y0332416D01*
X0196547Y0332548D01*
X0196589Y0332678D01*
X0196633Y0332807D01*
X0196682Y0332935D01*
X0196734Y0333062D01*
X0196790Y0333186D01*
X0196850Y0333309D01*
X0196913Y0333431D01*
X0196980Y0333550D01*
X0197050Y0333667D01*
X0197123Y0333783D01*
X0197200Y0333896D01*
X0197280Y0334007D01*
X0197363Y0334115D01*
X0197450Y0334221D01*
X0197539Y0334325D01*
X0197631Y0334425D01*
X0197727Y0334523D01*
X0197825Y0334619D01*
X0197925Y0334711D01*
X0198029Y0334800D01*
X0198135Y0334887D01*
X0198243Y0334970D01*
X0198354Y0335050D01*
X0198467Y0335127D01*
X0198583Y0335200D01*
X0198700Y0335270D01*
X0198819Y0335337D01*
X0198941Y0335400D01*
X0199064Y0335460D01*
X0199188Y0335516D01*
X0199315Y0335568D01*
X0199443Y0335617D01*
X0199572Y0335661D01*
X0199702Y0335703D01*
X0199834Y0335740D01*
X0199966Y0335773D01*
X0200100Y0335803D01*
X0200234Y0335829D01*
X0200369Y0335850D01*
X0200504Y0335868D01*
X0200640Y0335882D01*
X0200777Y0335892D01*
X0200913Y0335898D01*
X0201050Y0335900D01*
X0201187Y0335898D01*
X0201323Y0335892D01*
X0201460Y0335882D01*
X0201596Y0335868D01*
X0201731Y0335850D01*
X0201866Y0335829D01*
X0202000Y0335803D01*
X0202134Y0335773D01*
X0202266Y0335740D01*
X0202398Y0335703D01*
X0202528Y0335661D01*
X0202657Y0335617D01*
X0202785Y0335568D01*
X0202912Y0335516D01*
X0203036Y0335460D01*
X0203159Y0335400D01*
X0203281Y0335337D01*
X0203400Y0335270D01*
X0203517Y0335200D01*
X0203633Y0335127D01*
X0203746Y0335050D01*
X0203857Y0334970D01*
X0203965Y0334887D01*
X0204071Y0334800D01*
X0204175Y0334711D01*
X0204275Y0334619D01*
X0204373Y0334523D01*
X0204469Y0334425D01*
X0204561Y0334325D01*
X0204650Y0334221D01*
X0204737Y0334115D01*
X0204820Y0334007D01*
X0204900Y0333896D01*
X0204977Y0333783D01*
X0205050Y0333667D01*
X0205120Y0333550D01*
X0205187Y0333431D01*
X0205250Y0333309D01*
X0205310Y0333186D01*
X0205366Y0333062D01*
X0205418Y0332935D01*
X0205467Y0332807D01*
X0205511Y0332678D01*
X0205553Y0332548D01*
X0205590Y0332416D01*
X0205623Y0332284D01*
X0205653Y0332150D01*
X0205679Y0332016D01*
X0205700Y0331881D01*
X0205718Y0331746D01*
X0205732Y0331610D01*
X0205742Y0331473D01*
X0205748Y0331337D01*
X0205750Y0331200D01*
X0205748Y0331063D01*
X0205742Y0330927D01*
X0205732Y0330790D01*
X0205718Y0330654D01*
X0205700Y0330519D01*
X0205679Y0330384D01*
X0205653Y0330250D01*
X0205623Y0330116D01*
X0205590Y0329984D01*
X0205553Y0329852D01*
X0205511Y0329722D01*
X0205467Y0329593D01*
X0205418Y0329465D01*
X0205366Y0329338D01*
X0205310Y0329214D01*
X0205250Y0329091D01*
X0205187Y0328969D01*
X0205120Y0328850D01*
X0205050Y0328733D01*
X0204977Y0328617D01*
X0204900Y0328504D01*
X0204820Y0328393D01*
X0204737Y0328285D01*
X0204650Y0328179D01*
X0204561Y0328075D01*
X0204469Y0327975D01*
X0204373Y0327877D01*
X0204275Y0327781D01*
X0204175Y0327689D01*
X0204071Y0327600D01*
X0203965Y0327513D01*
X0203857Y0327430D01*
X0203746Y0327350D01*
X0203633Y0327273D01*
X0203517Y0327200D01*
X0203400Y0327130D01*
X0203281Y0327063D01*
X0203159Y0327000D01*
X0203036Y0326940D01*
X0202912Y0326884D01*
X0202785Y0326832D01*
X0202657Y0326783D01*
X0202528Y0326739D01*
X0202398Y0326697D01*
X0202266Y0326660D01*
X0202134Y0326627D01*
X0202000Y0326597D01*
X0201866Y0326571D01*
X0201731Y0326550D01*
X0201596Y0326532D01*
X0201460Y0326518D01*
X0201323Y0326508D01*
X0201187Y0326502D01*
X0201050Y0326500D01*
X0200913Y0326502D01*
X0200777Y0326508D01*
X0200640Y0326518D01*
X0200504Y0326532D01*
X0200369Y0326550D01*
X0200234Y0326571D01*
X0200100Y0326597D01*
X0199966Y0326627D01*
X0199834Y0326660D01*
X0199702Y0326697D01*
X0199572Y0326739D01*
X0199443Y0326783D01*
X0199315Y0326832D01*
X0199188Y0326884D01*
X0199064Y0326940D01*
X0198941Y0327000D01*
X0198819Y0327063D01*
X0198700Y0327130D01*
X0198583Y0327200D01*
X0198467Y0327273D01*
X0198354Y0327350D01*
X0198243Y0327430D01*
X0198135Y0327513D01*
X0198029Y0327600D01*
X0197925Y0327689D01*
X0197825Y0327781D01*
X0197727Y0327877D01*
X0197631Y0327975D01*
X0197539Y0328075D01*
X0197450Y0328179D01*
X0197363Y0328285D01*
X0197280Y0328393D01*
X0197200Y0328504D01*
X0197123Y0328617D01*
X0197050Y0328733D01*
X0196980Y0328850D01*
X0196913Y0328969D01*
X0196850Y0329091D01*
X0196790Y0329214D01*
X0196734Y0329338D01*
X0196682Y0329465D01*
X0196633Y0329593D01*
X0196589Y0329722D01*
X0196547Y0329852D01*
X0196510Y0329984D01*
X0196477Y0330116D01*
X0196447Y0330250D01*
X0196421Y0330384D01*
X0196400Y0330519D01*
X0196382Y0330654D01*
X0196368Y0330790D01*
X0196358Y0330927D01*
X0196352Y0331063D01*
X0196350Y0331200D01*
X0137250Y0331200D02*
X0137252Y0331337D01*
X0137258Y0331473D01*
X0137268Y0331610D01*
X0137282Y0331746D01*
X0137300Y0331881D01*
X0137321Y0332016D01*
X0137347Y0332150D01*
X0137377Y0332284D01*
X0137410Y0332416D01*
X0137447Y0332548D01*
X0137489Y0332678D01*
X0137533Y0332807D01*
X0137582Y0332935D01*
X0137634Y0333062D01*
X0137690Y0333186D01*
X0137750Y0333309D01*
X0137813Y0333431D01*
X0137880Y0333550D01*
X0137950Y0333667D01*
X0138023Y0333783D01*
X0138100Y0333896D01*
X0138180Y0334007D01*
X0138263Y0334115D01*
X0138350Y0334221D01*
X0138439Y0334325D01*
X0138531Y0334425D01*
X0138627Y0334523D01*
X0138725Y0334619D01*
X0138825Y0334711D01*
X0138929Y0334800D01*
X0139035Y0334887D01*
X0139143Y0334970D01*
X0139254Y0335050D01*
X0139367Y0335127D01*
X0139483Y0335200D01*
X0139600Y0335270D01*
X0139719Y0335337D01*
X0139841Y0335400D01*
X0139964Y0335460D01*
X0140088Y0335516D01*
X0140215Y0335568D01*
X0140343Y0335617D01*
X0140472Y0335661D01*
X0140602Y0335703D01*
X0140734Y0335740D01*
X0140866Y0335773D01*
X0141000Y0335803D01*
X0141134Y0335829D01*
X0141269Y0335850D01*
X0141404Y0335868D01*
X0141540Y0335882D01*
X0141677Y0335892D01*
X0141813Y0335898D01*
X0141950Y0335900D01*
X0142087Y0335898D01*
X0142223Y0335892D01*
X0142360Y0335882D01*
X0142496Y0335868D01*
X0142631Y0335850D01*
X0142766Y0335829D01*
X0142900Y0335803D01*
X0143034Y0335773D01*
X0143166Y0335740D01*
X0143298Y0335703D01*
X0143428Y0335661D01*
X0143557Y0335617D01*
X0143685Y0335568D01*
X0143812Y0335516D01*
X0143936Y0335460D01*
X0144059Y0335400D01*
X0144181Y0335337D01*
X0144300Y0335270D01*
X0144417Y0335200D01*
X0144533Y0335127D01*
X0144646Y0335050D01*
X0144757Y0334970D01*
X0144865Y0334887D01*
X0144971Y0334800D01*
X0145075Y0334711D01*
X0145175Y0334619D01*
X0145273Y0334523D01*
X0145369Y0334425D01*
X0145461Y0334325D01*
X0145550Y0334221D01*
X0145637Y0334115D01*
X0145720Y0334007D01*
X0145800Y0333896D01*
X0145877Y0333783D01*
X0145950Y0333667D01*
X0146020Y0333550D01*
X0146087Y0333431D01*
X0146150Y0333309D01*
X0146210Y0333186D01*
X0146266Y0333062D01*
X0146318Y0332935D01*
X0146367Y0332807D01*
X0146411Y0332678D01*
X0146453Y0332548D01*
X0146490Y0332416D01*
X0146523Y0332284D01*
X0146553Y0332150D01*
X0146579Y0332016D01*
X0146600Y0331881D01*
X0146618Y0331746D01*
X0146632Y0331610D01*
X0146642Y0331473D01*
X0146648Y0331337D01*
X0146650Y0331200D01*
X0146648Y0331063D01*
X0146642Y0330927D01*
X0146632Y0330790D01*
X0146618Y0330654D01*
X0146600Y0330519D01*
X0146579Y0330384D01*
X0146553Y0330250D01*
X0146523Y0330116D01*
X0146490Y0329984D01*
X0146453Y0329852D01*
X0146411Y0329722D01*
X0146367Y0329593D01*
X0146318Y0329465D01*
X0146266Y0329338D01*
X0146210Y0329214D01*
X0146150Y0329091D01*
X0146087Y0328969D01*
X0146020Y0328850D01*
X0145950Y0328733D01*
X0145877Y0328617D01*
X0145800Y0328504D01*
X0145720Y0328393D01*
X0145637Y0328285D01*
X0145550Y0328179D01*
X0145461Y0328075D01*
X0145369Y0327975D01*
X0145273Y0327877D01*
X0145175Y0327781D01*
X0145075Y0327689D01*
X0144971Y0327600D01*
X0144865Y0327513D01*
X0144757Y0327430D01*
X0144646Y0327350D01*
X0144533Y0327273D01*
X0144417Y0327200D01*
X0144300Y0327130D01*
X0144181Y0327063D01*
X0144059Y0327000D01*
X0143936Y0326940D01*
X0143812Y0326884D01*
X0143685Y0326832D01*
X0143557Y0326783D01*
X0143428Y0326739D01*
X0143298Y0326697D01*
X0143166Y0326660D01*
X0143034Y0326627D01*
X0142900Y0326597D01*
X0142766Y0326571D01*
X0142631Y0326550D01*
X0142496Y0326532D01*
X0142360Y0326518D01*
X0142223Y0326508D01*
X0142087Y0326502D01*
X0141950Y0326500D01*
X0141813Y0326502D01*
X0141677Y0326508D01*
X0141540Y0326518D01*
X0141404Y0326532D01*
X0141269Y0326550D01*
X0141134Y0326571D01*
X0141000Y0326597D01*
X0140866Y0326627D01*
X0140734Y0326660D01*
X0140602Y0326697D01*
X0140472Y0326739D01*
X0140343Y0326783D01*
X0140215Y0326832D01*
X0140088Y0326884D01*
X0139964Y0326940D01*
X0139841Y0327000D01*
X0139719Y0327063D01*
X0139600Y0327130D01*
X0139483Y0327200D01*
X0139367Y0327273D01*
X0139254Y0327350D01*
X0139143Y0327430D01*
X0139035Y0327513D01*
X0138929Y0327600D01*
X0138825Y0327689D01*
X0138725Y0327781D01*
X0138627Y0327877D01*
X0138531Y0327975D01*
X0138439Y0328075D01*
X0138350Y0328179D01*
X0138263Y0328285D01*
X0138180Y0328393D01*
X0138100Y0328504D01*
X0138023Y0328617D01*
X0137950Y0328733D01*
X0137880Y0328850D01*
X0137813Y0328969D01*
X0137750Y0329091D01*
X0137690Y0329214D01*
X0137634Y0329338D01*
X0137582Y0329465D01*
X0137533Y0329593D01*
X0137489Y0329722D01*
X0137447Y0329852D01*
X0137410Y0329984D01*
X0137377Y0330116D01*
X0137347Y0330250D01*
X0137321Y0330384D01*
X0137300Y0330519D01*
X0137282Y0330654D01*
X0137268Y0330790D01*
X0137258Y0330927D01*
X0137252Y0331063D01*
X0137250Y0331200D01*
X0090000Y0340500D02*
X0090002Y0340661D01*
X0090008Y0340821D01*
X0090018Y0340982D01*
X0090032Y0341142D01*
X0090050Y0341302D01*
X0090071Y0341461D01*
X0090097Y0341620D01*
X0090127Y0341778D01*
X0090160Y0341935D01*
X0090198Y0342092D01*
X0090239Y0342247D01*
X0090284Y0342401D01*
X0090333Y0342554D01*
X0090386Y0342706D01*
X0090442Y0342857D01*
X0090503Y0343006D01*
X0090566Y0343154D01*
X0090634Y0343300D01*
X0090705Y0343444D01*
X0090779Y0343586D01*
X0090857Y0343727D01*
X0090939Y0343865D01*
X0091024Y0344002D01*
X0091112Y0344136D01*
X0091204Y0344268D01*
X0091299Y0344398D01*
X0091397Y0344526D01*
X0091498Y0344651D01*
X0091602Y0344773D01*
X0091709Y0344893D01*
X0091819Y0345010D01*
X0091932Y0345125D01*
X0092048Y0345236D01*
X0092167Y0345345D01*
X0092288Y0345450D01*
X0092412Y0345553D01*
X0092538Y0345653D01*
X0092666Y0345749D01*
X0092797Y0345842D01*
X0092931Y0345932D01*
X0093066Y0346019D01*
X0093204Y0346102D01*
X0093343Y0346182D01*
X0093485Y0346258D01*
X0093628Y0346331D01*
X0093773Y0346400D01*
X0093920Y0346466D01*
X0094068Y0346528D01*
X0094218Y0346586D01*
X0094369Y0346641D01*
X0094522Y0346692D01*
X0094676Y0346739D01*
X0094831Y0346782D01*
X0094987Y0346821D01*
X0095143Y0346857D01*
X0095301Y0346888D01*
X0095459Y0346916D01*
X0095618Y0346940D01*
X0095778Y0346960D01*
X0095938Y0346976D01*
X0096098Y0346988D01*
X0096259Y0346996D01*
X0096420Y0347000D01*
X0096580Y0347000D01*
X0096741Y0346996D01*
X0096902Y0346988D01*
X0097062Y0346976D01*
X0097222Y0346960D01*
X0097382Y0346940D01*
X0097541Y0346916D01*
X0097699Y0346888D01*
X0097857Y0346857D01*
X0098013Y0346821D01*
X0098169Y0346782D01*
X0098324Y0346739D01*
X0098478Y0346692D01*
X0098631Y0346641D01*
X0098782Y0346586D01*
X0098932Y0346528D01*
X0099080Y0346466D01*
X0099227Y0346400D01*
X0099372Y0346331D01*
X0099515Y0346258D01*
X0099657Y0346182D01*
X0099796Y0346102D01*
X0099934Y0346019D01*
X0100069Y0345932D01*
X0100203Y0345842D01*
X0100334Y0345749D01*
X0100462Y0345653D01*
X0100588Y0345553D01*
X0100712Y0345450D01*
X0100833Y0345345D01*
X0100952Y0345236D01*
X0101068Y0345125D01*
X0101181Y0345010D01*
X0101291Y0344893D01*
X0101398Y0344773D01*
X0101502Y0344651D01*
X0101603Y0344526D01*
X0101701Y0344398D01*
X0101796Y0344268D01*
X0101888Y0344136D01*
X0101976Y0344002D01*
X0102061Y0343865D01*
X0102143Y0343727D01*
X0102221Y0343586D01*
X0102295Y0343444D01*
X0102366Y0343300D01*
X0102434Y0343154D01*
X0102497Y0343006D01*
X0102558Y0342857D01*
X0102614Y0342706D01*
X0102667Y0342554D01*
X0102716Y0342401D01*
X0102761Y0342247D01*
X0102802Y0342092D01*
X0102840Y0341935D01*
X0102873Y0341778D01*
X0102903Y0341620D01*
X0102929Y0341461D01*
X0102950Y0341302D01*
X0102968Y0341142D01*
X0102982Y0340982D01*
X0102992Y0340821D01*
X0102998Y0340661D01*
X0103000Y0340500D01*
X0102998Y0340339D01*
X0102992Y0340179D01*
X0102982Y0340018D01*
X0102968Y0339858D01*
X0102950Y0339698D01*
X0102929Y0339539D01*
X0102903Y0339380D01*
X0102873Y0339222D01*
X0102840Y0339065D01*
X0102802Y0338908D01*
X0102761Y0338753D01*
X0102716Y0338599D01*
X0102667Y0338446D01*
X0102614Y0338294D01*
X0102558Y0338143D01*
X0102497Y0337994D01*
X0102434Y0337846D01*
X0102366Y0337700D01*
X0102295Y0337556D01*
X0102221Y0337414D01*
X0102143Y0337273D01*
X0102061Y0337135D01*
X0101976Y0336998D01*
X0101888Y0336864D01*
X0101796Y0336732D01*
X0101701Y0336602D01*
X0101603Y0336474D01*
X0101502Y0336349D01*
X0101398Y0336227D01*
X0101291Y0336107D01*
X0101181Y0335990D01*
X0101068Y0335875D01*
X0100952Y0335764D01*
X0100833Y0335655D01*
X0100712Y0335550D01*
X0100588Y0335447D01*
X0100462Y0335347D01*
X0100334Y0335251D01*
X0100203Y0335158D01*
X0100069Y0335068D01*
X0099934Y0334981D01*
X0099796Y0334898D01*
X0099657Y0334818D01*
X0099515Y0334742D01*
X0099372Y0334669D01*
X0099227Y0334600D01*
X0099080Y0334534D01*
X0098932Y0334472D01*
X0098782Y0334414D01*
X0098631Y0334359D01*
X0098478Y0334308D01*
X0098324Y0334261D01*
X0098169Y0334218D01*
X0098013Y0334179D01*
X0097857Y0334143D01*
X0097699Y0334112D01*
X0097541Y0334084D01*
X0097382Y0334060D01*
X0097222Y0334040D01*
X0097062Y0334024D01*
X0096902Y0334012D01*
X0096741Y0334004D01*
X0096580Y0334000D01*
X0096420Y0334000D01*
X0096259Y0334004D01*
X0096098Y0334012D01*
X0095938Y0334024D01*
X0095778Y0334040D01*
X0095618Y0334060D01*
X0095459Y0334084D01*
X0095301Y0334112D01*
X0095143Y0334143D01*
X0094987Y0334179D01*
X0094831Y0334218D01*
X0094676Y0334261D01*
X0094522Y0334308D01*
X0094369Y0334359D01*
X0094218Y0334414D01*
X0094068Y0334472D01*
X0093920Y0334534D01*
X0093773Y0334600D01*
X0093628Y0334669D01*
X0093485Y0334742D01*
X0093343Y0334818D01*
X0093204Y0334898D01*
X0093066Y0334981D01*
X0092931Y0335068D01*
X0092797Y0335158D01*
X0092666Y0335251D01*
X0092538Y0335347D01*
X0092412Y0335447D01*
X0092288Y0335550D01*
X0092167Y0335655D01*
X0092048Y0335764D01*
X0091932Y0335875D01*
X0091819Y0335990D01*
X0091709Y0336107D01*
X0091602Y0336227D01*
X0091498Y0336349D01*
X0091397Y0336474D01*
X0091299Y0336602D01*
X0091204Y0336732D01*
X0091112Y0336864D01*
X0091024Y0336998D01*
X0090939Y0337135D01*
X0090857Y0337273D01*
X0090779Y0337414D01*
X0090705Y0337556D01*
X0090634Y0337700D01*
X0090566Y0337846D01*
X0090503Y0337994D01*
X0090442Y0338143D01*
X0090386Y0338294D01*
X0090333Y0338446D01*
X0090284Y0338599D01*
X0090239Y0338753D01*
X0090198Y0338908D01*
X0090160Y0339065D01*
X0090127Y0339222D01*
X0090097Y0339380D01*
X0090071Y0339539D01*
X0090050Y0339698D01*
X0090032Y0339858D01*
X0090018Y0340018D01*
X0090008Y0340179D01*
X0090002Y0340339D01*
X0090000Y0340500D01*
X0015250Y0341500D02*
X0015252Y0341658D01*
X0015258Y0341815D01*
X0015268Y0341973D01*
X0015282Y0342130D01*
X0015300Y0342286D01*
X0015321Y0342443D01*
X0015347Y0342598D01*
X0015377Y0342753D01*
X0015410Y0342907D01*
X0015448Y0343060D01*
X0015489Y0343213D01*
X0015534Y0343364D01*
X0015583Y0343514D01*
X0015636Y0343662D01*
X0015692Y0343810D01*
X0015753Y0343955D01*
X0015816Y0344100D01*
X0015884Y0344242D01*
X0015955Y0344383D01*
X0016029Y0344522D01*
X0016107Y0344659D01*
X0016189Y0344794D01*
X0016273Y0344927D01*
X0016362Y0345058D01*
X0016453Y0345186D01*
X0016548Y0345313D01*
X0016645Y0345436D01*
X0016746Y0345558D01*
X0016850Y0345676D01*
X0016957Y0345792D01*
X0017067Y0345905D01*
X0017179Y0346016D01*
X0017295Y0346123D01*
X0017413Y0346228D01*
X0017533Y0346330D01*
X0017656Y0346428D01*
X0017782Y0346524D01*
X0017910Y0346616D01*
X0018040Y0346705D01*
X0018172Y0346791D01*
X0018307Y0346873D01*
X0018444Y0346952D01*
X0018582Y0347027D01*
X0018722Y0347099D01*
X0018865Y0347167D01*
X0019008Y0347232D01*
X0019154Y0347293D01*
X0019301Y0347350D01*
X0019449Y0347404D01*
X0019599Y0347454D01*
X0019749Y0347500D01*
X0019901Y0347542D01*
X0020054Y0347581D01*
X0020208Y0347615D01*
X0020363Y0347646D01*
X0020518Y0347672D01*
X0020674Y0347695D01*
X0020831Y0347714D01*
X0020988Y0347729D01*
X0021145Y0347740D01*
X0021303Y0347747D01*
X0021461Y0347750D01*
X0021618Y0347749D01*
X0021776Y0347744D01*
X0021933Y0347735D01*
X0022091Y0347722D01*
X0022247Y0347705D01*
X0022404Y0347684D01*
X0022559Y0347660D01*
X0022714Y0347631D01*
X0022869Y0347598D01*
X0023022Y0347562D01*
X0023175Y0347521D01*
X0023326Y0347477D01*
X0023476Y0347429D01*
X0023625Y0347378D01*
X0023773Y0347322D01*
X0023919Y0347263D01*
X0024064Y0347200D01*
X0024207Y0347133D01*
X0024348Y0347063D01*
X0024487Y0346990D01*
X0024625Y0346913D01*
X0024761Y0346832D01*
X0024894Y0346748D01*
X0025025Y0346661D01*
X0025154Y0346570D01*
X0025281Y0346476D01*
X0025406Y0346379D01*
X0025527Y0346279D01*
X0025647Y0346176D01*
X0025763Y0346070D01*
X0025877Y0345961D01*
X0025989Y0345849D01*
X0026097Y0345735D01*
X0026202Y0345617D01*
X0026305Y0345497D01*
X0026404Y0345375D01*
X0026500Y0345250D01*
X0026593Y0345122D01*
X0026683Y0344993D01*
X0026769Y0344861D01*
X0026853Y0344727D01*
X0026932Y0344591D01*
X0027009Y0344453D01*
X0027081Y0344313D01*
X0027150Y0344171D01*
X0027216Y0344028D01*
X0027278Y0343883D01*
X0027336Y0343736D01*
X0027391Y0343588D01*
X0027442Y0343439D01*
X0027489Y0343288D01*
X0027532Y0343137D01*
X0027571Y0342984D01*
X0027607Y0342830D01*
X0027638Y0342676D01*
X0027666Y0342521D01*
X0027690Y0342365D01*
X0027710Y0342208D01*
X0027726Y0342051D01*
X0027738Y0341894D01*
X0027746Y0341737D01*
X0027750Y0341579D01*
X0027750Y0341421D01*
X0027746Y0341263D01*
X0027738Y0341106D01*
X0027726Y0340949D01*
X0027710Y0340792D01*
X0027690Y0340635D01*
X0027666Y0340479D01*
X0027638Y0340324D01*
X0027607Y0340170D01*
X0027571Y0340016D01*
X0027532Y0339863D01*
X0027489Y0339712D01*
X0027442Y0339561D01*
X0027391Y0339412D01*
X0027336Y0339264D01*
X0027278Y0339117D01*
X0027216Y0338972D01*
X0027150Y0338829D01*
X0027081Y0338687D01*
X0027009Y0338547D01*
X0026932Y0338409D01*
X0026853Y0338273D01*
X0026769Y0338139D01*
X0026683Y0338007D01*
X0026593Y0337878D01*
X0026500Y0337750D01*
X0026404Y0337625D01*
X0026305Y0337503D01*
X0026202Y0337383D01*
X0026097Y0337265D01*
X0025989Y0337151D01*
X0025877Y0337039D01*
X0025763Y0336930D01*
X0025647Y0336824D01*
X0025527Y0336721D01*
X0025406Y0336621D01*
X0025281Y0336524D01*
X0025154Y0336430D01*
X0025025Y0336339D01*
X0024894Y0336252D01*
X0024761Y0336168D01*
X0024625Y0336087D01*
X0024487Y0336010D01*
X0024348Y0335937D01*
X0024207Y0335867D01*
X0024064Y0335800D01*
X0023919Y0335737D01*
X0023773Y0335678D01*
X0023625Y0335622D01*
X0023476Y0335571D01*
X0023326Y0335523D01*
X0023175Y0335479D01*
X0023022Y0335438D01*
X0022869Y0335402D01*
X0022714Y0335369D01*
X0022559Y0335340D01*
X0022404Y0335316D01*
X0022247Y0335295D01*
X0022091Y0335278D01*
X0021933Y0335265D01*
X0021776Y0335256D01*
X0021618Y0335251D01*
X0021461Y0335250D01*
X0021303Y0335253D01*
X0021145Y0335260D01*
X0020988Y0335271D01*
X0020831Y0335286D01*
X0020674Y0335305D01*
X0020518Y0335328D01*
X0020363Y0335354D01*
X0020208Y0335385D01*
X0020054Y0335419D01*
X0019901Y0335458D01*
X0019749Y0335500D01*
X0019599Y0335546D01*
X0019449Y0335596D01*
X0019301Y0335650D01*
X0019154Y0335707D01*
X0019008Y0335768D01*
X0018865Y0335833D01*
X0018722Y0335901D01*
X0018582Y0335973D01*
X0018444Y0336048D01*
X0018307Y0336127D01*
X0018172Y0336209D01*
X0018040Y0336295D01*
X0017910Y0336384D01*
X0017782Y0336476D01*
X0017656Y0336572D01*
X0017533Y0336670D01*
X0017413Y0336772D01*
X0017295Y0336877D01*
X0017179Y0336984D01*
X0017067Y0337095D01*
X0016957Y0337208D01*
X0016850Y0337324D01*
X0016746Y0337442D01*
X0016645Y0337564D01*
X0016548Y0337687D01*
X0016453Y0337814D01*
X0016362Y0337942D01*
X0016273Y0338073D01*
X0016189Y0338206D01*
X0016107Y0338341D01*
X0016029Y0338478D01*
X0015955Y0338617D01*
X0015884Y0338758D01*
X0015816Y0338900D01*
X0015753Y0339045D01*
X0015692Y0339190D01*
X0015636Y0339338D01*
X0015583Y0339486D01*
X0015534Y0339636D01*
X0015489Y0339787D01*
X0015448Y0339940D01*
X0015410Y0340093D01*
X0015377Y0340247D01*
X0015347Y0340402D01*
X0015321Y0340557D01*
X0015300Y0340714D01*
X0015282Y0340870D01*
X0015268Y0341027D01*
X0015258Y0341185D01*
X0015252Y0341342D01*
X0015250Y0341500D01*
X0286350Y0331200D02*
X0286352Y0331337D01*
X0286358Y0331473D01*
X0286368Y0331610D01*
X0286382Y0331746D01*
X0286400Y0331881D01*
X0286421Y0332016D01*
X0286447Y0332150D01*
X0286477Y0332284D01*
X0286510Y0332416D01*
X0286547Y0332548D01*
X0286589Y0332678D01*
X0286633Y0332807D01*
X0286682Y0332935D01*
X0286734Y0333062D01*
X0286790Y0333186D01*
X0286850Y0333309D01*
X0286913Y0333431D01*
X0286980Y0333550D01*
X0287050Y0333667D01*
X0287123Y0333783D01*
X0287200Y0333896D01*
X0287280Y0334007D01*
X0287363Y0334115D01*
X0287450Y0334221D01*
X0287539Y0334325D01*
X0287631Y0334425D01*
X0287727Y0334523D01*
X0287825Y0334619D01*
X0287925Y0334711D01*
X0288029Y0334800D01*
X0288135Y0334887D01*
X0288243Y0334970D01*
X0288354Y0335050D01*
X0288467Y0335127D01*
X0288583Y0335200D01*
X0288700Y0335270D01*
X0288819Y0335337D01*
X0288941Y0335400D01*
X0289064Y0335460D01*
X0289188Y0335516D01*
X0289315Y0335568D01*
X0289443Y0335617D01*
X0289572Y0335661D01*
X0289702Y0335703D01*
X0289834Y0335740D01*
X0289966Y0335773D01*
X0290100Y0335803D01*
X0290234Y0335829D01*
X0290369Y0335850D01*
X0290504Y0335868D01*
X0290640Y0335882D01*
X0290777Y0335892D01*
X0290913Y0335898D01*
X0291050Y0335900D01*
X0291187Y0335898D01*
X0291323Y0335892D01*
X0291460Y0335882D01*
X0291596Y0335868D01*
X0291731Y0335850D01*
X0291866Y0335829D01*
X0292000Y0335803D01*
X0292134Y0335773D01*
X0292266Y0335740D01*
X0292398Y0335703D01*
X0292528Y0335661D01*
X0292657Y0335617D01*
X0292785Y0335568D01*
X0292912Y0335516D01*
X0293036Y0335460D01*
X0293159Y0335400D01*
X0293281Y0335337D01*
X0293400Y0335270D01*
X0293517Y0335200D01*
X0293633Y0335127D01*
X0293746Y0335050D01*
X0293857Y0334970D01*
X0293965Y0334887D01*
X0294071Y0334800D01*
X0294175Y0334711D01*
X0294275Y0334619D01*
X0294373Y0334523D01*
X0294469Y0334425D01*
X0294561Y0334325D01*
X0294650Y0334221D01*
X0294737Y0334115D01*
X0294820Y0334007D01*
X0294900Y0333896D01*
X0294977Y0333783D01*
X0295050Y0333667D01*
X0295120Y0333550D01*
X0295187Y0333431D01*
X0295250Y0333309D01*
X0295310Y0333186D01*
X0295366Y0333062D01*
X0295418Y0332935D01*
X0295467Y0332807D01*
X0295511Y0332678D01*
X0295553Y0332548D01*
X0295590Y0332416D01*
X0295623Y0332284D01*
X0295653Y0332150D01*
X0295679Y0332016D01*
X0295700Y0331881D01*
X0295718Y0331746D01*
X0295732Y0331610D01*
X0295742Y0331473D01*
X0295748Y0331337D01*
X0295750Y0331200D01*
X0295748Y0331063D01*
X0295742Y0330927D01*
X0295732Y0330790D01*
X0295718Y0330654D01*
X0295700Y0330519D01*
X0295679Y0330384D01*
X0295653Y0330250D01*
X0295623Y0330116D01*
X0295590Y0329984D01*
X0295553Y0329852D01*
X0295511Y0329722D01*
X0295467Y0329593D01*
X0295418Y0329465D01*
X0295366Y0329338D01*
X0295310Y0329214D01*
X0295250Y0329091D01*
X0295187Y0328969D01*
X0295120Y0328850D01*
X0295050Y0328733D01*
X0294977Y0328617D01*
X0294900Y0328504D01*
X0294820Y0328393D01*
X0294737Y0328285D01*
X0294650Y0328179D01*
X0294561Y0328075D01*
X0294469Y0327975D01*
X0294373Y0327877D01*
X0294275Y0327781D01*
X0294175Y0327689D01*
X0294071Y0327600D01*
X0293965Y0327513D01*
X0293857Y0327430D01*
X0293746Y0327350D01*
X0293633Y0327273D01*
X0293517Y0327200D01*
X0293400Y0327130D01*
X0293281Y0327063D01*
X0293159Y0327000D01*
X0293036Y0326940D01*
X0292912Y0326884D01*
X0292785Y0326832D01*
X0292657Y0326783D01*
X0292528Y0326739D01*
X0292398Y0326697D01*
X0292266Y0326660D01*
X0292134Y0326627D01*
X0292000Y0326597D01*
X0291866Y0326571D01*
X0291731Y0326550D01*
X0291596Y0326532D01*
X0291460Y0326518D01*
X0291323Y0326508D01*
X0291187Y0326502D01*
X0291050Y0326500D01*
X0290913Y0326502D01*
X0290777Y0326508D01*
X0290640Y0326518D01*
X0290504Y0326532D01*
X0290369Y0326550D01*
X0290234Y0326571D01*
X0290100Y0326597D01*
X0289966Y0326627D01*
X0289834Y0326660D01*
X0289702Y0326697D01*
X0289572Y0326739D01*
X0289443Y0326783D01*
X0289315Y0326832D01*
X0289188Y0326884D01*
X0289064Y0326940D01*
X0288941Y0327000D01*
X0288819Y0327063D01*
X0288700Y0327130D01*
X0288583Y0327200D01*
X0288467Y0327273D01*
X0288354Y0327350D01*
X0288243Y0327430D01*
X0288135Y0327513D01*
X0288029Y0327600D01*
X0287925Y0327689D01*
X0287825Y0327781D01*
X0287727Y0327877D01*
X0287631Y0327975D01*
X0287539Y0328075D01*
X0287450Y0328179D01*
X0287363Y0328285D01*
X0287280Y0328393D01*
X0287200Y0328504D01*
X0287123Y0328617D01*
X0287050Y0328733D01*
X0286980Y0328850D01*
X0286913Y0328969D01*
X0286850Y0329091D01*
X0286790Y0329214D01*
X0286734Y0329338D01*
X0286682Y0329465D01*
X0286633Y0329593D01*
X0286589Y0329722D01*
X0286547Y0329852D01*
X0286510Y0329984D01*
X0286477Y0330116D01*
X0286447Y0330250D01*
X0286421Y0330384D01*
X0286400Y0330519D01*
X0286382Y0330654D01*
X0286368Y0330790D01*
X0286358Y0330927D01*
X0286352Y0331063D01*
X0286350Y0331200D01*
X0317250Y0331200D02*
X0317252Y0331337D01*
X0317258Y0331473D01*
X0317268Y0331610D01*
X0317282Y0331746D01*
X0317300Y0331881D01*
X0317321Y0332016D01*
X0317347Y0332150D01*
X0317377Y0332284D01*
X0317410Y0332416D01*
X0317447Y0332548D01*
X0317489Y0332678D01*
X0317533Y0332807D01*
X0317582Y0332935D01*
X0317634Y0333062D01*
X0317690Y0333186D01*
X0317750Y0333309D01*
X0317813Y0333431D01*
X0317880Y0333550D01*
X0317950Y0333667D01*
X0318023Y0333783D01*
X0318100Y0333896D01*
X0318180Y0334007D01*
X0318263Y0334115D01*
X0318350Y0334221D01*
X0318439Y0334325D01*
X0318531Y0334425D01*
X0318627Y0334523D01*
X0318725Y0334619D01*
X0318825Y0334711D01*
X0318929Y0334800D01*
X0319035Y0334887D01*
X0319143Y0334970D01*
X0319254Y0335050D01*
X0319367Y0335127D01*
X0319483Y0335200D01*
X0319600Y0335270D01*
X0319719Y0335337D01*
X0319841Y0335400D01*
X0319964Y0335460D01*
X0320088Y0335516D01*
X0320215Y0335568D01*
X0320343Y0335617D01*
X0320472Y0335661D01*
X0320602Y0335703D01*
X0320734Y0335740D01*
X0320866Y0335773D01*
X0321000Y0335803D01*
X0321134Y0335829D01*
X0321269Y0335850D01*
X0321404Y0335868D01*
X0321540Y0335882D01*
X0321677Y0335892D01*
X0321813Y0335898D01*
X0321950Y0335900D01*
X0322087Y0335898D01*
X0322223Y0335892D01*
X0322360Y0335882D01*
X0322496Y0335868D01*
X0322631Y0335850D01*
X0322766Y0335829D01*
X0322900Y0335803D01*
X0323034Y0335773D01*
X0323166Y0335740D01*
X0323298Y0335703D01*
X0323428Y0335661D01*
X0323557Y0335617D01*
X0323685Y0335568D01*
X0323812Y0335516D01*
X0323936Y0335460D01*
X0324059Y0335400D01*
X0324181Y0335337D01*
X0324300Y0335270D01*
X0324417Y0335200D01*
X0324533Y0335127D01*
X0324646Y0335050D01*
X0324757Y0334970D01*
X0324865Y0334887D01*
X0324971Y0334800D01*
X0325075Y0334711D01*
X0325175Y0334619D01*
X0325273Y0334523D01*
X0325369Y0334425D01*
X0325461Y0334325D01*
X0325550Y0334221D01*
X0325637Y0334115D01*
X0325720Y0334007D01*
X0325800Y0333896D01*
X0325877Y0333783D01*
X0325950Y0333667D01*
X0326020Y0333550D01*
X0326087Y0333431D01*
X0326150Y0333309D01*
X0326210Y0333186D01*
X0326266Y0333062D01*
X0326318Y0332935D01*
X0326367Y0332807D01*
X0326411Y0332678D01*
X0326453Y0332548D01*
X0326490Y0332416D01*
X0326523Y0332284D01*
X0326553Y0332150D01*
X0326579Y0332016D01*
X0326600Y0331881D01*
X0326618Y0331746D01*
X0326632Y0331610D01*
X0326642Y0331473D01*
X0326648Y0331337D01*
X0326650Y0331200D01*
X0326648Y0331063D01*
X0326642Y0330927D01*
X0326632Y0330790D01*
X0326618Y0330654D01*
X0326600Y0330519D01*
X0326579Y0330384D01*
X0326553Y0330250D01*
X0326523Y0330116D01*
X0326490Y0329984D01*
X0326453Y0329852D01*
X0326411Y0329722D01*
X0326367Y0329593D01*
X0326318Y0329465D01*
X0326266Y0329338D01*
X0326210Y0329214D01*
X0326150Y0329091D01*
X0326087Y0328969D01*
X0326020Y0328850D01*
X0325950Y0328733D01*
X0325877Y0328617D01*
X0325800Y0328504D01*
X0325720Y0328393D01*
X0325637Y0328285D01*
X0325550Y0328179D01*
X0325461Y0328075D01*
X0325369Y0327975D01*
X0325273Y0327877D01*
X0325175Y0327781D01*
X0325075Y0327689D01*
X0324971Y0327600D01*
X0324865Y0327513D01*
X0324757Y0327430D01*
X0324646Y0327350D01*
X0324533Y0327273D01*
X0324417Y0327200D01*
X0324300Y0327130D01*
X0324181Y0327063D01*
X0324059Y0327000D01*
X0323936Y0326940D01*
X0323812Y0326884D01*
X0323685Y0326832D01*
X0323557Y0326783D01*
X0323428Y0326739D01*
X0323298Y0326697D01*
X0323166Y0326660D01*
X0323034Y0326627D01*
X0322900Y0326597D01*
X0322766Y0326571D01*
X0322631Y0326550D01*
X0322496Y0326532D01*
X0322360Y0326518D01*
X0322223Y0326508D01*
X0322087Y0326502D01*
X0321950Y0326500D01*
X0321813Y0326502D01*
X0321677Y0326508D01*
X0321540Y0326518D01*
X0321404Y0326532D01*
X0321269Y0326550D01*
X0321134Y0326571D01*
X0321000Y0326597D01*
X0320866Y0326627D01*
X0320734Y0326660D01*
X0320602Y0326697D01*
X0320472Y0326739D01*
X0320343Y0326783D01*
X0320215Y0326832D01*
X0320088Y0326884D01*
X0319964Y0326940D01*
X0319841Y0327000D01*
X0319719Y0327063D01*
X0319600Y0327130D01*
X0319483Y0327200D01*
X0319367Y0327273D01*
X0319254Y0327350D01*
X0319143Y0327430D01*
X0319035Y0327513D01*
X0318929Y0327600D01*
X0318825Y0327689D01*
X0318725Y0327781D01*
X0318627Y0327877D01*
X0318531Y0327975D01*
X0318439Y0328075D01*
X0318350Y0328179D01*
X0318263Y0328285D01*
X0318180Y0328393D01*
X0318100Y0328504D01*
X0318023Y0328617D01*
X0317950Y0328733D01*
X0317880Y0328850D01*
X0317813Y0328969D01*
X0317750Y0329091D01*
X0317690Y0329214D01*
X0317634Y0329338D01*
X0317582Y0329465D01*
X0317533Y0329593D01*
X0317489Y0329722D01*
X0317447Y0329852D01*
X0317410Y0329984D01*
X0317377Y0330116D01*
X0317347Y0330250D01*
X0317321Y0330384D01*
X0317300Y0330519D01*
X0317282Y0330654D01*
X0317268Y0330790D01*
X0317258Y0330927D01*
X0317252Y0331063D01*
X0317250Y0331200D01*
X0376350Y0331200D02*
X0376352Y0331337D01*
X0376358Y0331473D01*
X0376368Y0331610D01*
X0376382Y0331746D01*
X0376400Y0331881D01*
X0376421Y0332016D01*
X0376447Y0332150D01*
X0376477Y0332284D01*
X0376510Y0332416D01*
X0376547Y0332548D01*
X0376589Y0332678D01*
X0376633Y0332807D01*
X0376682Y0332935D01*
X0376734Y0333062D01*
X0376790Y0333186D01*
X0376850Y0333309D01*
X0376913Y0333431D01*
X0376980Y0333550D01*
X0377050Y0333667D01*
X0377123Y0333783D01*
X0377200Y0333896D01*
X0377280Y0334007D01*
X0377363Y0334115D01*
X0377450Y0334221D01*
X0377539Y0334325D01*
X0377631Y0334425D01*
X0377727Y0334523D01*
X0377825Y0334619D01*
X0377925Y0334711D01*
X0378029Y0334800D01*
X0378135Y0334887D01*
X0378243Y0334970D01*
X0378354Y0335050D01*
X0378467Y0335127D01*
X0378583Y0335200D01*
X0378700Y0335270D01*
X0378819Y0335337D01*
X0378941Y0335400D01*
X0379064Y0335460D01*
X0379188Y0335516D01*
X0379315Y0335568D01*
X0379443Y0335617D01*
X0379572Y0335661D01*
X0379702Y0335703D01*
X0379834Y0335740D01*
X0379966Y0335773D01*
X0380100Y0335803D01*
X0380234Y0335829D01*
X0380369Y0335850D01*
X0380504Y0335868D01*
X0380640Y0335882D01*
X0380777Y0335892D01*
X0380913Y0335898D01*
X0381050Y0335900D01*
X0381187Y0335898D01*
X0381323Y0335892D01*
X0381460Y0335882D01*
X0381596Y0335868D01*
X0381731Y0335850D01*
X0381866Y0335829D01*
X0382000Y0335803D01*
X0382134Y0335773D01*
X0382266Y0335740D01*
X0382398Y0335703D01*
X0382528Y0335661D01*
X0382657Y0335617D01*
X0382785Y0335568D01*
X0382912Y0335516D01*
X0383036Y0335460D01*
X0383159Y0335400D01*
X0383281Y0335337D01*
X0383400Y0335270D01*
X0383517Y0335200D01*
X0383633Y0335127D01*
X0383746Y0335050D01*
X0383857Y0334970D01*
X0383965Y0334887D01*
X0384071Y0334800D01*
X0384175Y0334711D01*
X0384275Y0334619D01*
X0384373Y0334523D01*
X0384469Y0334425D01*
X0384561Y0334325D01*
X0384650Y0334221D01*
X0384737Y0334115D01*
X0384820Y0334007D01*
X0384900Y0333896D01*
X0384977Y0333783D01*
X0385050Y0333667D01*
X0385120Y0333550D01*
X0385187Y0333431D01*
X0385250Y0333309D01*
X0385310Y0333186D01*
X0385366Y0333062D01*
X0385418Y0332935D01*
X0385467Y0332807D01*
X0385511Y0332678D01*
X0385553Y0332548D01*
X0385590Y0332416D01*
X0385623Y0332284D01*
X0385653Y0332150D01*
X0385679Y0332016D01*
X0385700Y0331881D01*
X0385718Y0331746D01*
X0385732Y0331610D01*
X0385742Y0331473D01*
X0385748Y0331337D01*
X0385750Y0331200D01*
X0385748Y0331063D01*
X0385742Y0330927D01*
X0385732Y0330790D01*
X0385718Y0330654D01*
X0385700Y0330519D01*
X0385679Y0330384D01*
X0385653Y0330250D01*
X0385623Y0330116D01*
X0385590Y0329984D01*
X0385553Y0329852D01*
X0385511Y0329722D01*
X0385467Y0329593D01*
X0385418Y0329465D01*
X0385366Y0329338D01*
X0385310Y0329214D01*
X0385250Y0329091D01*
X0385187Y0328969D01*
X0385120Y0328850D01*
X0385050Y0328733D01*
X0384977Y0328617D01*
X0384900Y0328504D01*
X0384820Y0328393D01*
X0384737Y0328285D01*
X0384650Y0328179D01*
X0384561Y0328075D01*
X0384469Y0327975D01*
X0384373Y0327877D01*
X0384275Y0327781D01*
X0384175Y0327689D01*
X0384071Y0327600D01*
X0383965Y0327513D01*
X0383857Y0327430D01*
X0383746Y0327350D01*
X0383633Y0327273D01*
X0383517Y0327200D01*
X0383400Y0327130D01*
X0383281Y0327063D01*
X0383159Y0327000D01*
X0383036Y0326940D01*
X0382912Y0326884D01*
X0382785Y0326832D01*
X0382657Y0326783D01*
X0382528Y0326739D01*
X0382398Y0326697D01*
X0382266Y0326660D01*
X0382134Y0326627D01*
X0382000Y0326597D01*
X0381866Y0326571D01*
X0381731Y0326550D01*
X0381596Y0326532D01*
X0381460Y0326518D01*
X0381323Y0326508D01*
X0381187Y0326502D01*
X0381050Y0326500D01*
X0380913Y0326502D01*
X0380777Y0326508D01*
X0380640Y0326518D01*
X0380504Y0326532D01*
X0380369Y0326550D01*
X0380234Y0326571D01*
X0380100Y0326597D01*
X0379966Y0326627D01*
X0379834Y0326660D01*
X0379702Y0326697D01*
X0379572Y0326739D01*
X0379443Y0326783D01*
X0379315Y0326832D01*
X0379188Y0326884D01*
X0379064Y0326940D01*
X0378941Y0327000D01*
X0378819Y0327063D01*
X0378700Y0327130D01*
X0378583Y0327200D01*
X0378467Y0327273D01*
X0378354Y0327350D01*
X0378243Y0327430D01*
X0378135Y0327513D01*
X0378029Y0327600D01*
X0377925Y0327689D01*
X0377825Y0327781D01*
X0377727Y0327877D01*
X0377631Y0327975D01*
X0377539Y0328075D01*
X0377450Y0328179D01*
X0377363Y0328285D01*
X0377280Y0328393D01*
X0377200Y0328504D01*
X0377123Y0328617D01*
X0377050Y0328733D01*
X0376980Y0328850D01*
X0376913Y0328969D01*
X0376850Y0329091D01*
X0376790Y0329214D01*
X0376734Y0329338D01*
X0376682Y0329465D01*
X0376633Y0329593D01*
X0376589Y0329722D01*
X0376547Y0329852D01*
X0376510Y0329984D01*
X0376477Y0330116D01*
X0376447Y0330250D01*
X0376421Y0330384D01*
X0376400Y0330519D01*
X0376382Y0330654D01*
X0376368Y0330790D01*
X0376358Y0330927D01*
X0376352Y0331063D01*
X0376350Y0331200D01*
X0407250Y0331200D02*
X0407252Y0331337D01*
X0407258Y0331473D01*
X0407268Y0331610D01*
X0407282Y0331746D01*
X0407300Y0331881D01*
X0407321Y0332016D01*
X0407347Y0332150D01*
X0407377Y0332284D01*
X0407410Y0332416D01*
X0407447Y0332548D01*
X0407489Y0332678D01*
X0407533Y0332807D01*
X0407582Y0332935D01*
X0407634Y0333062D01*
X0407690Y0333186D01*
X0407750Y0333309D01*
X0407813Y0333431D01*
X0407880Y0333550D01*
X0407950Y0333667D01*
X0408023Y0333783D01*
X0408100Y0333896D01*
X0408180Y0334007D01*
X0408263Y0334115D01*
X0408350Y0334221D01*
X0408439Y0334325D01*
X0408531Y0334425D01*
X0408627Y0334523D01*
X0408725Y0334619D01*
X0408825Y0334711D01*
X0408929Y0334800D01*
X0409035Y0334887D01*
X0409143Y0334970D01*
X0409254Y0335050D01*
X0409367Y0335127D01*
X0409483Y0335200D01*
X0409600Y0335270D01*
X0409719Y0335337D01*
X0409841Y0335400D01*
X0409964Y0335460D01*
X0410088Y0335516D01*
X0410215Y0335568D01*
X0410343Y0335617D01*
X0410472Y0335661D01*
X0410602Y0335703D01*
X0410734Y0335740D01*
X0410866Y0335773D01*
X0411000Y0335803D01*
X0411134Y0335829D01*
X0411269Y0335850D01*
X0411404Y0335868D01*
X0411540Y0335882D01*
X0411677Y0335892D01*
X0411813Y0335898D01*
X0411950Y0335900D01*
X0412087Y0335898D01*
X0412223Y0335892D01*
X0412360Y0335882D01*
X0412496Y0335868D01*
X0412631Y0335850D01*
X0412766Y0335829D01*
X0412900Y0335803D01*
X0413034Y0335773D01*
X0413166Y0335740D01*
X0413298Y0335703D01*
X0413428Y0335661D01*
X0413557Y0335617D01*
X0413685Y0335568D01*
X0413812Y0335516D01*
X0413936Y0335460D01*
X0414059Y0335400D01*
X0414181Y0335337D01*
X0414300Y0335270D01*
X0414417Y0335200D01*
X0414533Y0335127D01*
X0414646Y0335050D01*
X0414757Y0334970D01*
X0414865Y0334887D01*
X0414971Y0334800D01*
X0415075Y0334711D01*
X0415175Y0334619D01*
X0415273Y0334523D01*
X0415369Y0334425D01*
X0415461Y0334325D01*
X0415550Y0334221D01*
X0415637Y0334115D01*
X0415720Y0334007D01*
X0415800Y0333896D01*
X0415877Y0333783D01*
X0415950Y0333667D01*
X0416020Y0333550D01*
X0416087Y0333431D01*
X0416150Y0333309D01*
X0416210Y0333186D01*
X0416266Y0333062D01*
X0416318Y0332935D01*
X0416367Y0332807D01*
X0416411Y0332678D01*
X0416453Y0332548D01*
X0416490Y0332416D01*
X0416523Y0332284D01*
X0416553Y0332150D01*
X0416579Y0332016D01*
X0416600Y0331881D01*
X0416618Y0331746D01*
X0416632Y0331610D01*
X0416642Y0331473D01*
X0416648Y0331337D01*
X0416650Y0331200D01*
X0416648Y0331063D01*
X0416642Y0330927D01*
X0416632Y0330790D01*
X0416618Y0330654D01*
X0416600Y0330519D01*
X0416579Y0330384D01*
X0416553Y0330250D01*
X0416523Y0330116D01*
X0416490Y0329984D01*
X0416453Y0329852D01*
X0416411Y0329722D01*
X0416367Y0329593D01*
X0416318Y0329465D01*
X0416266Y0329338D01*
X0416210Y0329214D01*
X0416150Y0329091D01*
X0416087Y0328969D01*
X0416020Y0328850D01*
X0415950Y0328733D01*
X0415877Y0328617D01*
X0415800Y0328504D01*
X0415720Y0328393D01*
X0415637Y0328285D01*
X0415550Y0328179D01*
X0415461Y0328075D01*
X0415369Y0327975D01*
X0415273Y0327877D01*
X0415175Y0327781D01*
X0415075Y0327689D01*
X0414971Y0327600D01*
X0414865Y0327513D01*
X0414757Y0327430D01*
X0414646Y0327350D01*
X0414533Y0327273D01*
X0414417Y0327200D01*
X0414300Y0327130D01*
X0414181Y0327063D01*
X0414059Y0327000D01*
X0413936Y0326940D01*
X0413812Y0326884D01*
X0413685Y0326832D01*
X0413557Y0326783D01*
X0413428Y0326739D01*
X0413298Y0326697D01*
X0413166Y0326660D01*
X0413034Y0326627D01*
X0412900Y0326597D01*
X0412766Y0326571D01*
X0412631Y0326550D01*
X0412496Y0326532D01*
X0412360Y0326518D01*
X0412223Y0326508D01*
X0412087Y0326502D01*
X0411950Y0326500D01*
X0411813Y0326502D01*
X0411677Y0326508D01*
X0411540Y0326518D01*
X0411404Y0326532D01*
X0411269Y0326550D01*
X0411134Y0326571D01*
X0411000Y0326597D01*
X0410866Y0326627D01*
X0410734Y0326660D01*
X0410602Y0326697D01*
X0410472Y0326739D01*
X0410343Y0326783D01*
X0410215Y0326832D01*
X0410088Y0326884D01*
X0409964Y0326940D01*
X0409841Y0327000D01*
X0409719Y0327063D01*
X0409600Y0327130D01*
X0409483Y0327200D01*
X0409367Y0327273D01*
X0409254Y0327350D01*
X0409143Y0327430D01*
X0409035Y0327513D01*
X0408929Y0327600D01*
X0408825Y0327689D01*
X0408725Y0327781D01*
X0408627Y0327877D01*
X0408531Y0327975D01*
X0408439Y0328075D01*
X0408350Y0328179D01*
X0408263Y0328285D01*
X0408180Y0328393D01*
X0408100Y0328504D01*
X0408023Y0328617D01*
X0407950Y0328733D01*
X0407880Y0328850D01*
X0407813Y0328969D01*
X0407750Y0329091D01*
X0407690Y0329214D01*
X0407634Y0329338D01*
X0407582Y0329465D01*
X0407533Y0329593D01*
X0407489Y0329722D01*
X0407447Y0329852D01*
X0407410Y0329984D01*
X0407377Y0330116D01*
X0407347Y0330250D01*
X0407321Y0330384D01*
X0407300Y0330519D01*
X0407282Y0330654D01*
X0407268Y0330790D01*
X0407258Y0330927D01*
X0407252Y0331063D01*
X0407250Y0331200D01*
X0466350Y0331200D02*
X0466352Y0331337D01*
X0466358Y0331473D01*
X0466368Y0331610D01*
X0466382Y0331746D01*
X0466400Y0331881D01*
X0466421Y0332016D01*
X0466447Y0332150D01*
X0466477Y0332284D01*
X0466510Y0332416D01*
X0466547Y0332548D01*
X0466589Y0332678D01*
X0466633Y0332807D01*
X0466682Y0332935D01*
X0466734Y0333062D01*
X0466790Y0333186D01*
X0466850Y0333309D01*
X0466913Y0333431D01*
X0466980Y0333550D01*
X0467050Y0333667D01*
X0467123Y0333783D01*
X0467200Y0333896D01*
X0467280Y0334007D01*
X0467363Y0334115D01*
X0467450Y0334221D01*
X0467539Y0334325D01*
X0467631Y0334425D01*
X0467727Y0334523D01*
X0467825Y0334619D01*
X0467925Y0334711D01*
X0468029Y0334800D01*
X0468135Y0334887D01*
X0468243Y0334970D01*
X0468354Y0335050D01*
X0468467Y0335127D01*
X0468583Y0335200D01*
X0468700Y0335270D01*
X0468819Y0335337D01*
X0468941Y0335400D01*
X0469064Y0335460D01*
X0469188Y0335516D01*
X0469315Y0335568D01*
X0469443Y0335617D01*
X0469572Y0335661D01*
X0469702Y0335703D01*
X0469834Y0335740D01*
X0469966Y0335773D01*
X0470100Y0335803D01*
X0470234Y0335829D01*
X0470369Y0335850D01*
X0470504Y0335868D01*
X0470640Y0335882D01*
X0470777Y0335892D01*
X0470913Y0335898D01*
X0471050Y0335900D01*
X0471187Y0335898D01*
X0471323Y0335892D01*
X0471460Y0335882D01*
X0471596Y0335868D01*
X0471731Y0335850D01*
X0471866Y0335829D01*
X0472000Y0335803D01*
X0472134Y0335773D01*
X0472266Y0335740D01*
X0472398Y0335703D01*
X0472528Y0335661D01*
X0472657Y0335617D01*
X0472785Y0335568D01*
X0472912Y0335516D01*
X0473036Y0335460D01*
X0473159Y0335400D01*
X0473281Y0335337D01*
X0473400Y0335270D01*
X0473517Y0335200D01*
X0473633Y0335127D01*
X0473746Y0335050D01*
X0473857Y0334970D01*
X0473965Y0334887D01*
X0474071Y0334800D01*
X0474175Y0334711D01*
X0474275Y0334619D01*
X0474373Y0334523D01*
X0474469Y0334425D01*
X0474561Y0334325D01*
X0474650Y0334221D01*
X0474737Y0334115D01*
X0474820Y0334007D01*
X0474900Y0333896D01*
X0474977Y0333783D01*
X0475050Y0333667D01*
X0475120Y0333550D01*
X0475187Y0333431D01*
X0475250Y0333309D01*
X0475310Y0333186D01*
X0475366Y0333062D01*
X0475418Y0332935D01*
X0475467Y0332807D01*
X0475511Y0332678D01*
X0475553Y0332548D01*
X0475590Y0332416D01*
X0475623Y0332284D01*
X0475653Y0332150D01*
X0475679Y0332016D01*
X0475700Y0331881D01*
X0475718Y0331746D01*
X0475732Y0331610D01*
X0475742Y0331473D01*
X0475748Y0331337D01*
X0475750Y0331200D01*
X0475748Y0331063D01*
X0475742Y0330927D01*
X0475732Y0330790D01*
X0475718Y0330654D01*
X0475700Y0330519D01*
X0475679Y0330384D01*
X0475653Y0330250D01*
X0475623Y0330116D01*
X0475590Y0329984D01*
X0475553Y0329852D01*
X0475511Y0329722D01*
X0475467Y0329593D01*
X0475418Y0329465D01*
X0475366Y0329338D01*
X0475310Y0329214D01*
X0475250Y0329091D01*
X0475187Y0328969D01*
X0475120Y0328850D01*
X0475050Y0328733D01*
X0474977Y0328617D01*
X0474900Y0328504D01*
X0474820Y0328393D01*
X0474737Y0328285D01*
X0474650Y0328179D01*
X0474561Y0328075D01*
X0474469Y0327975D01*
X0474373Y0327877D01*
X0474275Y0327781D01*
X0474175Y0327689D01*
X0474071Y0327600D01*
X0473965Y0327513D01*
X0473857Y0327430D01*
X0473746Y0327350D01*
X0473633Y0327273D01*
X0473517Y0327200D01*
X0473400Y0327130D01*
X0473281Y0327063D01*
X0473159Y0327000D01*
X0473036Y0326940D01*
X0472912Y0326884D01*
X0472785Y0326832D01*
X0472657Y0326783D01*
X0472528Y0326739D01*
X0472398Y0326697D01*
X0472266Y0326660D01*
X0472134Y0326627D01*
X0472000Y0326597D01*
X0471866Y0326571D01*
X0471731Y0326550D01*
X0471596Y0326532D01*
X0471460Y0326518D01*
X0471323Y0326508D01*
X0471187Y0326502D01*
X0471050Y0326500D01*
X0470913Y0326502D01*
X0470777Y0326508D01*
X0470640Y0326518D01*
X0470504Y0326532D01*
X0470369Y0326550D01*
X0470234Y0326571D01*
X0470100Y0326597D01*
X0469966Y0326627D01*
X0469834Y0326660D01*
X0469702Y0326697D01*
X0469572Y0326739D01*
X0469443Y0326783D01*
X0469315Y0326832D01*
X0469188Y0326884D01*
X0469064Y0326940D01*
X0468941Y0327000D01*
X0468819Y0327063D01*
X0468700Y0327130D01*
X0468583Y0327200D01*
X0468467Y0327273D01*
X0468354Y0327350D01*
X0468243Y0327430D01*
X0468135Y0327513D01*
X0468029Y0327600D01*
X0467925Y0327689D01*
X0467825Y0327781D01*
X0467727Y0327877D01*
X0467631Y0327975D01*
X0467539Y0328075D01*
X0467450Y0328179D01*
X0467363Y0328285D01*
X0467280Y0328393D01*
X0467200Y0328504D01*
X0467123Y0328617D01*
X0467050Y0328733D01*
X0466980Y0328850D01*
X0466913Y0328969D01*
X0466850Y0329091D01*
X0466790Y0329214D01*
X0466734Y0329338D01*
X0466682Y0329465D01*
X0466633Y0329593D01*
X0466589Y0329722D01*
X0466547Y0329852D01*
X0466510Y0329984D01*
X0466477Y0330116D01*
X0466447Y0330250D01*
X0466421Y0330384D01*
X0466400Y0330519D01*
X0466382Y0330654D01*
X0466368Y0330790D01*
X0466358Y0330927D01*
X0466352Y0331063D01*
X0466350Y0331200D01*
X0510250Y0341500D02*
X0510252Y0341658D01*
X0510258Y0341815D01*
X0510268Y0341973D01*
X0510282Y0342130D01*
X0510300Y0342286D01*
X0510321Y0342443D01*
X0510347Y0342598D01*
X0510377Y0342753D01*
X0510410Y0342907D01*
X0510448Y0343060D01*
X0510489Y0343213D01*
X0510534Y0343364D01*
X0510583Y0343514D01*
X0510636Y0343662D01*
X0510692Y0343810D01*
X0510753Y0343955D01*
X0510816Y0344100D01*
X0510884Y0344242D01*
X0510955Y0344383D01*
X0511029Y0344522D01*
X0511107Y0344659D01*
X0511189Y0344794D01*
X0511273Y0344927D01*
X0511362Y0345058D01*
X0511453Y0345186D01*
X0511548Y0345313D01*
X0511645Y0345436D01*
X0511746Y0345558D01*
X0511850Y0345676D01*
X0511957Y0345792D01*
X0512067Y0345905D01*
X0512179Y0346016D01*
X0512295Y0346123D01*
X0512413Y0346228D01*
X0512533Y0346330D01*
X0512656Y0346428D01*
X0512782Y0346524D01*
X0512910Y0346616D01*
X0513040Y0346705D01*
X0513172Y0346791D01*
X0513307Y0346873D01*
X0513444Y0346952D01*
X0513582Y0347027D01*
X0513722Y0347099D01*
X0513865Y0347167D01*
X0514008Y0347232D01*
X0514154Y0347293D01*
X0514301Y0347350D01*
X0514449Y0347404D01*
X0514599Y0347454D01*
X0514749Y0347500D01*
X0514901Y0347542D01*
X0515054Y0347581D01*
X0515208Y0347615D01*
X0515363Y0347646D01*
X0515518Y0347672D01*
X0515674Y0347695D01*
X0515831Y0347714D01*
X0515988Y0347729D01*
X0516145Y0347740D01*
X0516303Y0347747D01*
X0516461Y0347750D01*
X0516618Y0347749D01*
X0516776Y0347744D01*
X0516933Y0347735D01*
X0517091Y0347722D01*
X0517247Y0347705D01*
X0517404Y0347684D01*
X0517559Y0347660D01*
X0517714Y0347631D01*
X0517869Y0347598D01*
X0518022Y0347562D01*
X0518175Y0347521D01*
X0518326Y0347477D01*
X0518476Y0347429D01*
X0518625Y0347378D01*
X0518773Y0347322D01*
X0518919Y0347263D01*
X0519064Y0347200D01*
X0519207Y0347133D01*
X0519348Y0347063D01*
X0519487Y0346990D01*
X0519625Y0346913D01*
X0519761Y0346832D01*
X0519894Y0346748D01*
X0520025Y0346661D01*
X0520154Y0346570D01*
X0520281Y0346476D01*
X0520406Y0346379D01*
X0520527Y0346279D01*
X0520647Y0346176D01*
X0520763Y0346070D01*
X0520877Y0345961D01*
X0520989Y0345849D01*
X0521097Y0345735D01*
X0521202Y0345617D01*
X0521305Y0345497D01*
X0521404Y0345375D01*
X0521500Y0345250D01*
X0521593Y0345122D01*
X0521683Y0344993D01*
X0521769Y0344861D01*
X0521853Y0344727D01*
X0521932Y0344591D01*
X0522009Y0344453D01*
X0522081Y0344313D01*
X0522150Y0344171D01*
X0522216Y0344028D01*
X0522278Y0343883D01*
X0522336Y0343736D01*
X0522391Y0343588D01*
X0522442Y0343439D01*
X0522489Y0343288D01*
X0522532Y0343137D01*
X0522571Y0342984D01*
X0522607Y0342830D01*
X0522638Y0342676D01*
X0522666Y0342521D01*
X0522690Y0342365D01*
X0522710Y0342208D01*
X0522726Y0342051D01*
X0522738Y0341894D01*
X0522746Y0341737D01*
X0522750Y0341579D01*
X0522750Y0341421D01*
X0522746Y0341263D01*
X0522738Y0341106D01*
X0522726Y0340949D01*
X0522710Y0340792D01*
X0522690Y0340635D01*
X0522666Y0340479D01*
X0522638Y0340324D01*
X0522607Y0340170D01*
X0522571Y0340016D01*
X0522532Y0339863D01*
X0522489Y0339712D01*
X0522442Y0339561D01*
X0522391Y0339412D01*
X0522336Y0339264D01*
X0522278Y0339117D01*
X0522216Y0338972D01*
X0522150Y0338829D01*
X0522081Y0338687D01*
X0522009Y0338547D01*
X0521932Y0338409D01*
X0521853Y0338273D01*
X0521769Y0338139D01*
X0521683Y0338007D01*
X0521593Y0337878D01*
X0521500Y0337750D01*
X0521404Y0337625D01*
X0521305Y0337503D01*
X0521202Y0337383D01*
X0521097Y0337265D01*
X0520989Y0337151D01*
X0520877Y0337039D01*
X0520763Y0336930D01*
X0520647Y0336824D01*
X0520527Y0336721D01*
X0520406Y0336621D01*
X0520281Y0336524D01*
X0520154Y0336430D01*
X0520025Y0336339D01*
X0519894Y0336252D01*
X0519761Y0336168D01*
X0519625Y0336087D01*
X0519487Y0336010D01*
X0519348Y0335937D01*
X0519207Y0335867D01*
X0519064Y0335800D01*
X0518919Y0335737D01*
X0518773Y0335678D01*
X0518625Y0335622D01*
X0518476Y0335571D01*
X0518326Y0335523D01*
X0518175Y0335479D01*
X0518022Y0335438D01*
X0517869Y0335402D01*
X0517714Y0335369D01*
X0517559Y0335340D01*
X0517404Y0335316D01*
X0517247Y0335295D01*
X0517091Y0335278D01*
X0516933Y0335265D01*
X0516776Y0335256D01*
X0516618Y0335251D01*
X0516461Y0335250D01*
X0516303Y0335253D01*
X0516145Y0335260D01*
X0515988Y0335271D01*
X0515831Y0335286D01*
X0515674Y0335305D01*
X0515518Y0335328D01*
X0515363Y0335354D01*
X0515208Y0335385D01*
X0515054Y0335419D01*
X0514901Y0335458D01*
X0514749Y0335500D01*
X0514599Y0335546D01*
X0514449Y0335596D01*
X0514301Y0335650D01*
X0514154Y0335707D01*
X0514008Y0335768D01*
X0513865Y0335833D01*
X0513722Y0335901D01*
X0513582Y0335973D01*
X0513444Y0336048D01*
X0513307Y0336127D01*
X0513172Y0336209D01*
X0513040Y0336295D01*
X0512910Y0336384D01*
X0512782Y0336476D01*
X0512656Y0336572D01*
X0512533Y0336670D01*
X0512413Y0336772D01*
X0512295Y0336877D01*
X0512179Y0336984D01*
X0512067Y0337095D01*
X0511957Y0337208D01*
X0511850Y0337324D01*
X0511746Y0337442D01*
X0511645Y0337564D01*
X0511548Y0337687D01*
X0511453Y0337814D01*
X0511362Y0337942D01*
X0511273Y0338073D01*
X0511189Y0338206D01*
X0511107Y0338341D01*
X0511029Y0338478D01*
X0510955Y0338617D01*
X0510884Y0338758D01*
X0510816Y0338900D01*
X0510753Y0339045D01*
X0510692Y0339190D01*
X0510636Y0339338D01*
X0510583Y0339486D01*
X0510534Y0339636D01*
X0510489Y0339787D01*
X0510448Y0339940D01*
X0510410Y0340093D01*
X0510377Y0340247D01*
X0510347Y0340402D01*
X0510321Y0340557D01*
X0510300Y0340714D01*
X0510282Y0340870D01*
X0510268Y0341027D01*
X0510258Y0341185D01*
X0510252Y0341342D01*
X0510250Y0341500D01*
X0510250Y0021500D02*
X0510252Y0021658D01*
X0510258Y0021815D01*
X0510268Y0021973D01*
X0510282Y0022130D01*
X0510300Y0022286D01*
X0510321Y0022443D01*
X0510347Y0022598D01*
X0510377Y0022753D01*
X0510410Y0022907D01*
X0510448Y0023060D01*
X0510489Y0023213D01*
X0510534Y0023364D01*
X0510583Y0023514D01*
X0510636Y0023662D01*
X0510692Y0023810D01*
X0510753Y0023955D01*
X0510816Y0024100D01*
X0510884Y0024242D01*
X0510955Y0024383D01*
X0511029Y0024522D01*
X0511107Y0024659D01*
X0511189Y0024794D01*
X0511273Y0024927D01*
X0511362Y0025058D01*
X0511453Y0025186D01*
X0511548Y0025313D01*
X0511645Y0025436D01*
X0511746Y0025558D01*
X0511850Y0025676D01*
X0511957Y0025792D01*
X0512067Y0025905D01*
X0512179Y0026016D01*
X0512295Y0026123D01*
X0512413Y0026228D01*
X0512533Y0026330D01*
X0512656Y0026428D01*
X0512782Y0026524D01*
X0512910Y0026616D01*
X0513040Y0026705D01*
X0513172Y0026791D01*
X0513307Y0026873D01*
X0513444Y0026952D01*
X0513582Y0027027D01*
X0513722Y0027099D01*
X0513865Y0027167D01*
X0514008Y0027232D01*
X0514154Y0027293D01*
X0514301Y0027350D01*
X0514449Y0027404D01*
X0514599Y0027454D01*
X0514749Y0027500D01*
X0514901Y0027542D01*
X0515054Y0027581D01*
X0515208Y0027615D01*
X0515363Y0027646D01*
X0515518Y0027672D01*
X0515674Y0027695D01*
X0515831Y0027714D01*
X0515988Y0027729D01*
X0516145Y0027740D01*
X0516303Y0027747D01*
X0516461Y0027750D01*
X0516618Y0027749D01*
X0516776Y0027744D01*
X0516933Y0027735D01*
X0517091Y0027722D01*
X0517247Y0027705D01*
X0517404Y0027684D01*
X0517559Y0027660D01*
X0517714Y0027631D01*
X0517869Y0027598D01*
X0518022Y0027562D01*
X0518175Y0027521D01*
X0518326Y0027477D01*
X0518476Y0027429D01*
X0518625Y0027378D01*
X0518773Y0027322D01*
X0518919Y0027263D01*
X0519064Y0027200D01*
X0519207Y0027133D01*
X0519348Y0027063D01*
X0519487Y0026990D01*
X0519625Y0026913D01*
X0519761Y0026832D01*
X0519894Y0026748D01*
X0520025Y0026661D01*
X0520154Y0026570D01*
X0520281Y0026476D01*
X0520406Y0026379D01*
X0520527Y0026279D01*
X0520647Y0026176D01*
X0520763Y0026070D01*
X0520877Y0025961D01*
X0520989Y0025849D01*
X0521097Y0025735D01*
X0521202Y0025617D01*
X0521305Y0025497D01*
X0521404Y0025375D01*
X0521500Y0025250D01*
X0521593Y0025122D01*
X0521683Y0024993D01*
X0521769Y0024861D01*
X0521853Y0024727D01*
X0521932Y0024591D01*
X0522009Y0024453D01*
X0522081Y0024313D01*
X0522150Y0024171D01*
X0522216Y0024028D01*
X0522278Y0023883D01*
X0522336Y0023736D01*
X0522391Y0023588D01*
X0522442Y0023439D01*
X0522489Y0023288D01*
X0522532Y0023137D01*
X0522571Y0022984D01*
X0522607Y0022830D01*
X0522638Y0022676D01*
X0522666Y0022521D01*
X0522690Y0022365D01*
X0522710Y0022208D01*
X0522726Y0022051D01*
X0522738Y0021894D01*
X0522746Y0021737D01*
X0522750Y0021579D01*
X0522750Y0021421D01*
X0522746Y0021263D01*
X0522738Y0021106D01*
X0522726Y0020949D01*
X0522710Y0020792D01*
X0522690Y0020635D01*
X0522666Y0020479D01*
X0522638Y0020324D01*
X0522607Y0020170D01*
X0522571Y0020016D01*
X0522532Y0019863D01*
X0522489Y0019712D01*
X0522442Y0019561D01*
X0522391Y0019412D01*
X0522336Y0019264D01*
X0522278Y0019117D01*
X0522216Y0018972D01*
X0522150Y0018829D01*
X0522081Y0018687D01*
X0522009Y0018547D01*
X0521932Y0018409D01*
X0521853Y0018273D01*
X0521769Y0018139D01*
X0521683Y0018007D01*
X0521593Y0017878D01*
X0521500Y0017750D01*
X0521404Y0017625D01*
X0521305Y0017503D01*
X0521202Y0017383D01*
X0521097Y0017265D01*
X0520989Y0017151D01*
X0520877Y0017039D01*
X0520763Y0016930D01*
X0520647Y0016824D01*
X0520527Y0016721D01*
X0520406Y0016621D01*
X0520281Y0016524D01*
X0520154Y0016430D01*
X0520025Y0016339D01*
X0519894Y0016252D01*
X0519761Y0016168D01*
X0519625Y0016087D01*
X0519487Y0016010D01*
X0519348Y0015937D01*
X0519207Y0015867D01*
X0519064Y0015800D01*
X0518919Y0015737D01*
X0518773Y0015678D01*
X0518625Y0015622D01*
X0518476Y0015571D01*
X0518326Y0015523D01*
X0518175Y0015479D01*
X0518022Y0015438D01*
X0517869Y0015402D01*
X0517714Y0015369D01*
X0517559Y0015340D01*
X0517404Y0015316D01*
X0517247Y0015295D01*
X0517091Y0015278D01*
X0516933Y0015265D01*
X0516776Y0015256D01*
X0516618Y0015251D01*
X0516461Y0015250D01*
X0516303Y0015253D01*
X0516145Y0015260D01*
X0515988Y0015271D01*
X0515831Y0015286D01*
X0515674Y0015305D01*
X0515518Y0015328D01*
X0515363Y0015354D01*
X0515208Y0015385D01*
X0515054Y0015419D01*
X0514901Y0015458D01*
X0514749Y0015500D01*
X0514599Y0015546D01*
X0514449Y0015596D01*
X0514301Y0015650D01*
X0514154Y0015707D01*
X0514008Y0015768D01*
X0513865Y0015833D01*
X0513722Y0015901D01*
X0513582Y0015973D01*
X0513444Y0016048D01*
X0513307Y0016127D01*
X0513172Y0016209D01*
X0513040Y0016295D01*
X0512910Y0016384D01*
X0512782Y0016476D01*
X0512656Y0016572D01*
X0512533Y0016670D01*
X0512413Y0016772D01*
X0512295Y0016877D01*
X0512179Y0016984D01*
X0512067Y0017095D01*
X0511957Y0017208D01*
X0511850Y0017324D01*
X0511746Y0017442D01*
X0511645Y0017564D01*
X0511548Y0017687D01*
X0511453Y0017814D01*
X0511362Y0017942D01*
X0511273Y0018073D01*
X0511189Y0018206D01*
X0511107Y0018341D01*
X0511029Y0018478D01*
X0510955Y0018617D01*
X0510884Y0018758D01*
X0510816Y0018900D01*
X0510753Y0019045D01*
X0510692Y0019190D01*
X0510636Y0019338D01*
X0510583Y0019486D01*
X0510534Y0019636D01*
X0510489Y0019787D01*
X0510448Y0019940D01*
X0510410Y0020093D01*
X0510377Y0020247D01*
X0510347Y0020402D01*
X0510321Y0020557D01*
X0510300Y0020714D01*
X0510282Y0020870D01*
X0510268Y0021027D01*
X0510258Y0021185D01*
X0510252Y0021342D01*
X0510250Y0021500D01*
D11*
X0516500Y0021500D03*
X0261500Y0186500D03*
X0261500Y0271500D03*
X0021500Y0341500D03*
X0021500Y0021500D03*
X0516500Y0341500D03*
D12*
X0096500Y0340500D03*
D13*
X0189377Y0260127D02*
X0190014Y0260478D01*
X0190707Y0260699D01*
X0191430Y0260780D01*
X0192090Y0260730D01*
X0192731Y0260566D01*
X0193334Y0260294D01*
X0193880Y0259921D01*
X0194353Y0259459D01*
X0194739Y0258921D01*
X0195026Y0258325D01*
X0195205Y0257688D01*
X0195270Y0257030D01*
X0195203Y0256372D01*
X0195022Y0255735D01*
X0194734Y0255140D01*
X0194347Y0254603D01*
X0193872Y0254142D01*
X0193325Y0253771D01*
X0192721Y0253500D01*
X0192080Y0253338D01*
X0191420Y0253290D01*
X0190700Y0253368D01*
X0190010Y0253586D01*
X0189376Y0253934D01*
X0188822Y0254399D01*
X0188369Y0254963D01*
X0188035Y0255605D01*
X0187833Y0256299D01*
X0187770Y0257020D01*
X0187831Y0257745D01*
X0188033Y0258444D01*
X0188367Y0259090D01*
X0188821Y0259658D01*
X0189377Y0260127D01*
X0189560Y0260227D02*
X0193431Y0260227D01*
X0194077Y0259729D02*
X0188905Y0259729D01*
X0188480Y0259230D02*
X0194517Y0259230D01*
X0194830Y0258732D02*
X0188182Y0258732D01*
X0187972Y0258233D02*
X0195052Y0258233D01*
X0195192Y0257735D02*
X0187830Y0257735D01*
X0187788Y0257236D02*
X0195250Y0257236D01*
X0195240Y0256738D02*
X0187794Y0256738D01*
X0187850Y0256239D02*
X0195165Y0256239D01*
X0195024Y0255741D02*
X0187995Y0255741D01*
X0188224Y0255242D02*
X0194784Y0255242D01*
X0194448Y0254744D02*
X0188545Y0254744D01*
X0189005Y0254245D02*
X0193978Y0254245D01*
X0193271Y0253747D02*
X0189717Y0253747D01*
X0190707Y0249678D02*
X0191430Y0249759D01*
X0192090Y0249710D01*
X0192731Y0249546D01*
X0193334Y0249274D01*
X0193880Y0248901D01*
X0194353Y0248439D01*
X0194739Y0247901D01*
X0195026Y0247305D01*
X0195205Y0246668D01*
X0195270Y0246010D01*
X0195203Y0245352D01*
X0195022Y0244715D01*
X0194734Y0244120D01*
X0194347Y0243583D01*
X0193872Y0243122D01*
X0193325Y0242751D01*
X0192721Y0242480D01*
X0192080Y0242318D01*
X0191420Y0242270D01*
X0190700Y0242348D01*
X0190010Y0242566D01*
X0189376Y0242914D01*
X0188822Y0243379D01*
X0188369Y0243943D01*
X0188035Y0244585D01*
X0187833Y0245279D01*
X0187770Y0246000D01*
X0187831Y0246725D01*
X0188033Y0247423D01*
X0188367Y0248069D01*
X0188821Y0248638D01*
X0189377Y0249107D01*
X0190014Y0249458D01*
X0190707Y0249678D01*
X0191423Y0249759D02*
X0191441Y0249759D01*
X0189655Y0249260D02*
X0193354Y0249260D01*
X0194023Y0248762D02*
X0188968Y0248762D01*
X0188522Y0248263D02*
X0194479Y0248263D01*
X0194805Y0247765D02*
X0188210Y0247765D01*
X0187988Y0247266D02*
X0195037Y0247266D01*
X0195177Y0246768D02*
X0187844Y0246768D01*
X0187793Y0246269D02*
X0195244Y0246269D01*
X0195246Y0245771D02*
X0187790Y0245771D01*
X0187835Y0245272D02*
X0195180Y0245272D01*
X0195039Y0244774D02*
X0187980Y0244774D01*
X0188196Y0244275D02*
X0194809Y0244275D01*
X0194486Y0243777D02*
X0188503Y0243777D01*
X0188942Y0243278D02*
X0194033Y0243278D01*
X0193367Y0242779D02*
X0189621Y0242779D01*
X0191316Y0242281D02*
X0191574Y0242281D01*
X0192105Y0260726D02*
X0190951Y0260726D01*
X0257770Y0257020D02*
X0257833Y0256299D01*
X0258035Y0255605D01*
X0258369Y0254963D01*
X0258822Y0254399D01*
X0259376Y0253934D01*
X0260010Y0253586D01*
X0260700Y0253368D01*
X0261420Y0253290D01*
X0262080Y0253338D01*
X0262721Y0253500D01*
X0263325Y0253771D01*
X0263872Y0254142D01*
X0264347Y0254603D01*
X0264734Y0255140D01*
X0265022Y0255735D01*
X0265203Y0256372D01*
X0265270Y0257030D01*
X0265205Y0257688D01*
X0265026Y0258325D01*
X0264739Y0258921D01*
X0264353Y0259459D01*
X0263880Y0259921D01*
X0263334Y0260294D01*
X0262731Y0260566D01*
X0262090Y0260730D01*
X0261430Y0260780D01*
X0260707Y0260699D01*
X0260014Y0260478D01*
X0259377Y0260127D01*
X0258821Y0259658D01*
X0258367Y0259090D01*
X0258033Y0258444D01*
X0257831Y0257745D01*
X0257770Y0257020D01*
X0257788Y0257236D02*
X0265250Y0257236D01*
X0265240Y0256738D02*
X0257794Y0256738D01*
X0257850Y0256239D02*
X0265165Y0256239D01*
X0265024Y0255741D02*
X0257995Y0255741D01*
X0258224Y0255242D02*
X0264784Y0255242D01*
X0264448Y0254744D02*
X0258545Y0254744D01*
X0259005Y0254245D02*
X0263978Y0254245D01*
X0263271Y0253747D02*
X0259717Y0253747D01*
X0260707Y0249678D02*
X0261430Y0249759D01*
X0262090Y0249710D01*
X0262731Y0249546D01*
X0263334Y0249274D01*
X0263880Y0248901D01*
X0264353Y0248439D01*
X0264739Y0247901D01*
X0265026Y0247305D01*
X0265205Y0246668D01*
X0265270Y0246010D01*
X0265203Y0245352D01*
X0265022Y0244715D01*
X0264734Y0244120D01*
X0264347Y0243583D01*
X0263872Y0243122D01*
X0263325Y0242751D01*
X0262721Y0242480D01*
X0262080Y0242318D01*
X0261420Y0242270D01*
X0260700Y0242348D01*
X0260010Y0242566D01*
X0259376Y0242914D01*
X0258822Y0243379D01*
X0258369Y0243943D01*
X0258035Y0244585D01*
X0257833Y0245279D01*
X0257770Y0246000D01*
X0257831Y0246725D01*
X0258033Y0247423D01*
X0258367Y0248069D01*
X0258821Y0248638D01*
X0259377Y0249107D01*
X0260014Y0249458D01*
X0260707Y0249678D01*
X0261423Y0249759D02*
X0261441Y0249759D01*
X0259655Y0249260D02*
X0263354Y0249260D01*
X0264023Y0248762D02*
X0258968Y0248762D01*
X0258522Y0248263D02*
X0264479Y0248263D01*
X0264805Y0247765D02*
X0258210Y0247765D01*
X0257988Y0247266D02*
X0265037Y0247266D01*
X0265177Y0246768D02*
X0257844Y0246768D01*
X0257793Y0246269D02*
X0265244Y0246269D01*
X0265246Y0245771D02*
X0257790Y0245771D01*
X0257835Y0245272D02*
X0265180Y0245272D01*
X0265039Y0244774D02*
X0257980Y0244774D01*
X0258196Y0244275D02*
X0264809Y0244275D01*
X0264486Y0243777D02*
X0258503Y0243777D01*
X0258942Y0243278D02*
X0264033Y0243278D01*
X0263367Y0242779D02*
X0259621Y0242779D01*
X0261316Y0242281D02*
X0261574Y0242281D01*
X0265192Y0257735D02*
X0257830Y0257735D01*
X0257972Y0258233D02*
X0265052Y0258233D01*
X0264830Y0258732D02*
X0258182Y0258732D01*
X0258480Y0259230D02*
X0264517Y0259230D01*
X0264077Y0259729D02*
X0258905Y0259729D01*
X0259560Y0260227D02*
X0263431Y0260227D01*
X0262105Y0260726D02*
X0260951Y0260726D01*
X0202648Y0205203D02*
X0201990Y0205270D01*
X0201332Y0205205D01*
X0200695Y0205026D01*
X0200099Y0204739D01*
X0199561Y0204353D01*
X0199099Y0203880D01*
X0198726Y0203334D01*
X0198454Y0202731D01*
X0198290Y0202090D01*
X0198241Y0201430D01*
X0198322Y0200707D01*
X0198542Y0200014D01*
X0198893Y0199377D01*
X0199362Y0198821D01*
X0199931Y0198367D01*
X0200577Y0198033D01*
X0201275Y0197831D01*
X0202000Y0197770D01*
X0202721Y0197833D01*
X0203415Y0198035D01*
X0204057Y0198369D01*
X0204621Y0198822D01*
X0205086Y0199376D01*
X0205434Y0200010D01*
X0205652Y0200700D01*
X0205730Y0201420D01*
X0205682Y0202080D01*
X0205520Y0202721D01*
X0205249Y0203325D01*
X0204878Y0203872D01*
X0204417Y0204347D01*
X0203880Y0204734D01*
X0203285Y0205022D01*
X0202648Y0205203D01*
X0203553Y0204893D02*
X0200418Y0204893D01*
X0199618Y0204394D02*
X0204351Y0204394D01*
X0204855Y0203896D02*
X0199114Y0203896D01*
X0198770Y0203397D02*
X0205200Y0203397D01*
X0205441Y0202899D02*
X0198530Y0202899D01*
X0198369Y0202400D02*
X0205601Y0202400D01*
X0205695Y0201902D02*
X0198276Y0201902D01*
X0198244Y0201403D02*
X0205729Y0201403D01*
X0205674Y0200905D02*
X0198299Y0200905D01*
X0198417Y0200406D02*
X0205559Y0200406D01*
X0205378Y0199908D02*
X0198601Y0199908D01*
X0198876Y0199409D02*
X0205104Y0199409D01*
X0204696Y0198910D02*
X0199287Y0198910D01*
X0199875Y0198412D02*
X0204111Y0198412D01*
X0202998Y0197913D02*
X0200991Y0197913D01*
X0194414Y0200010D02*
X0194066Y0199376D01*
X0193601Y0198822D01*
X0193037Y0198369D01*
X0192395Y0198035D01*
X0191701Y0197833D01*
X0190980Y0197770D01*
X0190255Y0197831D01*
X0189556Y0198033D01*
X0188910Y0198367D01*
X0188342Y0198821D01*
X0187873Y0199377D01*
X0187522Y0200014D01*
X0187301Y0200707D01*
X0187220Y0201430D01*
X0187270Y0202090D01*
X0187434Y0202731D01*
X0187706Y0203334D01*
X0188079Y0203880D01*
X0188541Y0204353D01*
X0189079Y0204739D01*
X0189675Y0205026D01*
X0190312Y0205205D01*
X0190970Y0205270D01*
X0191628Y0205203D01*
X0192265Y0205022D01*
X0192860Y0204734D01*
X0193397Y0204347D01*
X0193858Y0203872D01*
X0194229Y0203325D01*
X0194500Y0202721D01*
X0194662Y0202080D01*
X0194710Y0201420D01*
X0194632Y0200700D01*
X0194414Y0200010D01*
X0194358Y0199908D02*
X0187581Y0199908D01*
X0187397Y0200406D02*
X0194539Y0200406D01*
X0194654Y0200905D02*
X0187279Y0200905D01*
X0187223Y0201403D02*
X0194708Y0201403D01*
X0194675Y0201902D02*
X0187256Y0201902D01*
X0187349Y0202400D02*
X0194581Y0202400D01*
X0194421Y0202899D02*
X0187510Y0202899D01*
X0187750Y0203397D02*
X0194180Y0203397D01*
X0193835Y0203896D02*
X0188094Y0203896D01*
X0188598Y0204394D02*
X0193331Y0204394D01*
X0192533Y0204893D02*
X0189398Y0204893D01*
X0187856Y0199409D02*
X0194084Y0199409D01*
X0193676Y0198910D02*
X0188267Y0198910D01*
X0188855Y0198412D02*
X0193091Y0198412D01*
X0191978Y0197913D02*
X0189971Y0197913D01*
X0130230Y0199500D02*
X0130167Y0200221D01*
X0129965Y0200915D01*
X0129631Y0201557D01*
X0129178Y0202121D01*
X0128624Y0202586D01*
X0127990Y0202934D01*
X0127300Y0203152D01*
X0126580Y0203230D01*
X0125920Y0203182D01*
X0125279Y0203020D01*
X0124675Y0202749D01*
X0124128Y0202378D01*
X0123653Y0201917D01*
X0123266Y0201380D01*
X0122978Y0200785D01*
X0122797Y0200148D01*
X0122730Y0199490D01*
X0122795Y0198832D01*
X0122974Y0198195D01*
X0123261Y0197599D01*
X0123647Y0197061D01*
X0124120Y0196599D01*
X0124666Y0196226D01*
X0125269Y0195954D01*
X0125910Y0195790D01*
X0126570Y0195741D01*
X0127293Y0195822D01*
X0127986Y0196042D01*
X0128623Y0196393D01*
X0129179Y0196862D01*
X0129633Y0197431D01*
X0129967Y0198077D01*
X0130169Y0198775D01*
X0130230Y0199500D01*
X0130223Y0199409D02*
X0122738Y0199409D01*
X0122773Y0199908D02*
X0130195Y0199908D01*
X0130113Y0200406D02*
X0122870Y0200406D01*
X0123036Y0200905D02*
X0129968Y0200905D01*
X0129711Y0201403D02*
X0123282Y0201403D01*
X0123642Y0201902D02*
X0129355Y0201902D01*
X0128846Y0202400D02*
X0124161Y0202400D01*
X0125008Y0202899D02*
X0128055Y0202899D01*
X0130180Y0198910D02*
X0122788Y0198910D01*
X0122913Y0198412D02*
X0130064Y0198412D01*
X0129883Y0197913D02*
X0123110Y0197913D01*
X0123393Y0197415D02*
X0129620Y0197415D01*
X0129222Y0196916D02*
X0123795Y0196916D01*
X0124386Y0196418D02*
X0128652Y0196418D01*
X0127601Y0195919D02*
X0125404Y0195919D01*
X0125920Y0192162D02*
X0126580Y0192210D01*
X0127300Y0192132D01*
X0127990Y0191914D01*
X0128624Y0191566D01*
X0129178Y0191101D01*
X0129631Y0190537D01*
X0129965Y0189895D01*
X0130167Y0189201D01*
X0130230Y0188480D01*
X0130169Y0187755D01*
X0129967Y0187056D01*
X0129633Y0186410D01*
X0129179Y0185842D01*
X0128623Y0185373D01*
X0127986Y0185022D01*
X0127293Y0184801D01*
X0126570Y0184720D01*
X0125910Y0184770D01*
X0125269Y0184934D01*
X0124666Y0185206D01*
X0124120Y0185579D01*
X0123647Y0186041D01*
X0123261Y0186579D01*
X0122974Y0187175D01*
X0122795Y0187812D01*
X0122730Y0188470D01*
X0122797Y0189128D01*
X0122978Y0189765D01*
X0123266Y0190360D01*
X0123653Y0190897D01*
X0124128Y0191358D01*
X0124675Y0191729D01*
X0125279Y0192000D01*
X0125920Y0192162D01*
X0125125Y0191931D02*
X0127935Y0191931D01*
X0128783Y0191433D02*
X0124238Y0191433D01*
X0123692Y0190934D02*
X0129312Y0190934D01*
X0129684Y0190436D02*
X0123320Y0190436D01*
X0123061Y0189937D02*
X0129943Y0189937D01*
X0130098Y0189439D02*
X0122885Y0189439D01*
X0122778Y0188940D02*
X0130190Y0188940D01*
X0130227Y0188442D02*
X0122733Y0188442D01*
X0122782Y0187943D02*
X0130185Y0187943D01*
X0130079Y0187445D02*
X0122898Y0187445D01*
X0123084Y0186946D02*
X0129910Y0186946D01*
X0129652Y0186448D02*
X0123355Y0186448D01*
X0123741Y0185949D02*
X0129264Y0185949D01*
X0128715Y0185451D02*
X0124308Y0185451D01*
X0125229Y0184952D02*
X0127767Y0184952D01*
X0127090Y0180730D02*
X0127731Y0180566D01*
X0128334Y0180294D01*
X0128880Y0179921D01*
X0129353Y0179459D01*
X0129739Y0178921D01*
X0130026Y0178325D01*
X0130205Y0177688D01*
X0130270Y0177030D01*
X0130203Y0176372D01*
X0130022Y0175735D01*
X0129734Y0175140D01*
X0129347Y0174603D01*
X0128872Y0174142D01*
X0128325Y0173771D01*
X0127721Y0173500D01*
X0127080Y0173338D01*
X0126420Y0173290D01*
X0125700Y0173368D01*
X0125010Y0173586D01*
X0124376Y0173934D01*
X0123822Y0174399D01*
X0123369Y0174963D01*
X0123035Y0175605D01*
X0122833Y0176299D01*
X0122770Y0177020D01*
X0122831Y0177745D01*
X0123033Y0178444D01*
X0123367Y0179090D01*
X0123821Y0179658D01*
X0124377Y0180127D01*
X0125014Y0180478D01*
X0125707Y0180699D01*
X0126430Y0180780D01*
X0127090Y0180730D01*
X0127953Y0180466D02*
X0124991Y0180466D01*
X0124188Y0179967D02*
X0128812Y0179967D01*
X0129343Y0179469D02*
X0123670Y0179469D01*
X0123306Y0178970D02*
X0129704Y0178970D01*
X0129955Y0178472D02*
X0123048Y0178472D01*
X0122897Y0177973D02*
X0130125Y0177973D01*
X0130226Y0177474D02*
X0122808Y0177474D01*
X0122774Y0176976D02*
X0130265Y0176976D01*
X0130214Y0176477D02*
X0122817Y0176477D01*
X0122926Y0175979D02*
X0130091Y0175979D01*
X0129899Y0175480D02*
X0123100Y0175480D01*
X0123359Y0174982D02*
X0129620Y0174982D01*
X0129223Y0174483D02*
X0123754Y0174483D01*
X0124315Y0173985D02*
X0128640Y0173985D01*
X0127668Y0173486D02*
X0125326Y0173486D01*
X0125707Y0169678D02*
X0126430Y0169759D01*
X0127090Y0169710D01*
X0127731Y0169546D01*
X0128334Y0169274D01*
X0128880Y0168901D01*
X0129353Y0168439D01*
X0129739Y0167901D01*
X0130026Y0167305D01*
X0130205Y0166668D01*
X0130270Y0166010D01*
X0130203Y0165352D01*
X0130022Y0164715D01*
X0129734Y0164120D01*
X0129347Y0163583D01*
X0128872Y0163122D01*
X0128325Y0162751D01*
X0127721Y0162480D01*
X0127080Y0162318D01*
X0126420Y0162270D01*
X0125700Y0162348D01*
X0125010Y0162566D01*
X0124376Y0162914D01*
X0123822Y0163379D01*
X0123369Y0163943D01*
X0123035Y0164585D01*
X0122833Y0165279D01*
X0122770Y0166000D01*
X0122831Y0166725D01*
X0123033Y0167423D01*
X0123367Y0168069D01*
X0123821Y0168638D01*
X0124377Y0169107D01*
X0125014Y0169458D01*
X0125707Y0169678D01*
X0125141Y0169498D02*
X0127837Y0169498D01*
X0128735Y0169000D02*
X0124250Y0169000D01*
X0123712Y0168501D02*
X0129289Y0168501D01*
X0129666Y0168003D02*
X0123333Y0168003D01*
X0123075Y0167504D02*
X0129930Y0167504D01*
X0130110Y0167006D02*
X0122912Y0167006D01*
X0122813Y0166507D02*
X0130221Y0166507D01*
X0130270Y0166009D02*
X0122770Y0166009D01*
X0122812Y0165510D02*
X0130219Y0165510D01*
X0130106Y0165012D02*
X0122911Y0165012D01*
X0123072Y0164513D02*
X0129925Y0164513D01*
X0129658Y0164015D02*
X0123332Y0164015D01*
X0123712Y0163516D02*
X0129278Y0163516D01*
X0128718Y0163018D02*
X0124252Y0163018D01*
X0125158Y0162519D02*
X0127809Y0162519D01*
X0072522Y0184715D02*
X0072234Y0184120D01*
X0071847Y0183583D01*
X0071372Y0183122D01*
X0070825Y0182751D01*
X0070221Y0182480D01*
X0069580Y0182318D01*
X0068920Y0182270D01*
X0068200Y0182348D01*
X0067510Y0182566D01*
X0066876Y0182914D01*
X0066322Y0183379D01*
X0065869Y0183943D01*
X0065535Y0184585D01*
X0065333Y0185279D01*
X0065270Y0186000D01*
X0065331Y0186725D01*
X0065533Y0187423D01*
X0065867Y0188069D01*
X0066321Y0188638D01*
X0066877Y0189107D01*
X0067514Y0189458D01*
X0068207Y0189678D01*
X0068930Y0189759D01*
X0069590Y0189710D01*
X0070231Y0189546D01*
X0070834Y0189274D01*
X0071380Y0188901D01*
X0071853Y0188439D01*
X0072239Y0187901D01*
X0072526Y0187305D01*
X0072705Y0186668D01*
X0072770Y0186010D01*
X0072703Y0185352D01*
X0072522Y0184715D01*
X0072590Y0184952D02*
X0065428Y0184952D01*
X0065318Y0185451D02*
X0072713Y0185451D01*
X0072764Y0185949D02*
X0065274Y0185949D01*
X0065308Y0186448D02*
X0072727Y0186448D01*
X0072627Y0186946D02*
X0065395Y0186946D01*
X0065544Y0187445D02*
X0072459Y0187445D01*
X0072209Y0187943D02*
X0065802Y0187943D01*
X0066165Y0188442D02*
X0071850Y0188442D01*
X0071322Y0188940D02*
X0066680Y0188940D01*
X0067479Y0189439D02*
X0070468Y0189439D01*
X0069580Y0193338D02*
X0068920Y0193290D01*
X0068200Y0193368D01*
X0067510Y0193586D01*
X0066876Y0193934D01*
X0066322Y0194399D01*
X0065869Y0194963D01*
X0065535Y0195605D01*
X0065333Y0196299D01*
X0065270Y0197020D01*
X0065331Y0197745D01*
X0065533Y0198444D01*
X0065867Y0199090D01*
X0066321Y0199658D01*
X0066877Y0200127D01*
X0067514Y0200478D01*
X0068207Y0200699D01*
X0068930Y0200780D01*
X0069590Y0200730D01*
X0070231Y0200566D01*
X0070834Y0200294D01*
X0071380Y0199921D01*
X0071853Y0199459D01*
X0072239Y0198921D01*
X0072526Y0198325D01*
X0072705Y0197688D01*
X0072770Y0197030D01*
X0072703Y0196372D01*
X0072522Y0195735D01*
X0072234Y0195140D01*
X0071847Y0194603D01*
X0071372Y0194142D01*
X0070825Y0193771D01*
X0070221Y0193500D01*
X0069580Y0193338D01*
X0069932Y0193427D02*
X0068015Y0193427D01*
X0066891Y0193925D02*
X0071053Y0193925D01*
X0071662Y0194424D02*
X0066302Y0194424D01*
X0065902Y0194922D02*
X0072077Y0194922D01*
X0072370Y0195421D02*
X0065631Y0195421D01*
X0065443Y0195919D02*
X0072575Y0195919D01*
X0072708Y0196418D02*
X0065322Y0196418D01*
X0065279Y0196916D02*
X0072758Y0196916D01*
X0072732Y0197415D02*
X0065303Y0197415D01*
X0065380Y0197913D02*
X0072641Y0197913D01*
X0072484Y0198412D02*
X0065524Y0198412D01*
X0065775Y0198910D02*
X0072244Y0198910D01*
X0071889Y0199409D02*
X0066122Y0199409D01*
X0066617Y0199908D02*
X0071394Y0199908D01*
X0070585Y0200406D02*
X0067383Y0200406D01*
X0065603Y0184454D02*
X0072396Y0184454D01*
X0072115Y0183955D02*
X0065863Y0183955D01*
X0066259Y0183457D02*
X0071716Y0183457D01*
X0071130Y0182958D02*
X0066823Y0182958D01*
X0067847Y0182460D02*
X0070141Y0182460D01*
D14*
X0051500Y0181500D03*
X0031500Y0181500D03*
X0031500Y0171500D03*
X0031500Y0161500D03*
X0051500Y0161500D03*
X0031500Y0191500D03*
D15*
X0146500Y0191500D03*
X0156500Y0191500D03*
X0166500Y0191500D03*
X0151500Y0271500D03*
X0181500Y0271500D03*
D16*
X0181300Y0256500D02*
X0176500Y0256500D01*
X0176500Y0246500D02*
X0181300Y0246500D01*
X0181300Y0236500D02*
X0176500Y0236500D01*
X0176500Y0226500D02*
X0181300Y0226500D01*
X0214100Y0226500D02*
X0218900Y0226500D01*
X0218900Y0216500D02*
X0214100Y0216500D01*
X0214100Y0206500D02*
X0218900Y0206500D01*
X0218900Y0196500D02*
X0214100Y0196500D01*
X0244100Y0196500D02*
X0248900Y0196500D01*
X0248900Y0206500D02*
X0244100Y0206500D01*
X0244100Y0216500D02*
X0248900Y0216500D01*
X0248900Y0226500D02*
X0244100Y0226500D01*
X0244100Y0236500D02*
X0248900Y0236500D01*
X0248900Y0246500D02*
X0244100Y0246500D01*
X0244100Y0256500D02*
X0248900Y0256500D01*
X0218900Y0256500D02*
X0214100Y0256500D01*
X0214100Y0246500D02*
X0218900Y0246500D01*
X0218900Y0236500D02*
X0214100Y0236500D01*
X0146500Y0236500D02*
X0141700Y0236500D01*
X0141700Y0226500D02*
X0146500Y0226500D01*
X0146500Y0246500D02*
X0141700Y0246500D01*
X0141700Y0256500D02*
X0146500Y0256500D01*
X0113900Y0256500D02*
X0109100Y0256500D01*
X0109100Y0246500D02*
X0113900Y0246500D01*
X0113900Y0236500D02*
X0109100Y0236500D01*
X0109100Y0226500D02*
X0113900Y0226500D01*
X0113900Y0216500D02*
X0109100Y0216500D01*
X0109100Y0206500D02*
X0113900Y0206500D01*
X0113900Y0196500D02*
X0109100Y0196500D01*
X0109100Y0186500D02*
X0113900Y0186500D01*
X0113900Y0176500D02*
X0109100Y0176500D01*
X0109100Y0166500D02*
X0113900Y0166500D01*
X0113900Y0156500D02*
X0109100Y0156500D01*
X0109100Y0146500D02*
X0113900Y0146500D01*
X0113900Y0136500D02*
X0109100Y0136500D01*
X0109100Y0126500D02*
X0113900Y0126500D01*
X0141500Y0134100D02*
X0141500Y0138900D01*
X0151500Y0138900D02*
X0151500Y0134100D01*
X0161500Y0134100D02*
X0161500Y0138900D01*
X0171500Y0138900D02*
X0171500Y0134100D01*
X0181500Y0134100D02*
X0181500Y0138900D01*
X0191500Y0138900D02*
X0191500Y0134100D01*
X0201500Y0134100D02*
X0201500Y0138900D01*
X0211500Y0138900D02*
X0211500Y0134100D01*
X0221500Y0134100D02*
X0221500Y0138900D01*
X0231500Y0138900D02*
X0231500Y0134100D01*
X0241500Y0134100D02*
X0241500Y0138900D01*
X0251500Y0138900D02*
X0251500Y0134100D01*
X0251500Y0164100D02*
X0251500Y0168900D01*
X0241500Y0168900D02*
X0241500Y0164100D01*
X0231500Y0164100D02*
X0231500Y0168900D01*
X0221500Y0168900D02*
X0221500Y0164100D01*
X0211500Y0164100D02*
X0211500Y0168900D01*
X0201500Y0168900D02*
X0201500Y0164100D01*
X0191500Y0164100D02*
X0191500Y0168900D01*
X0181500Y0168900D02*
X0181500Y0164100D01*
X0171500Y0164100D02*
X0171500Y0168900D01*
X0161500Y0168900D02*
X0161500Y0164100D01*
X0151500Y0164100D02*
X0151500Y0168900D01*
X0141500Y0168900D02*
X0141500Y0164100D01*
X0083900Y0166500D02*
X0079100Y0166500D01*
X0079100Y0156500D02*
X0083900Y0156500D01*
X0083900Y0146500D02*
X0079100Y0146500D01*
X0079100Y0136500D02*
X0083900Y0136500D01*
X0083900Y0126500D02*
X0079100Y0126500D01*
X0079100Y0176500D02*
X0083900Y0176500D01*
X0083900Y0186500D02*
X0079100Y0186500D01*
X0079100Y0196500D02*
X0083900Y0196500D01*
X0083900Y0206500D02*
X0079100Y0206500D01*
X0079100Y0216500D02*
X0083900Y0216500D01*
X0083900Y0226500D02*
X0079100Y0226500D01*
X0079100Y0236500D02*
X0083900Y0236500D01*
X0083900Y0246500D02*
X0079100Y0246500D01*
X0079100Y0256500D02*
X0083900Y0256500D01*
D17*
X0051500Y0307563D03*
X0032996Y0319374D03*
X0051500Y0331185D03*
D18*
X0051500Y0106100D03*
X0041500Y0106100D03*
X0061500Y0106100D03*
X0071500Y0106100D03*
X0081500Y0106100D03*
X0091500Y0106100D03*
X0101500Y0106100D03*
X0111500Y0106100D03*
X0121500Y0106100D03*
X0121500Y0076100D03*
X0111500Y0076100D03*
X0101500Y0076100D03*
X0091500Y0076100D03*
X0081500Y0076100D03*
X0071500Y0076100D03*
X0061500Y0076100D03*
X0051500Y0076100D03*
X0041500Y0076100D03*
X0166500Y0076100D03*
X0176500Y0076100D03*
X0186500Y0076100D03*
X0196500Y0076100D03*
X0206500Y0076100D03*
X0216500Y0076100D03*
X0226500Y0076100D03*
X0236500Y0076100D03*
X0246500Y0076100D03*
X0246500Y0106100D03*
X0236500Y0106100D03*
X0226500Y0106100D03*
X0216500Y0106100D03*
X0206500Y0106100D03*
X0196500Y0106100D03*
X0186500Y0106100D03*
X0176500Y0106100D03*
X0166500Y0106100D03*
X0291500Y0106100D03*
X0301500Y0106100D03*
X0311500Y0106100D03*
X0321500Y0106100D03*
X0331500Y0106100D03*
X0341500Y0106100D03*
X0351500Y0106100D03*
X0361500Y0106100D03*
X0371500Y0106100D03*
X0371500Y0076100D03*
X0361500Y0076100D03*
X0351500Y0076100D03*
X0341500Y0076100D03*
X0331500Y0076100D03*
X0321500Y0076100D03*
X0311500Y0076100D03*
X0301500Y0076100D03*
X0291500Y0076100D03*
X0416500Y0076100D03*
X0426500Y0076100D03*
X0436500Y0076100D03*
X0446500Y0076100D03*
X0456500Y0076100D03*
X0466500Y0076100D03*
X0476500Y0076100D03*
X0486500Y0076100D03*
X0496500Y0076100D03*
X0496500Y0106100D03*
X0486500Y0106100D03*
X0476500Y0106100D03*
X0466500Y0106100D03*
X0456500Y0106100D03*
X0446500Y0106100D03*
X0436500Y0106100D03*
X0426500Y0106100D03*
X0416500Y0106100D03*
D19*
X0106500Y0274500D02*
X0106500Y0281500D01*
X0096500Y0281500D02*
X0096500Y0274500D01*
X0086500Y0274500D02*
X0086500Y0281500D01*
D20*
X0141950Y0311500D03*
X0151800Y0301700D03*
X0171500Y0311500D03*
X0191200Y0301700D03*
X0201050Y0311500D03*
X0231950Y0311500D03*
X0241800Y0301700D03*
X0261500Y0311500D03*
X0281200Y0301700D03*
X0291050Y0311500D03*
X0321950Y0311500D03*
X0331800Y0301700D03*
X0351500Y0311500D03*
X0371200Y0301700D03*
X0381050Y0311500D03*
X0411950Y0311500D03*
X0421800Y0301700D03*
X0441500Y0311500D03*
X0461200Y0301700D03*
X0471050Y0311500D03*
X0451350Y0350900D03*
X0431650Y0350900D03*
X0361350Y0350900D03*
X0341650Y0350900D03*
X0271350Y0350900D03*
X0251650Y0350900D03*
X0181350Y0350900D03*
X0161650Y0350900D03*
D21*
X0141950Y0331200D03*
X0201050Y0331200D03*
X0231950Y0331200D03*
X0291050Y0331200D03*
X0321950Y0331200D03*
X0381050Y0331200D03*
X0411950Y0331200D03*
X0471050Y0331200D03*
D22*
X0200500Y0181500D03*
X0126500Y0272500D03*
X0066500Y0272500D03*
D23*
X0066500Y0280500D03*
X0126500Y0280500D03*
X0192500Y0181500D03*
M02*
